{
.formatVersion = 3;
axes = (
{
name = Weight;
tag = wght;
}
);
classes = (
{
code = "zero zero.zero one two three four five six seven eight nine";
name = Digit;
},
{
code = "a b c d e f A B C D E F";
name = DigitHex;
},
{
code = "space bullet periodcentered period";
name = SpaceExlusion;
},
{

glyphs = (
{
color = (153, 254, 255, 255);
glyphname = .notdef;
layers = (
{
layerId = "4A85F2CE-8B6A-44D8-848B-BBECCCC83376";
shapes = (
{
closed = 1;
nodes = (
(125,650,ls),
(134,704,o),
(175,730,o),
(229,730,cs),
(469,730,ls),
(523,730,o),
(554,704,o),
(545,650,cs),
(444,80,ls),
(435,26,o),
(394,0,o),
(340,0,cs),
(100,0,ls),
(46,0,o),
(15,26,o),
(24,80,cs)
);
},
{
closed = 1;
nodes = (
(311,120,ls),
(338,120,o),
(342,123,o),
(346,150,cs),
(422,580,ls),
(427,607,o),
(425,610,o),
(398,610,cs),
(258,610,ls),
(231,610,o),
(227,607,o),
(222,580,cs),
(146,150,ls),
(142,123,o),
(144,120,o),
(171,120,cs)
);
},
{
closed = 1;
nodes = (
(64,52,l),
(405,680,l),
(505,680,l),
(164,52,l)
);
},
{
closed = 1;
nodes = (
(294,52,l),
(175,680,l),
(275,680,l),
(394,52,l)
);
}
);
width = 600;
},
{
layerId = "A29660E2-EDC3-4773-B175-8F2C31004B34";
shapes = (
{
closed = 1;
nodes = (
(135,650,ls),
(144,704,o),
(175,730,o),
(229,730,cs),
(469,730,ls),
(523,730,o),
(544,704,o),
(535,650,cs),
(434,80,ls),
(425,26,o),
(394,0,o),
(340,0,cs),
(100,0,ls),
(46,0,o),
(25,26,o),
(34,80,cs)
);
},
{
closed = 1;
nodes = (
(306,90,ls),
(333,90,o),
(348,103,o),
(353,130,cs),
(436,600,ls),
(441,627,o),
(430,640,o),
(403,640,cs),
(263,640,ls),
(236,640,o),
(221,627,o),
(216,600,cs),
(133,130,ls),
(128,103,o),
(139,90,o),
(166,90,cs)
);
},
{
closed = 1;
nodes = (
(74,52,l),
(415,680,l),
(495,680,l),
(154,52,l)
);
},
{
closed = 1;
nodes = (
(304,52,l),
(185,680,l),
(265,680,l),
(384,52,l)
);
}
);
width = 600;
},
{
layerId = "18543873-86E0-4072-B456-E15DF9A15DA0";
shapes = (
{
closed = 1;
nodes = (
(146,660,ls),
(154,704,o),
(185,730,o),
(229,730,cs),
(469,730,ls),
(513,730,o),
(534,704,o),
(526,660,cs),
(422,70,ls),
(415,26,o),
(384,0,o),
(340,0,cs),
(100,0,ls),
(56,0,o),
(35,26,o),
(42,70,cs)
);
},
{
closed = 1;
nodes = (
(301,60,ls),
(338,60,o),
(365,83,o),
(371,120,cs),
(458,610,ls),
(464,647,o),
(445,670,o),
(408,670,cs),
(268,670,ls),
(231,670,o),
(204,647,o),
(198,610,cs),
(111,120,ls),
(105,83,o),
(124,60,o),
(161,60,cs)
);
},
{
closed = 1;
nodes = (
(72,42,l),
(437,690,l),
(497,690,l),
(132,42,l)
);
},
{
closed = 1;
nodes = (
(322,42,l),
(187,690,l),
(247,690,l),
(382,42,l)
);
}
);
width = 600;
}
);
},
{
color = (153, 254, 255, 255);
glyphname = A;
layers = (
{
anchors = (
{
name = bottom;
position = "{220, 0}";
},
{
name = ogonek;
position = "{402, 0}";
},
{
name = top;
position = "{349, 730}";
}
);
layerId = "4A85F2CE-8B6A-44D8-848B-BBECCCC83376";
shapes = (
{
closed = 1;
nodes = (
(411,285,l),
(416,165,l),
(82,165,l),
(129,285,l)
);
},
{
closed = 1;
nodes = (
(318,526,ls),
(317,535,o),
(311,535,o),
(308,526,cs),
(106,39,ls),
(92,4,o),
(68,-10,o),
(27,-10,cs),
(-34,-10,o),
(-54,22,o),
(-26,87,cs),
(213,637,ls),
(240,700,o),
(285,730,o),
(349,730,cs),
(413,730,o),
(446,700,o),
(451,637,cs),
(496,87,ls),
(502,22,o),
(467,-10,o),
(408,-10,cs),
(367,-10,o),
(350,6,o),
(348,39,cs)
);
}
);
width = 600;
},
{
anchors = (
{
name = bottom;
position = "{220, 0}";
},
{
name = ogonek;
position = "{420, 0}";
},
{
name = top;
position = "{349, 730}";
}
);
layerId = "A29660E2-EDC3-4773-B175-8F2C31004B34";
shapes = (
{
closed = 1;
nodes = (
(415,270,l),
(420,194,l),
(88,194,l),
(121,270,l)
);
},
{
closed = 1;
nodes = (
(331,601,ls),
(330,609,o),
(324,609,o),
(321,601,cs),
(60,19,ls),
(52,0,o),
(38,-10,o),
(13,-10,cs),
(-22,-10,o),
(-34,9,o),
(-17,48,cs),
(263,671,ls),
(281,710,o),
(308,730,o),
(349,730,cs),
(390,730,o),
(409,710,o),
(413,671,cs),
(473,48,ls),
(478,9,o),
(458,-10,o),
(423,-10,cs),
(398,-10,o),
(388,0,o),
(386,19,cs)
);
}
);
width = 600;
},
{
anchors = (
{
name = bottom;
position = "{220, 0}";
},
{
name = ogonek;
position = "{425, 0}";
},
{
name = top;
position = "{349, 730}";
}
);
layerId = "18543873-86E0-4072-B456-E15DF9A15DA0";
shapes = (
{
closed = 1;
nodes = (
(407.082,250,l),
(411.265,200,l),
(100.265,200,l),
(122.082,250,l)
);
},
{
closed = 1;
nodes = (
(338.613,650,ls),
(337.67,656,o),
(333.67,656,o),
(330.613,650,cs),
(37.234,7,ls),
(32.295,-4,o),
(25.237,-10,o),
(10.237,-10,cs),
(-9.763,-10,o),
(-16.824,1,o),
(-6.944,23,cs),
(305.605,701,ls),
(313.955,720,o),
(328.719,730,o),
(348.719,730,cs),
(368.719,730,o),
(379.955,720,o),
(381.605,701,cs),
(455.056,23,ls),
(457.176,1,o),
(446.237,-10,o),
(426.237,-10,cs),
(411.237,-10,o),
(406.295,-4,o),
(405.234,7,cs)
);
}
);
width = 600;
}
);
unicode = 65;
},
{
color = (153, 254, 255, 255);
glyphname = AE;
layers = (
{
layerId = "4A85F2CE-8B6A-44D8-848B-BBECCCC83376";
shapes = (
{
closed = 1;
nodes = (
(-56,0,o),
(-72,23,o),
(-54,70,cs),
(151,632,ls),
(175,698,o),
(220,730,o),
(287,730,cs),
(568,730,ls),
(610,730,o),
(626,710,o),
(619,668,cs),
(611,626,o),
(588,605,o),
(546,605,cs),
(469,605,ls),
(452,605,o),
(442,597,o),
(439,580,cs),
(418,461,ls),
(414,444,o),
(422,436,o),
(439,436,cs),
(487,436,ls),
(531,436,o),
(549,415,o),
(541,371,cs),
(534,327,o),
(507,305,o),
(463,305,cs),
(415,305,ls),
(398,305,o),
(389,297,o),
(386,280,cs),
(367,176,ls),
(361,142,o),
(376,126,o),
(409,126,cs),
(460,126,ls),
(502,126,o),
(518,105,o),
(511,63,cs),
(503,21,o),
(479,0,o),
(437,0,cs),
(311,0,ls),
(244,0,o),
(217,33,o),
(229,100,cs),
(236,140,ls),
(239,157,o),
(232,165,o),
(215,165,cs),
(143,165,ls),
(126,165,o),
(116,157,o),
(110,140,cs),
(87,71,ls),
(71,24,o),
(40,0,o),
(-8,0,cs)
);
},
{
closed = 1;
nodes = (
(163,295,ls),
(156,278,o),
(162,270,o),
(179,270,cs),
(234,270,ls),
(251,270,o),
(260,278,o),
(264,295,cs),
(315,581,ls),
(317,597,o),
(311,605,o),
(295,605,cs),
(279,605,o),
(267,597,o),
(262,581,cs)
);
}
);
width = 600;
},
{
anchors = (
{
name = m.uni0308;
position = "{350, 730}";
},
{
name = m.uni0325_2;
position = "{220, 0}";
}
);
layerId = "A29660E2-EDC3-4773-B175-8F2C31004B34";
shapes = (
{
closed = 1;
nodes = (
(-34,0,o),
(-45,15,o),
(-33,45,cs),
(195,652,ls),
(214,705,o),
(251,730,o),
(305,730,cs),
(580,730,ls),
(607,730,o),
(617,717,o),
(613,690,cs),
(608,663,o),
(592,648,o),
(565,648,cs),
(443,648,ls),
(430,648,o),
(422,641,o),
(420,628,cs),
(387,440,ls),
(384,427,o),
(389,420,o),
(402,420,cs),
(499,420,ls),
(526,420,o),
(538,407,o),
(533,380,cs),
(528,353,o),
(512,338,o),
(485,338,cs),
(388,338,ls),
(375,338,o),
(366,331,o),
(365,318,cs),
(330,122,ls),
(325,95,o),
(335,82,o),
(362,82,cs),
(464,82,ls),
(491,82,o),
(503,69,o),
(498,42,cs),
(492,15,o),
(477,0,o),
(450,0,cs),
(302,0,ls),
(248,0,o),
(227,26,o),
(236,80,cs),
(255,183,ls),
(257,196,o),
(251,203,o),
(238,203,cs),
(137,203,ls),
(124,203,o),
(115,196,o),
(110,183,cs),
(58,45,ls),
(46,15,o),
(26,0,o),
(-4,0,cs)
);
},
{
closed = 1;
nodes = (
(152,298,ls),
(147,285,o),
(151,278,o),
(164,278,cs),
(251,278,ls),
(264,278,o),
(273,285,o),
(275,298,cs),
(332,620,ls),
(336,639,o),
(328,648,o),
(309,648,c),
(290,648,o),
(279,639,o),
(271,621,cs)
);
}
);
width = 600;
},
{
layerId = "18543873-86E0-4072-B456-E15DF9A15DA0";
shapes = (
{
closed = 1;
nodes = (
(-38,0,o),
(-42,8,o),
(-36,24,cs),
(247,672,ls),
(263,711,o),
(292,730,o),
(332,730,cs),
(596,730,ls),
(611,730,o),
(618,723,o),
(615,708,cs),
(612,693,o),
(604,685,o),
(589,685,cs),
(417,685,ls),
(407,685,o),
(401,680,o),
(399,670,cs),
(354,417,ls),
(353,407,o),
(356,402,o),
(366,402,cs),
(502,402,ls),
(517,402,o),
(523,395,o),
(521,380,cs),
(518,365,o),
(510,357,o),
(495,357,cs),
(359,357,ls),
(349,357,o),
(343,352,o),
(341,342,cs),
(293,75,ls),
(290,55,o),
(298,45,o),
(318,45,cs),
(475,45,ls),
(490,45,o),
(496,38,o),
(493,23,cs),
(491,8,o),
(481,0,o),
(466,0,cs),
(290,0,ls),
(250,0,o),
(233,20,o),
(241,60,cs),
(266,200,ls),
(268,210,o),
(263,215,o),
(253,215,cs),
(113,215,ls),
(103,215,o),
(97,210,o),
(92,200,cs),
(14,24,ls),
(8,8,o),
(-4,0,o),
(-21,0,cs)
);
},
{
closed = 1;
nodes = (
(125,275,ls),
(122,265,o),
(124,260,o),
(134,260,cs),
(261,260,ls),
(271,260,o),
(277,265,o),
(278,275,cs),
(347,659,ls),
(350,676,o),
(344,685,o),
(327,685,cs),
(310,685,o),
(297,677,o),
(290,660,cs)
);
}
);
width = 600;
}
);
unicode = 198;
},
{
color = (153, 254, 255, 255);
glyphname = B;
layers = (
{
anchors = (
{
name = bottom;
position = "{220, 0}";
},
{
name = top;
position = "{349, 730}";
}
);
layerId = "4A85F2CE-8B6A-44D8-848B-BBECCCC83376";
shapes = (
{
closed = 1;
nodes = (
(350,730,ls),
(496,730,o),
(579,655,o),
(559,541,cs),
(545,459,o),
(484,397,o),
(410,387,c),
(491,378,o),
(535,304,o),
(518,210,cs),
(496,84,o),
(380,0,o),
(230,0,cs),
(86,0,ls),
(19,0,o),
(-8,33,o),
(4,100,cs),
(97,630,ls),
(109,697,o),
(148,730,o),
(215,730,cs)
);
},
{
closed = 1;
nodes = (
(186,310,l),
(164,185,l),
(158,152,o),
(171,135,o),
(205,135,cs),
(249,135,ls),
(314,135,o),
(360,168,o),
(369,224,cs),
(379,280,o),
(345,310,o),
(280,310,cs)
);
},
{
closed = 1;
nodes = (
(210,450,l),
(298,450,ls),
(354,450,o),
(396,469,o),
(405,523,cs),
(415,577,o),
(380,595,o),
(324,595,cs),
(286,595,ls),
(252,595,o),
(233,578,o),
(227,545,cs)
);
}
);
width = 600;
},
{
anchors = (
{
name = bottom;
position = "{220, 0}";
},
{
name = top;
position = "{349, 730}";
}
);
layerId = "A29660E2-EDC3-4773-B175-8F2C31004B34";
shapes = (
{
closed = 1;
nodes = (
(350,730,ls),
(482,730,o),
(549,659,o),
(529,547,cs),
(513,456,o),
(451,396,o),
(372,381,c),
(456,370,o),
(504,305,o),
(485,201,cs),
(464,78,o),
(368,0,o),
(235,0,cs),
(94,0,ls),
(39,0,o),
(18,26,o),
(27,80,cs),
(128,650,ls),
(137,704,o),
(168,730,o),
(223,730,cs)
);
},
{
closed = 1;
nodes = (
(161,335,l),
(125,130,l),
(120,103,o),
(131,90,o),
(158,90,cs),
(241,90,ls),
(325,90,o),
(384,130,o),
(398,208,cs),
(412,287,o),
(368,335,o),
(284,335,cs)
);
},
{
closed = 1;
nodes = (
(177,425,l),
(295,425,ls),
(372,425,o),
(426,463,o),
(438,534,cs),
(451,605,o),
(411,640,o),
(334,640,cs),
(255,640,ls),
(228,640,o),
(213,627,o),
(208,600,cs)
);
}
);
width = 600;
},
{
anchors = (
{
name = bottom;
position = "{220, 0}";
},
{
name = top;
position = "{349, 730}";
}
);
layerId = "18543873-86E0-4072-B456-E15DF9A15DA0";
shapes = (
{
closed = 1;
nodes = (
(347,730,ls),
(468,730,o),
(534,656,o),
(514,547,cs),
(499,457,o),
(432,382,o),
(361,377,c),
(446,367,o),
(488,298,o),
(470,200,cs),
(449,78,o),
(353,0,o),
(221,0,cs),
(90,0,ls),
(50,0,o),
(34,20,o),
(41,60,cs),
(148,670,ls),
(155,710,o),
(179,730,o),
(219,730,cs)
);
},
{
closed = 1;
nodes = (
(142,353,l),
(94,80,l),
(91,60,o),
(99,50,o),
(119,50,cs),
(230,50,ls),
(332,50,o),
(403,104,o),
(420,199,cs),
(437,294,o),
(385,353,o),
(283,353,cs)
);
},
{
closed = 1;
nodes = (
(150,398,l),
(288,398,ls),
(382,398,o),
(448,452,o),
(463,541,cs),
(479,630,o),
(431,680,o),
(338,680,cs),
(230,680,ls),
(210,680,o),
(198,670,o),
(195,650,cs)
);
}
);
width = 600;
}
);
unicode = 66;
},
{
color = (153, 254, 255, 255);
glyphname = C;
layers = (
{
layerId = "4A85F2CE-8B6A-44D8-848B-BBECCCC83376";
shapes = (
{
closed = 1;
nodes = (
(70,567,o),
(184,740,o),
(407,740,cs),
(525,740,o),
(568,691,o),
(579,636,cs),
(588,593,o),
(576,553,o),
(541,537,cs),
(511,524,o),
(472,533,o),
(458,567,cs),
(449,589,o),
(425,608,o),
(380,608,cs),
(260,608,o),
(204,476,o),
(184,361,cs),
(166,260,o),
(167,125,o),
(296,125,cs),
(340,125,o),
(372,141,o),
(390,156,cs),
(420,182,o),
(456,180,o),
(475,157,cs),
(494,135,o),
(497,93,o),
(463,54,cs),
(419,6,o),
(343,-10,o),
(270,-10,cs),
(28,-10,o),
(0,169,o),
(32,351,cs)
);
}
);
width = 600;
},
{
layerId = "A29660E2-EDC3-4773-B175-8F2C31004B34";
shapes = (
{
closed = 1;
nodes = (
(80,569,o),
(193,740,o),
(406,740,cs),
(517,740,o),
(562,694,o),
(573,646,cs),
(579,614,o),
(568,594,o),
(548,583,cs),
(528,573,o),
(503,573,o),
(490,600,cs),
(477,625,o),
(444,650,o),
(386,650,cs),
(251,650,o),
(161,516,o),
(135,367,cs),
(112,238,o),
(134,80,o),
(292,80,cs),
(330,80,o),
(378,89,o),
(406,108,cs),
(432,126,o),
(458,123,o),
(472,106,cs),
(486,89,o),
(483,63,o),
(453,37,cs),
(405,-3,o),
(333,-10,o),
(272,-10,cs),
(59,-10,o),
(10,168,o),
(45,367,cs)
);
}
);
width = 600;
},
{
layerId = "18543873-86E0-4072-B456-E15DF9A15DA0";
shapes = (
{
closed = 1;
nodes = (
(90,569,o),
(201,740,o),
(403,740,cs),
(497,740,o),
(549,703,o),
(560,669,cs),
(565,653,o),
(563,634,o),
(547,627,cs),
(536,622,o),
(522,625,o),
(517,639,cs),
(509,662,o),
(467,690,o),
(416,690,cs),
(229,690,o),
(132,522,o),
(105,366,cs),
(79,220,o),
(106,40,o),
(285,40,cs),
(318,40,o),
(380,46,o),
(412,67,cs),
(432,81,o),
(449,78,o),
(455,68,cs),
(460,59,o),
(459,43,o),
(448,36,cs),
(395,-3,o),
(333,-10,o),
(276,-10,cs),
(67,-10,o),
(20,168,o),
(55,367,cs)
);
}
);
width = 600;
}
);
unicode = 67;
},
{
color = (153, 254, 255, 255);
glyphname = D;
layers = (
{
layerId = "4A85F2CE-8B6A-44D8-848B-BBECCCC83376";
shapes = (
{
closed = 1;
nodes = (
(73,0,ls),
(13,0,o),
(-12,30,o),
(-1,90,cs),
(96,640,ls),
(106,700,o),
(142,730,o),
(202,730,cs),
(319,730,ls),
(549,730,o),
(585,572,o),
(548,364,cs),
(512,161,o),
(423,0,o),
(190,0,cs)
);
},
{
closed = 1;
nodes = (
(164,175,ls),
(159,148,o),
(170,135,o),
(197,135,cs),
(214,135,ls),
(343,135,o),
(386,257,o),
(406,370,cs),
(425,475,o),
(427,595,o),
(295,595,cs),
(278,595,ls),
(251,595,o),
(236,582,o),
(231,555,cs)
);
}
);
width = 600;
},
{
layerId = "A29660E2-EDC3-4773-B175-8F2C31004B34";
shapes = (
{
closed = 1;
nodes = (
(92,0,ls),
(38,0,o),
(17,26,o),
(26,80,cs),
(127,650,ls),
(136,704,o),
(167,730,o),
(221,730,cs),
(310,730,ls),
(522,730,o),
(547,559,o),
(512,361,cs),
(480,182,o),
(403,0,o),
(181,0,cs)
);
},
{
closed = 1;
nodes = (
(125,130,ls),
(120,103,o),
(131,90,o),
(158,90,cs),
(197,90,ls),
(352,90,o),
(409,243,o),
(430,365,cs),
(452,489,o),
(448,640,o),
(294,640,cs),
(255,640,ls),
(228,640,o),
(213,627,o),
(208,600,cs)
);
}
);
width = 600;
},
{
layerId = "18543873-86E0-4072-B456-E15DF9A15DA0";
shapes = (
{
closed = 1;
nodes = (
(101,0,ls),
(53,0,o),
(34,23,o),
(42,70,cs),
(146,660,ls),
(155,707,o),
(182,730,o),
(230,730,cs),
(280,730,ls),
(513,730,o),
(525,572,o),
(487,356,cs),
(453,166,o),
(393,0,o),
(151,0,cs)
);
},
{
closed = 1;
nodes = (
(96,85,ls),
(92,62,o),
(102,50,o),
(125,50,cs),
(160,50,ls),
(364,50,o),
(407,191,o),
(437,362,cs),
(468,537,o),
(474,680,o),
(271,680,cs),
(236,680,ls),
(213,680,o),
(199,668,o),
(195,645,cs)
);
}
);
width = 600;
}
);
unicode = 68;
},
{
color = (153, 254, 255, 255);
glyphname = E;
layers = (
{
layerId = "4A85F2CE-8B6A-44D8-848B-BBECCCC83376";
shapes = (
{
closed = 1;
nodes = (
(228,440,l),
(431,440,ls),
(473,440,o),
(494,417,o),
(486,375,cs),
(479,333,o),
(450,310,o),
(408,310,cs),
(205,310,l),
(180,170,ls),
(175,143,o),
(186,130,o),
(213,130,cs),
(408,130,ls),
(452,130,o),
(469,109,o),
(461,65,cs),
(454,21,o),
(429,0,o),
(385,0,cs),
(100,0,ls),
(33,0,o),
(6,33,o),
(18,100,cs),
(111,630,ls),
(123,697,o),
(162,730,o),
(229,730,cs),
(514,730,ls),
(558,730,o),
(575,709,o),
(567,665,cs),
(559,621,o),
(535,600,o),
(491,600,cs),
(296,600,ls),
(267,600,o),
(254,588,o),
(249,560,cs)
);
}
);
width = 600;
},
{
layerId = "A29660E2-EDC3-4773-B175-8F2C31004B34";
shapes = (
{
closed = 1;
nodes = (
(185,427,l),
(440,427,ls),
(467,427,o),
(482,409,o),
(477,382,cs),
(473,355,o),
(451,337,o),
(424,337,cs),
(169,337,l),
(133,130,ls),
(128,103,o),
(139,90,o),
(166,90,cs),
(415,90,ls),
(442,90,o),
(453,72,o),
(448,45,cs),
(443,18,o),
(426,0,o),
(399,0,cs),
(100,0,ls),
(46,0,o),
(25,26,o),
(34,80,cs),
(135,650,ls),
(144,704,o),
(175,730,o),
(229,730,cs),
(528,730,ls),
(555,730,o),
(566,712,o),
(561,685,cs),
(556,658,o),
(539,640,o),
(512,640,cs),
(263,640,ls),
(236,640,o),
(221,627,o),
(216,600,cs)
);
}
);
width = 600;
},
{
layerId = "18543873-86E0-4072-B456-E15DF9A15DA0";
shapes = (
{
closed = 1;
nodes = (
(162,406,l),
(445,406,ls),
(460,406,o),
(465,396,o),
(462,381,cs),
(460,366,o),
(451,356,o),
(436,356,cs),
(153,356,l),
(105,85,ls),
(101,62,o),
(111,50,o),
(134,50,cs),
(416,50,ls),
(431,50,o),
(437,40,o),
(434,25,cs),
(432,10,o),
(422,0,o),
(407,0,cs),
(110,0,ls),
(63,0,o),
(44,23,o),
(52,70,cs),
(156,660,ls),
(165,707,o),
(192,730,o),
(239,730,cs),
(536,730,ls),
(551,730,o),
(557,720,o),
(554,705,cs),
(552,690,o),
(542,680,o),
(527,680,cs),
(245,680,ls),
(222,680,o),
(208,668,o),
(204,645,cs)
);
}
);
width = 600;
}
);
unicode = 69;
},
{
color = (153, 254, 255, 255);
glyphname = Eopen;
layers = (
{
layerId = "4A85F2CE-8B6A-44D8-848B-BBECCCC83376";
shapes = (
{
closed = 1;
nodes = (
(574,561,o),
(535,520,o),
(464,520,cs),
(437,520,o),
(424,531,o),
(412,568,cs),
(402,598,o),
(375,616,o),
(336,616,cs),
(284,616,o),
(238,583,o),
(228,529,cs),
(217,465,o),
(253,440,o),
(300,440,cs),
(328,440,ls),
(370,440,o),
(385,420,o),
(378,378,cs),
(370,336,o),
(347,316,o),
(305,316,cs),
(277,316,ls),
(222,316,o),
(167,288,o),
(154,217,cs),
(143,152,o),
(190,118,o),
(250,118,cs),
(289,118,o),
(332,132,o),
(358,163,cs),
(387,198,o),
(406,210,o),
(429,210,cs),
(500,210,o),
(525,168,o),
(487,114,cs),
(431,31,o),
(327,-10,o),
(227,-10,cs),
(95,-10,o),
(-25,59,o),
(1,207,cs),
(16,291,o),
(80,368,o),
(168,386,c),
(96,399,o),
(68,469,o),
(80,541,cs),
(104,676,o),
(235,740,o),
(356,740,cs),
(454,740,o),
(535,696,o),
(558,616,cs)
);
}
);
width = 600;
},
{
anchors = (
{
name = m.uni0308;
position = "{350, 730}";
},
{
name = m.uni0325_2;
position = "{220, 0}";
}
);
layerId = "A29660E2-EDC3-4773-B175-8F2C31004B34";
shapes = (
{
closed = 1;
nodes = (
(550,553,o),
(524,530,o),
(482,530,cs),
(463,530,o),
(455,539,o),
(454,560,cs),
(453,622,o),
(410,660,o),
(342,660,cs),
(271,660,o),
(208,616,o),
(195,542,cs),
(178,448,o),
(244,420,o),
(302,420,cs),
(348,420,ls),
(375,420,o),
(387,407,o),
(382,380,cs),
(377,353,o),
(361,340,o),
(334,340,cs),
(288,340,ls),
(206,340,o),
(130,292,o),
(115,205,cs),
(99,118,o),
(159,70,o),
(241,70,cs),
(310,70,o),
(378,104,o),
(405,170,cs),
(414,191,o),
(425,200,o),
(444,200,cs),
(486,200,o),
(502,178,o),
(484,141,cs),
(438,43,o),
(334,-10,o),
(227,-10,cs),
(101,-10,o),
(-3,61,o),
(21,199,cs),
(37,286,o),
(101,368,o),
(195,384,c),
(123,403,o),
(93,477,o),
(107,551,cs),
(128,674,o),
(242,740,o),
(356,740,cs),
(462,740,o),
(538,685,o),
(545,590,cs)
);
}
);
width = 600;
},
{
layerId = "18543873-86E0-4072-B456-E15DF9A15DA0";
shapes = (
{
closed = 1;
nodes = (
(535,541,o),
(522,530,o),
(499,530,cs),
(488,530,o),
(483,536,o),
(484,547,cs),
(493,635,o),
(442,696,o),
(350,696,cs),
(262,696,o),
(187,639,o),
(171,549,cs),
(154,458,o),
(208,401,o),
(297,401,cs),
(344,401,ls),
(359,401,o),
(365,394,o),
(363,379,cs),
(359,364,o),
(351,356,o),
(336,356,cs),
(294,356,ls),
(197,356,o),
(107,299,o),
(88,196,cs),
(70,93,o),
(139,35,o),
(236,35,cs),
(328,35,o),
(413,86,o),
(438,179,cs),
(440,190,o),
(448,196,o),
(459,196,cs),
(482,196,o),
(491,184,o),
(484,163,cs),
(448,52,o),
(342,-10,o),
(228,-10,cs),
(105,-10,o),
(14,63,o),
(37,194,cs),
(53,282,o),
(121,360,o),
(212,381,c),
(137,397,o),
(107,471,o),
(120,547,cs),
(141,665,o),
(242,740,o),
(357,740,cs),
(472,740,o),
(541,670,o),
(536,563,cs)
);
}
);
width = 600;
}
);
unicode = 400;
},
{
color = (153, 254, 255, 255);
glyphname = Schwa;
layers = (
{
layerId = "4A85F2CE-8B6A-44D8-848B-BBECCCC83376";
shapes = (
{
closed = 1;
nodes = (
(160,310,ls),
(151,310,o),
(146,305,o),
(146,296,cs),
(134,158,o),
(163,115,o),
(235,115,cs),
(304,115,o),
(359,157,o),
(397,294,cs),
(399,304,o),
(397,310,o),
(386,310,cs)
);
},
{
closed = 1;
nodes = (
(527,740,o),
(593,593,o),
(554,373,cs),
(513,143,o),
(395,-10,o),
(213,-10,cs),
(22,-10,o),
(-20,131,o),
(22,365,cs),
(30,409,o),
(53,430,o),
(94,430,cs),
(407,430,ls),
(420,430,o),
(425,435,o),
(426,445,cs),
(434,565,o),
(385,620,o),
(315,620,cs),
(234,620,o),
(191,570,o),
(166,556,cs),
(152,548,o),
(139,542,o),
(129,542,cs),
(95,542,o),
(74,572,o),
(79,603,cs),
(82,620,o),
(92,633,o),
(105,645,cs),
(164,693,o),
(236,740,o),
(346,740,cs)
);
}
);
width = 600;
},
{
layerId = "A29660E2-EDC3-4773-B175-8F2C31004B34";
shapes = (
{
closed = 1;
nodes = (
(149,330,ls),
(138,330,o),
(134,327,o),
(131,314,cs),
(103,160,o),
(139,80,o),
(234,80,cs),
(333,80,o),
(412,180,o),
(436,316,cs),
(439,329,o),
(431,330,o),
(422,330,cs)
);
},
{
closed = 1;
nodes = (
(504,740,o),
(579,612,o),
(536,373,cs),
(496,145,o),
(393,-10,o),
(218,-10,cs),
(44,-10,o),
(1,127,o),
(44,373,cs),
(48,397,o),
(71,420,o),
(99,420,cs),
(436,420,ls),
(449,420,o),
(455,425,o),
(458,439,cs),
(480,563,o),
(424,650,o),
(325,650,cs),
(244,650,o),
(184,596,o),
(157,577,cs),
(147,571,o),
(145,568,o),
(135,568,cs),
(110,568,o),
(94,590,o),
(99,612,cs),
(101,624,o),
(108,634,o),
(117,642,cs),
(176,690,o),
(244,740,o),
(344,740,cs)
);
}
);
width = 600;
},
{
layerId = "18543873-86E0-4072-B456-E15DF9A15DA0";
shapes = (
{
closed = 1;
nodes = (
(107,342,ls),
(101,342,o),
(98,339,o),
(97,332,cs),
(65,151,o),
(98,40,o),
(228,40,cs),
(358,40,o),
(432,161,o),
(463,332,cs),
(464,338,o),
(463,342,o),
(457,342,cs)
);
},
{
closed = 1;
nodes = (
(518,730,o),
(563,594,o),
(524,373,cs),
(483,142,o),
(398,-10,o),
(218,-10,cs),
(38,-10,o),
(11,128,o),
(52,362,cs),
(55,377,o),
(68,392,o),
(84,392,cs),
(466,392,ls),
(471,392,o),
(477,396,o),
(479,403,cs),
(509,572,o),
(450,680,o),
(336,680,cs),
(245,680,o),
(197,637,o),
(157,601,cs),
(146,591,o),
(141,586,o),
(133,586,cs),
(118,586,o),
(108,604,o),
(110,618,cs),
(112,625,o),
(116,631,o),
(122,636,cs),
(183,690,o),
(245,730,o),
(345,730,cs)
);
}
);
width = 600;
}
);
unicode = 399;
},
{
color = (153, 254, 255, 255);
glyphname = F;
layers = (
{
layerId = "4A85F2CE-8B6A-44D8-848B-BBECCCC83376";
shapes = (
{
closed = 1;
nodes = (
(217,436,l),
(449,436,ls),
(491,436,o),
(507,416,o),
(500,374,cs),
(493,332,o),
(469,312,o),
(427,312,cs),
(195,312,l),
(153,75,ls),
(144,25,o),
(115,0,o),
(65,0,cs),
(15,0,o),
(-6,25,o),
(3,75,cs),
(103,640,ls),
(113,700,o),
(149,730,o),
(209,730,cs),
(524,730,ls),
(568,730,o),
(585,709,o),
(577,665,cs),
(569,621,o),
(545,600,o),
(501,600,cs),
(286,600,ls),
(259,600,o),
(244,588,o),
(239,560,cs)
);
}
);
width = 600;
},
{
layerId = "A29660E2-EDC3-4773-B175-8F2C31004B34";
shapes = (
{
closed = 1;
nodes = (
(180,427,l),
(454,427,ls),
(481,427,o),
(492,414,o),
(487,387,cs),
(482,360,o),
(467,347,o),
(440,347,cs),
(166,347,l),
(113,45,ls),
(108,15,o),
(90,0,o),
(60,0,cs),
(30,0,o),
(18,15,o),
(23,45,cs),
(130,650,ls),
(139,704,o),
(170,730,o),
(224,730,cs),
(529,730,ls),
(559,730,o),
(571,715,o),
(566,685,cs),
(560,655,o),
(543,640,o),
(513,640,cs),
(258,640,ls),
(231,640,o),
(216,627,o),
(211,600,cs)
);
}
);
width = 600;
},
{
layerId = "18543873-86E0-4072-B456-E15DF9A15DA0";
shapes = (
{
closed = 1;
nodes = (
(157,406,l),
(457,406,ls),
(474,406,o),
(480,398,o),
(477,381,cs),
(474,364,o),
(465,356,o),
(448,356,cs),
(148,356,l),
(89,25,ls),
(86,8,o),
(77,0,o),
(60,0,cs),
(43,0,o),
(36,8,o),
(39,25,cs),
(151,660,ls),
(160,707,o),
(187,730,o),
(234,730,cs),
(549,730,ls),
(566,730,o),
(572,722,o),
(569,705,cs),
(566,688,o),
(557,680,o),
(540,680,cs),
(240,680,ls),
(217,680,o),
(203,668,o),
(199,645,cs)
);
}
);
width = 600;
}
);
unicode = 70;
},
{
color = (153, 254, 255, 255);
glyphname = G;
layers = (
{
layerId = "4A85F2CE-8B6A-44D8-848B-BBECCCC83376";
shapes = (
{
closed = 1;
nodes = (
(382,248,ls),
(386,275,o),
(376,288,o),
(349,288,cs),
(311,288,ls),
(271,288,o),
(254,308,o),
(261,348,cs),
(268,388,o),
(292,408,o),
(332,408,cs),
(420,408,ls),
(500,408,o),
(533,368,o),
(519,288,cs),
(504,206,ls),
(484,88,o),
(386,-10,o),
(227,-10,cs),
(1,-10,o),
(-27,186,o),
(8,365,cs),
(47,558,o),
(131,740,o),
(343,740,cs),
(439,740,o),
(526,703,o),
(547,621,cs),
(565,559,o),
(531,520,o),
(464,520,cs),
(432,520,o),
(418,529,o),
(415,546,cs),
(410,573,o),
(376,605,o),
(327,605,cs),
(218,605,o),
(173,443,o),
(157,365,cs),
(140,278,o),
(124,125,o),
(242,125,cs),
(320,125,o),
(366,160,o),
(375,210,cs)
);
}
);
width = 600;
},
{
layerId = "A29660E2-EDC3-4773-B175-8F2C31004B34";
shapes = (
{
closed = 1;
nodes = (
(396,270,ls),
(400,297,o),
(388,300,o),
(361,300,cs),
(298,300,ls),
(268,300,o),
(256,315,o),
(261,345,cs),
(266,375,o),
(284,390,o),
(314,390,cs),
(427,390,ls),
(481,390,o),
(502,364,o),
(493,310,cs),
(473,200,ls),
(448,54,o),
(332,-10,o),
(218,-10,cs),
(10,-10,o),
(4,200,o),
(36,365,cs),
(70,535,o),
(138,741,o),
(352,741,cs),
(461,741,o),
(515,689,o),
(529,589,cs),
(533,552,o),
(513,531,o),
(476,531,cs),
(453,531,o),
(442,539,o),
(439,568,cs),
(434,624,o),
(395,651,o),
(338,651,cs),
(190,651,o),
(147,471,o),
(126,365,cs),
(105,255,o),
(86,80,o),
(242,80,cs),
(309,80,o),
(368,113,o),
(383,200,cs)
);
}
);
width = 600;
},
{
layerId = "18543873-86E0-4072-B456-E15DF9A15DA0";
shapes = (
{
closed = 1;
nodes = (
(431,288,ls),
(434,308,o),
(426,318,o),
(406,318,cs),
(281,318,ls),
(264,318,o),
(257,326,o),
(260,343,cs),
(263,360,o),
(273,368,o),
(290,368,cs),
(435,368,ls),
(475,368,o),
(491,348,o),
(484,308,cs),
(465,200,ls),
(441,63,o),
(368,-10,o),
(218,-10,cs),
(28,-10,o),
(36,213,o),
(62,361,cs),
(89,514,o),
(148,741,o),
(357,741,cs),
(474,741,o),
(514,670,o),
(523,564,cs),
(526,543,o),
(514,531,o),
(493,531,cs),
(480,531,o),
(475,536,o),
(473,547,cs),
(468,635,o),
(426,691,o),
(342,691,cs),
(181,691,o),
(132,479,o),
(113,368,cs),
(91,242,o),
(69,40,o),
(227,40,cs),
(340,40,o),
(396,93,o),
(415,200,cs)
);
}
);
width = 600;
}
);
unicode = 71;
},
{
color = (153, 254, 255, 255);
glyphname = H;
layers = (
{
layerId = "4A85F2CE-8B6A-44D8-848B-BBECCCC83376";
shapes = (
{
closed = 1;
nodes = (
(358,309,l),
(190,309,l),
(147,65,ls),
(139,15,o),
(109,-10,o),
(59,-10,cs),
(9,-10,o),
(-11,15,o),
(-3,65,cs),
(103,665,ls),
(112,715,o),
(141,740,o),
(191,740,cs),
(241,740,o),
(262,715,o),
(253,665,cs),
(215,449,l),
(383,449,l),
(421,665,ls),
(430,715,o),
(459,740,o),
(509,740,cs),
(559,740,o),
(580,715,o),
(571,665,cs),
(465,65,ls),
(457,15,o),
(427,-10,o),
(377,-10,cs),
(327,-10,o),
(307,15,o),
(315,65,cs)
);
}
);
width = 600;
},
{
layerId = "A29660E2-EDC3-4773-B175-8F2C31004B34";
shapes = (
{
closed = 1;
nodes = (
(396,332,l),
(162,332,l),
(109,35,ls),
(104,5,o),
(86,-10,o),
(56,-10,cs),
(26,-10,o),
(14,5,o),
(19,35,cs),
(136,695,ls),
(141,725,o),
(158,740,o),
(188,740,cs),
(218,740,o),
(231,725,o),
(226,695,cs),
(177,422,l),
(411,422,l),
(460,695,ls),
(465,725,o),
(482,740,o),
(512,740,cs),
(542,740,o),
(555,725,o),
(550,695,cs),
(433,35,ls),
(428,5,o),
(410,-10,o),
(380,-10,cs),
(350,-10,o),
(338,5,o),
(343,35,cs)
);
}
);
width = 600;
},
{
layerId = "18543873-86E0-4072-B456-E15DF9A15DA0";
shapes = (
{
closed = 1;
nodes = (
(423,355,l),
(143,355,l),
(83,15,ls),
(80,-2,o),
(70,-10,o),
(53,-10,cs),
(36,-10,o),
(30,-2,o),
(33,15,cs),
(154,705,ls),
(157,722,o),
(167,730,o),
(184,730,cs),
(201,730,o),
(207,722,o),
(204,705,cs),
(151,405,l),
(431,405,l),
(484,705,ls),
(487,722,o),
(497,730,o),
(514,730,cs),
(531,730,o),
(537,722,o),
(534,705,cs),
(413,15,ls),
(410,-2,o),
(400,-10,o),
(383,-10,cs),
(366,-10,o),
(360,-2,o),
(363,15,cs)
);
}
);
width = 600;
}
);
unicode = 72;
},
{
color = (153, 254, 255, 255);
glyphname = I;
layers = (
{
layerId = "4A85F2CE-8B6A-44D8-848B-BBECCCC83376";
shapes = (
{
closed = 1;
nodes = (
(319,135,l),
(396,135,ls),
(441,135,o),
(460,113,o),
(452,68,cs),
(444,23,o),
(417,0,o),
(372,0,cs),
(68,0,ls),
(23,0,o),
(4,23,o),
(12,68,cs),
(20,113,o),
(47,135,o),
(92,135,cs),
(169,135,l),
(250,595,l),
(173,595,ls),
(128,595,o),
(109,618,o),
(117,663,cs),
(125,708,o),
(152,730,o),
(197,730,cs),
(501,730,ls),
(546,730,o),
(565,708,o),
(557,663,cs),
(549,618,o),
(522,595,o),
(477,595,cs),
(400,595,l)
);
}
);
width = 600;
},
{
layerId = "A29660E2-EDC3-4773-B175-8F2C31004B34";
shapes = (
{
closed = 1;
nodes = (
(282,90,l),
(386,90,ls),
(413,90,o),
(428,72,o),
(423,45,cs),
(418,18,o),
(397,0,o),
(370,0,cs),
(70,0,ls),
(43,0,o),
(28,18,o),
(33,45,cs),
(38,72,o),
(59,90,o),
(86,90,cs),
(190,90,l),
(287,640,l),
(183,640,ls),
(156,640,o),
(141,658,o),
(146,685,cs),
(151,712,o),
(172,730,o),
(199,730,cs),
(499,730,ls),
(526,730,o),
(541,712,o),
(536,685,cs),
(531,658,o),
(510,640,o),
(483,640,cs),
(379,640,l)
);
}
);
width = 600;
},
{
layerId = "18543873-86E0-4072-B456-E15DF9A15DA0";
shapes = (
{
closed = 1;
nodes = (
(253,50,l),
(384,50,ls),
(399,50,o),
(407,40,o),
(404,25,cs),
(402,10,o),
(390,0,o),
(375,0,cs),
(65,0,ls),
(50,0,o),
(42,10,o),
(44,25,cs),
(47,40,o),
(59,50,o),
(74,50,cs),
(205,50,l),
(316,680,l),
(185,680,ls),
(170,680,o),
(162,690,o),
(164,705,cs),
(167,720,o),
(179,730,o),
(194,730,cs),
(504,730,ls),
(519,730,o),
(527,720,o),
(524,705,cs),
(522,690,o),
(510,680,o),
(495,680,cs),
(364,680,l)
);
}
);
width = 600;
}
);
unicode = 73;
},
{
color = (153, 254, 255, 255);
glyphname = IJ;
layers = (
{
layerId = "4A85F2CE-8B6A-44D8-848B-BBECCCC83376";
shapes = (
{
closed = 1;
nodes = (
(-4,116,o),
(32,151,o),
(95,151,cs),
(124,151,o),
(140,135,o),
(162,91,cs),
(165,84,o),
(171,78,qs),
(193,50,o),
(239,50,qs),
(285,50,o),
(348,103,o),
(357,149,qs),
(427,545,ls),
(433,579,o),
(418,595,o),
(385,595,cs),
(325,595,ls),
(308,595,o),
(300,587,o),
(296,570,cs),
(259,360,ls),
(256,343,o),
(262,335,o),
(279,335,cs),
(281,335,ls),
(326,335,o),
(346,313,o),
(338,268,cs),
(329,223,o),
(303,200,o),
(258,200,cs),
(54,200,ls),
(9,200,o),
(-11,223,o),
(-2,268,cs),
(6,313,o),
(32,335,o),
(77,335,cs),
(79,335,ls),
(96,335,o),
(106,343,o),
(109,360,cs),
(146,570,ls),
(150,587,o),
(142,595,o),
(125,595,cs),
(123,595,ls),
(78,595,o),
(59,618,o),
(68,663,cs),
(76,708,o),
(103,730,o),
(148,730,cs),
(490,730,ls),
(570,730,o),
(603,690,o),
(589,610,cs),
(507,149,ls),
(487,43,o),
(332,-80,o),
(216,-80,qs),
(102,-80,o),
(45,-17,qs),
(14,17,o),
(6,64,qs)
);
}
);
width = 600;
},
{
layerId = "A29660E2-EDC3-4773-B175-8F2C31004B34";
shapes = (
{
closed = 1;
nodes = (
(36,124,o),
(54,140,o),
(85,140,cs),
(113,140,o),
(125,127,o),
(127,95,cs),
(130,62,o),
(149,42,qs),
(179,10,o),
(242,10,qs),
(306,9,o),
(388,73,o),
(400,140,qs),
(482,600,ls),
(486,627,o),
(476,640,o),
(449,640,cs),
(303,640,ls),
(290,640,o),
(282,633,o),
(279,620,cs),
(224,310,ls),
(222,297,o),
(228,290,o),
(241,290,cs),
(275,290,ls),
(302,290,o),
(317,272,o),
(311,245,cs),
(306,218,o),
(286,200,o),
(259,200,cs),
(59,200,ls),
(32,200,o),
(16,218,o),
(21,245,cs),
(27,272,o),
(48,290,o),
(75,290,cs),
(109,290,ls),
(122,290,o),
(130,297,o),
(132,310,cs),
(187,620,ls),
(190,633,o),
(184,640,o),
(171,640,cs),
(137,640,ls),
(110,640,o),
(95,658,o),
(100,685,cs),
(104,712,o),
(126,730,o),
(153,730,cs),
(515,730,ls),
(569,730,o),
(590,704,o),
(580,650,cs),
(490,140,ls),
(472,38,o),
(330,-80,o),
(226,-80,qs),
(121,-80,o),
(72,-21,qs),
(33,24,o),
(35,95,qs)
);
}
);
width = 600;
},
{
layerId = "18543873-86E0-4072-B456-E15DF9A15DA0";
shapes = (
{
closed = 1;
nodes = (
(62,121,o),
(71,130,o),
(88,130,cs),
(104,130,o),
(111,122,o),
(109,105,cs),
(105,46,o),
(135,12,qs),
(169,-30,o),
(240,-30,qs),
(311,-31,o),
(409,53,o),
(422,129,qs),
(515,650,ls),
(519,670,o),
(511,680,o),
(491,680,cs),
(280,680,ls),
(270,680,o),
(264,675,o),
(262,665,cs),
(191,265,ls),
(189,255,o),
(193,250,o),
(203,250,cs),
(289,250,ls),
(304,250,o),
(313,240,o),
(310,225,cs),
(308,210,o),
(296,200,o),
(281,200,cs),
(31,200,ls),
(16,200,o),
(8,210,o),
(10,225,cs),
(13,240,o),
(24,250,o),
(39,250,cs),
(125,250,ls),
(135,250,o),
(141,255,o),
(143,265,cs),
(214,665,ls),
(216,675,o),
(212,680,o),
(202,680,cs),
(116,680,ls),
(101,680,o),
(93,690,o),
(95,705,cs),
(98,720,o),
(110,730,o),
(125,730,cs),
(520,730,ls),
(560,730,o),
(576,710,o),
(569,670,cs),
(472,129,ls),
(456,32,o),
(326,-80,o),
(231,-80,qs),
(136,-80,o),
(91,-24,qs),
(52,25,o),
(59,105,qs)
);
}
);
width = 600;
}
);
unicode = 306;
},
{
color = (153, 254, 255, 255);
glyphname = J;
layers = (
{
layerId = "4A85F2CE-8B6A-44D8-848B-BBECCCC83376";
shapes = (
{
closed = 1;
nodes = (
(-27,209,o),
(7,241,o),
(65,241,cs),
(105,241,o),
(121,226,o),
(132,178,cs),
(141,141,o),
(169,125,o),
(212,125,cs),
(273,125,o),
(318,158,o),
(329,219,cs),
(383,530,ls),
(389,564,o),
(375,580,o),
(342,580,cs),
(252,580,ls),
(202,580,o),
(182,605,o),
(190,655,cs),
(199,705,o),
(229,730,o),
(279,730,cs),
(449,730,ls),
(529,730,o),
(562,690,o),
(548,610,cs),
(479,219,ls),
(454,78,o),
(342,-10,o),
(188,-10,cs),
(64,-10,o),
(-13,48,o),
(-22,156,cs)
);
}
);
width = 600;
},
{
layerId = "A29660E2-EDC3-4773-B175-8F2C31004B34";
shapes = (
{
closed = 1;
nodes = (
(-3,192,o),
(17,210,o),
(51,210,cs),
(77,210,o),
(89,199,o),
(89,166,cs),
(91,107,o),
(130,70,o),
(202,70,cs),
(287,70,o),
(346,121,o),
(362,210,cs),
(431,600,ls),
(436,627,o),
(425,640,o),
(398,640,cs),
(248,640,ls),
(218,640,o),
(205,655,o),
(211,685,cs),
(216,715,o),
(234,730,o),
(264,730,cs),
(464,730,ls),
(518,730,o),
(539,704,o),
(530,650,cs),
(452,210,ls),
(428,74,o),
(327,-10,o),
(188,-10,cs),
(67,-10,o),
(-3,53,o),
(-3,159,cs)
);
}
);
width = 600;
},
{
layerId = "18543873-86E0-4072-B456-E15DF9A15DA0";
shapes = (
{
closed = 1;
nodes = (
(20,169,o),
(31,180,o),
(51,180,cs),
(65,180,o),
(70,174,o),
(69,153,cs),
(65,87,o),
(113,35,o),
(201,35,cs),
(297,35,o),
(367,98,o),
(385,199,cs),
(465,650,ls),
(468,670,o),
(460,680,o),
(440,680,cs),
(260,680,ls),
(243,680,o),
(236,688,o),
(239,705,cs),
(242,722,o),
(252,730,o),
(269,730,cs),
(469,730,ls),
(509,730,o),
(525,710,o),
(518,670,cs),
(435,199,ls),
(412,69,o),
(320,-10,o),
(193,-10,cs),
(76,-10,o),
(14,55,o),
(19,151,cs)
);
}
);
width = 600;
}
);
unicode = 74;
},
{
color = (153, 254, 255, 255);
glyphname = K;
layers = (
{
layerId = "4A85F2CE-8B6A-44D8-848B-BBECCCC83376";
shapes = (
{
closed = 1;
nodes = (
(146,65,ls),
(138,15,o),
(108,-10,o),
(58,-10,cs),
(8,-10,o),
(-12,15,o),
(-4,65,cs),
(102,665,ls),
(111,715,o),
(140,740,o),
(190,740,cs),
(240,740,o),
(261,715,o),
(252,665,cs)
);
},
{
closed = 1;
nodes = (
(176,460,l),
(399,695,ls),
(427,725,o),
(458,740,o),
(492,740,cs),
(541,740,o),
(583,708,o),
(528,648,cs),
(123,201,l)
);
},
{
closed = 1;
nodes = (
(307,444,l),
(460,88,ls),
(487,23,o),
(441,-10,o),
(386,-10,cs),
(347,-10,o),
(323,7,o),
(309,39,cs),
(185,321,l)
);
}
);
width = 600;
},
{
layerId = "A29660E2-EDC3-4773-B175-8F2C31004B34";
shapes = (
{
closed = 1;
nodes = (
(108,35,ls),
(103,5,o),
(85,-10,o),
(55,-10,cs),
(25,-10,o),
(13,5,o),
(18,35,cs),
(135,695,ls),
(140,725,o),
(157,740,o),
(187,740,cs),
(217,740,o),
(230,725,o),
(225,695,cs)
);
},
{
closed = 1;
nodes = (
(156,394,l),
(450,712,ls),
(467,731,o),
(487,740,o),
(505,740,cs),
(530,740,o),
(564,722,o),
(530,684,cs),
(131,248,l)
);
},
{
closed = 1;
nodes = (
(273,442,l),
(443,51,ls),
(461,10,o),
(434,-10,o),
(398,-10,cs),
(373,-10,o),
(358,0,o),
(350,20,cs),
(198,357,l)
);
}
);
width = 600;
},
{
layerId = "18543873-86E0-4072-B456-E15DF9A15DA0";
shapes = (
{
closed = 1;
nodes = (
(83,15,ls),
(80,-2,o),
(70,-10,o),
(53,-10,cs),
(36,-10,o),
(30,-2,o),
(33,15,cs),
(156,715,ls),
(159,732,o),
(168,740,o),
(185,740,cs),
(202,740,o),
(209,732,o),
(206,715,cs)
);
},
{
closed = 1;
nodes = (
(121,328,l),
(489,723,ls),
(503,737,o),
(513,740,o),
(523,740,cs),
(544,740,o),
(560,728,o),
(538,705,cs),
(107,247,l)
);
},
{
closed = 1;
nodes = (
(266,444,l),
(444,25,ls),
(454,2,o),
(435,-10,o),
(417,-10,cs),
(405,-10,o),
(396,-5,o),
(391,7,cs),
(223,399,l)
);
}
);
width = 600;
}
);
unicode = 75;
},
{
color = (153, 254, 255, 255);
glyphname = L;
layers = (
{
layerId = "4A85F2CE-8B6A-44D8-848B-BBECCCC83376";
shapes = (
{
closed = 1;
nodes = (
(155,0,ls),
(75,0,o),
(42,40,o),
(56,120,cs),
(152,665,ls),
(161,715,o),
(190,740,o),
(240,740,cs),
(290,740,o),
(311,715,o),
(302,665,cs),
(219,195,ls),
(212,155,o),
(229,135,o),
(269,135,cs),
(437,135,ls),
(482,135,o),
(500,113,o),
(492,68,cs),
(484,23,o),
(457,0,o),
(412,0,cs)
);
}
);
width = 600;
},
{
layerId = "A29660E2-EDC3-4773-B175-8F2C31004B34";
shapes = (
{
closed = 1;
nodes = (
(130,0,ls),
(76,0,o),
(55,26,o),
(64,80,cs),
(173,695,ls),
(178,725,o),
(195,740,o),
(225,740,cs),
(255,740,o),
(268,725,o),
(263,695,cs),
(163,130,ls),
(158,103,o),
(169,90,o),
(196,90,cs),
(441,90,ls),
(468,90,o),
(483,72,o),
(478,45,cs),
(473,18,o),
(452,0,o),
(425,0,cs)
);
}
);
width = 600;
},
{
layerId = "18543873-86E0-4072-B456-E15DF9A15DA0";
shapes = (
{
closed = 1;
nodes = (
(120,0,ls),
(80,0,o),
(64,20,o),
(71,60,cs),
(186,715,ls),
(189,732,o),
(198,740,o),
(215,740,cs),
(232,740,o),
(239,732,o),
(236,715,cs),
(124,80,ls),
(121,60,o),
(129,50,o),
(149,50,cs),
(449,50,ls),
(464,50,o),
(472,40,o),
(469,25,cs),
(467,10,o),
(455,0,o),
(440,0,cs)
);
}
);
width = 600;
}
);
unicode = 76;
},
{
color = (153, 254, 255, 255);
glyphname = M;
layers = (
{
layerId = "4A85F2CE-8B6A-44D8-848B-BBECCCC83376";
shapes = (
{
closed = 1;
nodes = (
(491,60,ls),
(482,13,o),
(455,-10,o),
(408,-10,cs),
(361,-10,o),
(342,13,o),
(351,60,cs),
(430,510,ls),
(431,517,o),
(423,517,o),
(421,510,cs),
(345,298,ls),
(331,259,o),
(302,240,o),
(262,240,cs),
(222,240,o),
(201,259,o),
(201,298,cs),
(199,510,ls),
(199,516,o),
(191,517,o),
(190,510,cs),
(111,60,ls),
(102,13,o),
(75,-10,o),
(28,-10,cs),
(-19,-10,o),
(-38,13,o),
(-29,60,cs),
(67,608,ls),
(83,696,o),
(125,740,o),
(204,740,cs),
(266,740,o),
(293,713,o),
(292,658,cs),
(291,460,ls),
(291,440,o),
(305,439,o),
(312,460,cs),
(380,658,ls),
(399,713,o),
(444,740,o),
(502,740,cs),
(575,740,o),
(603,696,o),
(588,614,cs)
);
}
);
width = 600;
},
{
layerId = "A29660E2-EDC3-4773-B175-8F2C31004B34";
shapes = (
{
closed = 1;
nodes = (
(466,35,ls),
(461,5,o),
(443,-10,o),
(413,-10,cs),
(383,-10,o),
(371,5,o),
(376,35,cs),
(474,590,ls),
(476,602,o),
(467,602,o),
(461,590,cs),
(323,297,ls),
(312,272,o),
(292,260,o),
(266,260,cs),
(240,260,o),
(224,272,o),
(221,297,cs),
(187,590,ls),
(185,603,o),
(176,602,o),
(174,590,cs),
(76,35,ls),
(71,5,o),
(53,-10,o),
(23,-10,cs),
(-7,-10,o),
(-19,5,o),
(-14,35,cs),
(95,655,ls),
(106,712,o),
(138,740,o),
(190,740,cs),
(231,740,o),
(254,722,o),
(258,685,cs),
(281,410,ls),
(283,392,o),
(295,392,o),
(303,410,cs),
(424,685,ls),
(440,722,o),
(469,740,o),
(510,740,cs),
(562,740,o),
(586,712,o),
(575,655,cs)
);
}
);
width = 600;
},
{
layerId = "18543873-86E0-4072-B456-E15DF9A15DA0";
shapes = (
{
closed = 1;
nodes = (
(433,15,ls),
(430,-2,o),
(420,-10,o),
(403,-10,cs),
(386,-10,o),
(380,-2,o),
(383,15,cs),
(493,640,ls),
(495,650,o),
(486,651,o),
(480,640,cs),
(311,306,ls),
(302,288,o),
(288,280,o),
(269,280,cs),
(250,280,o),
(240,288,o),
(237,306,cs),
(186,640,ls),
(184,652,o),
(174,649,o),
(173,640,cs),
(63,15,ls),
(60,-2,o),
(50,-10,o),
(33,-10,cs),
(16,-10,o),
(10,-2,o),
(13,15,cs),
(132,692,ls),
(138,724,o),
(156,740,o),
(187,740,cs),
(212,740,o),
(227,729,o),
(229,706,cs),
(278,380,ls),
(280,368,o),
(290,368,o),
(296,380,cs),
(459,706,ls),
(471,729,o),
(488,740,o),
(513,740,cs),
(544,740,o),
(558,724,o),
(552,692,cs)
);
}
);
width = 600;
}
);
unicode = 77;
},
{
color = (153, 254, 255, 255);
glyphname = N;
layers = (
{
layerId = "4A85F2CE-8B6A-44D8-848B-BBECCCC83376";
shapes = (
{
closed = 1;
nodes = (
(81,629,ls),
(94,703,o),
(137,740,o),
(206,740,cs),
(261,740,o),
(287,716,o),
(295,669,cs),
(362,240,ls),
(363,236,o),
(364,234,o),
(367,234,cs),
(370,234,o),
(372,236,o),
(372,240,cs),
(448,670,ls),
(456,717,o),
(483,740,o),
(530,740,cs),
(577,740,o),
(596,717,o),
(588,670,cs),
(488,101,ls),
(475,27,o),
(431,-10,o),
(362,-10,cs),
(307,-10,o),
(281,14,o),
(274,61,cs),
(206,490,ls),
(206,494,o),
(204,496,o),
(201,496,cs),
(198,496,o),
(197,494,o),
(196,490,cs),
(121,60,ls),
(112,13,o),
(85,-10,o),
(38,-10,cs),
(-9,-10,o),
(-28,13,o),
(-19,60,cs)
);
}
);
width = 600;
},
{
layerId = "A29660E2-EDC3-4773-B175-8F2C31004B34";
shapes = (
{
closed = 1;
nodes = (
(117,662,ls),
(126,714,o),
(156,740,o),
(204,740,cs),
(243,740,o),
(261,723,o),
(268,690,cs),
(367,150,ls),
(368,146,o),
(368,144,o),
(371,144,cs),
(374,144,o),
(376,146,o),
(376,150,cs),
(473,695,ls),
(478,725,o),
(495,740,o),
(525,740,cs),
(555,740,o),
(568,725,o),
(563,695,cs),
(452,68,ls),
(443,16,o),
(412,-10,o),
(364,-10,cs),
(325,-10,o),
(307,7,o),
(301,40,cs),
(201,580,ls),
(201,584,o),
(200,586,o),
(197,586,cs),
(194,586,o),
(193,584,o),
(192,580,cs),
(96,35,ls),
(91,5,o),
(73,-10,o),
(43,-10,cs),
(13,-10,o),
(1,5,o),
(6,35,cs)
);
}
);
width = 600;
},
{
layerId = "18543873-86E0-4072-B456-E15DF9A15DA0";
shapes = (
{
closed = 1;
nodes = (
(152,693,ls),
(158,724,o),
(176,740,o),
(207,740,cs),
(231,740,o),
(245,729,o),
(249,707,cs),
(364,80,ls),
(364,76,o),
(366,74,o),
(369,74,cs),
(372,74,o),
(373,76,o),
(374,80,cs),
(486,715,ls),
(489,732,o),
(498,740,o),
(515,740,cs),
(532,740,o),
(539,732,o),
(536,715,cs),
(417,37,ls),
(411,6,o),
(392,-10,o),
(361,-10,cs),
(337,-10,o),
(324,1,o),
(320,23,cs),
(205,650,ls),
(204,654,o),
(203,656,o),
(200,656,cs),
(197,656,o),
(195,654,o),
(195,650,cs),
(83,15,ls),
(80,-2,o),
(70,-10,o),
(53,-10,cs),
(36,-10,o),
(30,-2,o),
(33,15,cs)
);
}
);
width = 600;
}
);
unicode = 78;
},
{
color = (153, 254, 255, 255);
glyphname = O;
layers = (
{
layerId = "4A85F2CE-8B6A-44D8-848B-BBECCCC83376";
shapes = (
{
closed = 1;
nodes = (
(337,125,o),
(375,283,o),
(389,365,cs),
(404,448,o),
(422,605,o),
(327,605,cs),
(233,605,o),
(194,447,o),
(179,365,cs),
(165,283,o),
(148,125,o),
(242,125,cs)
);
},
{
closed = 1;
nodes = (
(3,-10,o),
(2,208,o),
(29,365,cs),
(57,522,o),
(132,740,o),
(350,740,cs),
(566,740,o),
(567,524,o),
(540,371,cs),
(512,208,o),
(432,-10,o),
(218,-10,cs)
);
}
);
width = 600;
},
{
layerId = "A29660E2-EDC3-4773-B175-8F2C31004B34";
shapes = (
{
closed = 1;
nodes = (
(362,80,o),
(415,271,o),
(432,367,cs),
(448,460,o),
(464,650,o),
(335,650,cs),
(206,650,o),
(154,459,o),
(138,366,cs),
(121,271,o),
(106,80,o),
(234,80,cs)
);
},
{
closed = 1;
nodes = (
(18,-10,o),
(20,208,o),
(48,367,cs),
(75,522,o),
(148,740,o),
(350,740,cs),
(551,740,o),
(549,524,o),
(522,368,cs),
(494,208,o),
(417,-10,o),
(218,-10,cs)
);
}
);
width = 600;
},
{
layerId = "18543873-86E0-4072-B456-E15DF9A15DA0";
shapes = (
{
closed = 1;
nodes = (
(380,40,o),
(446,260,o),
(465,367,cs),
(483,472,o),
(496,690,o),
(342,690,cs),
(188,690,o),
(123,470,o),
(104,365,cs),
(86,260,o),
(74,40,o),
(227,40,cs)
);
},
{
closed = 1;
nodes = (
(24,-10,o),
(27,208,o),
(55,367,cs),
(82,522,o),
(154,740,o),
(350,740,cs),
(546,740,o),
(542,524,o),
(515,369,cs),
(487,208,o),
(411,-10,o),
(218,-10,cs)
);
}
);
width = 600;
}
);
unicode = 79;
},
{
color = (153, 254, 255, 255);
glyphname = OE;
layers = (
{
layerId = "4A85F2CE-8B6A-44D8-848B-BBECCCC83376";
shapes = (
{
closed = 1;
nodes = (
(235,115,o),
(275,283,o),
(290,365,cs),
(304,448,o),
(325,615,o),
(250,615,cs),
(176,615,o),
(134,447,o),
(120,365,cs),
(105,283,o),
(86,115,o),
(160,115,cs)
);
},
{
closed = 1;
nodes = (
(-57,-10,o),
(-58,208,o),
(-30,365,cs),
(-2,522,o),
(76,740,o),
(271,740,cs),
(470,740,o),
(468,524,o),
(440,365,cs),
(412,208,o),
(332,-10,o),
(138,-10,cs)
);
},
{
closed = 1;
nodes = (
(185,0,l),
(298,130,l),
(493,130,ls),
(537,130,o),
(554,109,o),
(547,65,cs),
(538,21,o),
(514,0,o),
(470,0,cs)
);
},
{
closed = 1;
nodes = (
(319,308,l),
(344,440,l),
(517,440,ls),
(559,440,o),
(578,417,o),
(571,375,cs),
(563,333,o),
(534,308,o),
(492,308,cs)
);
},
{
closed = 1;
nodes = (
(382,600,l),
(315,730,l),
(600,730,ls),
(644,730,o),
(661,709,o),
(653,665,cs),
(645,621,o),
(621,600,o),
(577,600,cs)
);
}
);
width = 600;
},
{
layerId = "A29660E2-EDC3-4773-B175-8F2C31004B34";
shapes = (
{
closed = 1;
nodes = (
(262,80,o),
(316,271,o),
(332,365,cs),
(349,460,o),
(364,650,o),
(255,650,cs),
(146,650,o),
(95,459,o),
(78,365,cs),
(62,271,o),
(46,80,o),
(154,80,cs)
);
},
{
closed = 1;
nodes = (
(-42,-10,o),
(-40,208,o),
(-12,365,cs),
(16,522,o),
(91,740,o),
(271,740,cs),
(454,740,o),
(450,524,o),
(422,365,cs),
(394,208,o),
(317,-10,o),
(138,-10,cs)
);
},
{
closed = 1;
nodes = (
(180,0,l),
(246,90,l),
(495,90,ls),
(522,90,o),
(532,72,o),
(528,45,cs),
(523,18,o),
(506,0,o),
(479,0,cs)
);
},
{
closed = 1;
nodes = (
(365,337,l),
(381,427,l),
(521,427,ls),
(548,427,o),
(563,409,o),
(558,382,cs),
(553,355,o),
(532,337,o),
(505,337,cs)
);
},
{
closed = 1;
nodes = (
(344,640,l),
(310,730,l),
(609,730,ls),
(636,730,o),
(646,712,o),
(642,685,cs),
(637,658,o),
(620,640,o),
(593,640,cs)
);
}
);
width = 600;
},
{
layerId = "18543873-86E0-4072-B456-E15DF9A15DA0";
shapes = (
{
closed = 1;
nodes = (
(281,40,o),
(340,260,o),
(359,365,cs),
(378,472,o),
(397,690,o),
(263,690,cs),
(129,690,o),
(70,470,o),
(51,365,cs),
(32,260,o),
(15,40,o),
(148,40,cs)
);
},
{
closed = 1;
nodes = (
(-36,-10,o),
(-27,208,o),
(1,365,cs),
(29,522,o),
(97,740,o),
(271,740,cs),
(449,740,o),
(437,524,o),
(409,365,cs),
(381,208,o),
(311,-10,o),
(138,-10,cs)
);
},
{
closed = 1;
nodes = (
(190,0,l),
(214,50,l),
(496,50,ls),
(511,50,o),
(518,40,o),
(514,25,cs),
(512,10,o),
(502,0,o),
(487,0,cs)
);
},
{
closed = 1;
nodes = (
(384,356,l),
(392,406,l),
(525,406,ls),
(540,406,o),
(545,396,o),
(543,381,cs),
(540,366,o),
(532,356,o),
(517,356,cs)
);
},
{
closed = 1;
nodes = (
(326,680,l),
(320,730,l),
(617,730,ls),
(632,730,o),
(638,720,o),
(635,705,cs),
(633,690,o),
(623,680,o),
(608,680,cs)
);
}
);
width = 600;
}
);
unicode = 338;
},
{
color = (153, 254, 255, 255);
glyphname = P;
layers = (
{
layerId = "4A85F2CE-8B6A-44D8-848B-BBECCCC83376";
shapes = (
{
closed = 1;
nodes = (
(134,416,l),
(308,416,ls),
(367,416,o),
(418,445,o),
(430,508,cs),
(441,571,o),
(400,600,o),
(341,600,cs),
(292,600,ls),
(259,600,o),
(239,583,o),
(233,550,cs),
(147,65,ls),
(139,15,o),
(108,-10,o),
(58,-10,cs),
(8,-10,o),
(-11,15,o),
(-3,65,cs),
(97,630,ls),
(109,697,o),
(148,730,o),
(215,730,cs),
(364,730,ls),
(500,730,o),
(605,654,o),
(580,508,cs),
(554,363,o),
(420,286,o),
(285,286,cs),
(111,286,l)
);
}
);
width = 600;
},
{
layerId = "A29660E2-EDC3-4773-B175-8F2C31004B34";
shapes = (
{
closed = 1;
nodes = (
(129,410,l),
(319,410,ls),
(390,410,o),
(456,449,o),
(470,525,cs),
(483,602,o),
(432,640,o),
(360,640,cs),
(255,640,ls),
(228,640,o),
(213,627,o),
(208,600,c),
(108,35,ls),
(103,5,o),
(85,-10,o),
(55,-10,cs),
(25,-10,o),
(13,5,o),
(18,35,cs),
(127,650,ls),
(136,704,o),
(167,730,o),
(221,730,cs),
(376,730,ls),
(502,730,o),
(586,656,o),
(563,525,cs),
(539,394,o),
(428,320,o),
(303,320,cs),
(113,320,l)
);
}
);
width = 600;
},
{
layerId = "18543873-86E0-4072-B456-E15DF9A15DA0";
shapes = (
{
closed = 1;
nodes = (
(129,394,l),
(314,394,ls),
(405,394,o),
(483,440,o),
(500,537,cs),
(517,635,o),
(457,680,o),
(365,680,cs),
(230,680,ls),
(210,680,o),
(198,670,o),
(195,650,cs),
(83,15,ls),
(80,-2,o),
(70,-10,o),
(53,-10,cs),
(36,-10,o),
(30,-2,o),
(33,15,cs),
(148,670,ls),
(155,710,o),
(179,730,o),
(219,730,cs),
(374,730,ls),
(492,730,o),
(571,660,o),
(550,537,cs),
(528,414,o),
(424,344,o),
(306,344,cs),
(121,344,l)
);
}
);
width = 600;
}
);
unicode = 80;
},
{
color = (153, 254, 255, 255);
glyphname = Thorn;
layers = (
{
layerId = "4A85F2CE-8B6A-44D8-848B-BBECCCC83376";
shapes = (
{
closed = 1;
nodes = (
(15,0,o),
(-6,25,o),
(3,75,cs),
(106,655,ls),
(115,705,o),
(145,730,o),
(195,730,cs),
(245,730,o),
(265,705,o),
(256,655,cs),
(250,620,ls),
(247,603,o),
(253,595,o),
(270,595,cs),
(365,595,ls),
(437,595,o),
(532,544,o),
(569,448,o),
(558,380,qs),
(540,280,o),
(396,165,o),
(289,165,qs),
(194,165,ls),
(177,165,o),
(168,157,o),
(165,140,cs),
(153,75,ls),
(144,25,o),
(115,0,o),
(65,0,cs)
);
},
{
closed = 1;
nodes = (
(196,315,ls),
(193,298,o),
(200,290,o),
(217,290,cs),
(287,290,ls),
(338,290,o),
(400,337,o),
(408,380,qs),
(415,424,o),
(370,470,o),
(319,470,qs),
(249,470,ls),
(232,470,o),
(222,462,o),
(219,445,cs)
);
}
);
width = 600;
},
{
layerId = "A29660E2-EDC3-4773-B175-8F2C31004B34";
shapes = (
{
closed = 1;
nodes = (
(25,0,o),
(12,15,o),
(18,45,cs),
(132,685,ls),
(137,715,o),
(155,730,o),
(185,730,cs),
(215,730,o),
(227,715,o),
(222,685,cs),
(207,600,ls),
(205,587,o),
(210,580,o),
(223,580,cs),
(356,580,ls),
(422,580,o),
(510,530,o),
(549,440,o),
(538,380,qs),
(521,289,o),
(384,180,o),
(285,180,qs),
(152,180,ls),
(139,180,o),
(131,173,o),
(128,160,cs),
(108,45,ls),
(102,15,o),
(85,0,o),
(55,0,cs)
);
},
{
closed = 1;
nodes = (
(150,280,ls),
(148,267,o),
(153,260,o),
(166,260,cs),
(299,260,ls),
(357,260,o),
(435,325,o),
(445,380,qs),
(455,436,o),
(399,500,o),
(342,500,qs),
(209,500,ls),
(196,500,o),
(188,493,o),
(185,480,cs)
);
}
);
width = 600;
},
{
layerId = "18543873-86E0-4072-B456-E15DF9A15DA0";
shapes = (
{
closed = 1;
nodes = (
(33,0,o),
(27,8,o),
(29,25,cs),
(150,705,ls),
(153,722,o),
(163,730,o),
(180,730,cs),
(197,730,o),
(203,722,o),
(200,705,cs),
(178,580,ls),
(176,570,o),
(180,565,o),
(190,565,cs),
(353,565,ls),
(414,565,o),
(495,520,o),
(528,437,o),
(518,380,qs),
(503,295,o),
(378,195,o),
(287,195,qs),
(124,195,ls),
(114,195,o),
(108,190,o),
(107,180,cs),
(79,25,ls),
(77,8,o),
(67,0,o),
(50,0,cs)
);
},
{
closed = 1;
nodes = (
(120,256,ls),
(118,246,o),
(123,241,o),
(133,241,cs),
(296,241,ls),
(364,241,o),
(456,316,o),
(468,380,qs),
(479,445,o),
(414,520,o),
(346,520,qs),
(183,520,ls),
(173,520,o),
(166,515,o),
(164,505,cs)
);
}
);
width = 600;
}
);
unicode = 222;
},
{
color = (153, 254, 255, 255);
glyphname = Q;
layers = (
{
layerId = "4A85F2CE-8B6A-44D8-848B-BBECCCC83376";
shapes = (
{
closed = 1;
nodes = (
(335,115,o),
(375,283,o),
(389,365,cs),
(404,448,o),
(423,615,o),
(328,615,cs),
(234,615,o),
(194,447,o),
(179,365,cs),
(165,283,o),
(146,115,o),
(240,115,cs)
);
},
{
closed = 1;
nodes = (
(3,-10,o),
(2,208,o),
(30,368,cs),
(57,522,o),
(132,740,o),
(350,740,cs),
(566,740,o),
(567,524,o),
(540,368,cs),
(512,208,o),
(432,-10,o),
(218,-10,cs)
);
},
{
closed = 1;
nodes = (
(197,-177,ls),
(160,-165,o),
(148,-138,o),
(167,-97,cs),
(186,-59,o),
(214,-45,o),
(250,-56,cs),
(403,-102,ls),
(441,-114,o),
(453,-141,o),
(433,-183,cs),
(414,-224,o),
(385,-233,o),
(349,-223,cs)
);
}
);
width = 600;
},
{
layerId = "A29660E2-EDC3-4773-B175-8F2C31004B34";
shapes = (
{
closed = 1;
nodes = (
(362,80,o),
(415,271,o),
(432,367,cs),
(448,460,o),
(464,650,o),
(335,650,cs),
(206,650,o),
(154,459,o),
(138,366,cs),
(121,271,o),
(106,80,o),
(234,80,cs)
);
},
{
closed = 1;
nodes = (
(18,-10,o),
(20,208,o),
(48,367,cs),
(75,522,o),
(148,740,o),
(350,740,cs),
(551,740,o),
(549,524,o),
(522,368,cs),
(494,208,o),
(417,-10,o),
(218,-10,cs)
);
},
{
closed = 1;
nodes = (
(193,-154,ls),
(164,-146,o),
(159,-127,o),
(172,-99,cs),
(183,-76,o),
(200,-61,o),
(224,-67,cs),
(396,-113,ls),
(424,-121,o),
(432,-141,o),
(419,-168,cs),
(406,-196,o),
(382,-207,o),
(358,-200,cs)
);
}
);
width = 600;
},
{
layerId = "18543873-86E0-4072-B456-E15DF9A15DA0";
shapes = (
{
closed = 1;
nodes = (
(380,40,o),
(446,260,o),
(465,367,cs),
(483,472,o),
(496,690,o),
(342,690,cs),
(188,690,o),
(123,470,o),
(104,365,cs),
(86,260,o),
(74,40,o),
(227,40,cs)
);
},
{
closed = 1;
nodes = (
(24,-10,o),
(27,208,o),
(55,367,cs),
(82,522,o),
(154,740,o),
(350,740,cs),
(546,740,o),
(542,524,o),
(515,369,cs),
(487,208,o),
(411,-10,o),
(218,-10,cs)
);
},
{
closed = 1;
nodes = (
(189,-124,ls),
(172,-119,o),
(172,-107,o),
(177,-95,cs),
(184,-78,o),
(198,-73,o),
(211,-76,cs),
(395,-127,ls),
(411,-131,o),
(413,-145,o),
(407,-159,cs),
(400,-175,o),
(386,-180,o),
(373,-176,cs)
);
}
);
width = 600;
}
);
unicode = 81;
},
{
color = (153, 254, 255, 255);
glyphname = R;
layers = (
{
anchors = (
{
name = bottom;
position = "{220, 0}";
},
{
name = top;
position = "{349, 730}";
}
);
layerId = "4A85F2CE-8B6A-44D8-848B-BBECCCC83376";
shapes = (
{
closed = 1;
nodes = (
(383,360,l),
(474,79,ls),
(493,19,o),
(470,-10,o),
(397,-10,cs),
(364,-10,o),
(338,-4,o),
(326,35,cs),
(234,340,l)
);
},
{
closed = 1;
nodes = (
(134,416,l),
(308,416,ls),
(367,416,o),
(418,445,o),
(430,508,cs),
(441,571,o),
(400,600,o),
(341,600,cs),
(292,600,ls),
(259,600,o),
(239,583,o),
(233,550,cs),
(147,65,ls),
(139,15,o),
(108,-10,o),
(58,-10,cs),
(8,-10,o),
(-11,15,o),
(-3,65,cs),
(97,630,ls),
(109,697,o),
(148,730,o),
(215,730,cs),
(364,730,ls),
(500,730,o),
(605,654,o),
(580,508,cs),
(554,363,o),
(420,286,o),
(285,286,cs),
(111,286,l)
);
}
);
width = 600;
},
{
anchors = (
{
name = bottom;
position = "{220, 0}";
},
{
name = top;
position = "{349, 730}";
}
);
layerId = "A29660E2-EDC3-4773-B175-8F2C31004B34";
shapes = (
{
closed = 1;
nodes = (
(355,380,l),
(460,49,ls),
(473,9,o),
(456,-10,o),
(418,-10,cs),
(390,-10,o),
(376,0,o),
(370,20,cs),
(260,373,l)
);
},
{
closed = 1;
nodes = (
(129,410,l),
(319,410,ls),
(390,410,o),
(456,449,o),
(470,525,cs),
(483,602,o),
(432,640,o),
(360,640,cs),
(255,640,ls),
(228,640,o),
(213,627,o),
(208,600,cs),
(108,35,ls),
(103,5,o),
(85,-10,o),
(55,-10,cs),
(25,-10,o),
(13,5,o),
(18,35,cs),
(127,650,ls),
(136,704,o),
(167,730,o),
(221,730,cs),
(376,730,ls),
(502,730,o),
(586,656,o),
(563,525,cs),
(539,394,o),
(428,320,o),
(303,320,cs),
(113,320,l)
);
}
);
width = 600;
},
{
anchors = (
{
name = bottom;
position = "{220, 0}";
},
{
name = top;
position = "{349, 730}";
}
);
layerId = "18543873-86E0-4072-B456-E15DF9A15DA0";
shapes = (
{
closed = 1;
nodes = (
(325,370,l),
(445,25,ls),
(453,1,o),
(445,-10,o),
(422,-10,cs),
(405,-10,o),
(396,-4,o),
(392,8,cs),
(271,369,l)
);
},
{
closed = 1;
nodes = (
(129,394,l),
(314,394,ls),
(405,394,o),
(483,440,o),
(500,537,cs),
(517,635,o),
(457,680,o),
(365,680,cs),
(230,680,ls),
(210,680,o),
(198,670,o),
(195,650,cs),
(83,15,ls),
(80,-2,o),
(70,-10,o),
(53,-10,cs),
(36,-10,o),
(30,-2,o),
(33,15,cs),
(148,670,ls),
(155,710,o),
(179,730,o),
(219,730,cs),
(374,730,ls),
(492,730,o),
(571,660,o),
(550,537,cs),
(528,414,o),
(424,344,o),
(306,344,cs),
(121,344,l)
);
}
);
width = 600;
}
);
unicode = 82;
},
{
color = (153, 254, 255, 255);
glyphname = S;
layers = (
{
anchors = (
{
name = bottom;
position = "{220, 0}";
},
{
name = top;
position = "{349, 730}";
}
);
layerId = "4A85F2CE-8B6A-44D8-848B-BBECCCC83376";
shapes = (
{
closed = 1;
nodes = (
(418,538,o),
(440,529,o),
(472,529,cs),
(533,529,o),
(563,570,o),
(543,632,cs),
(523,697,o),
(456,740,o),
(350,740,cs),
(204,740,o),
(100,659,o),
(78,533,cs),
(57,412,o),
(102,350,o),
(223,320,cs),
(308,299,ls),
(353,288,o),
(370,247,o),
(362,206,cs),
(353,154,o),
(307,125,o),
(242,125,cs),
(197,125,o),
(165,143,o),
(153,170,cs),
(137,204,o),
(114,210,o),
(91,210,cs),
(25,210,o),
(-8,165,o),
(10,106,cs),
(31,37,o),
(94,-10,o),
(218,-10,cs),
(391,-10,o),
(486,75,o),
(510,208,cs),
(530,323,o),
(472,404,o),
(362,431,cs),
(275,452,ls),
(232,462,o),
(216,484,o),
(225,533,cs),
(233,580,o),
(270,605,o),
(327,605,cs),
(364,605,o),
(388,592,o),
(401,570,cs)
);
}
);
width = 600;
},
{
anchors = (
{
name = bottom;
position = "{220, 0}";
},
{
name = top;
position = "{349, 730}";
}
);
layerId = "A29660E2-EDC3-4773-B175-8F2C31004B34";
shapes = (
{
closed = 1;
nodes = (
(441,558,o),
(453,547,o),
(479,547,cs),
(511,547,o),
(528,564,o),
(527,592,cs),
(523,681,o),
(454,740,o),
(347,740,cs),
(224,740,o),
(127,661,o),
(106,545,cs),
(90,451,o),
(133,378,o),
(220,352,cs),
(326,321,ls),
(381,305,o),
(404,259,o),
(393,199,cs),
(380,122,o),
(321,80,o),
(235,80,cs),
(169,80,o),
(129,108,o),
(121,162,cs),
(116,191,o),
(96,200,o),
(69,200,cs),
(41,200,o),
(24,180,o),
(23,155,cs),
(23,51,o),
(98,-10,o),
(218,-10,cs),
(358,-10,o),
(461,72,o),
(483,199,cs),
(501,301,o),
(458,380,o),
(366,407,cs),
(257,439,ls),
(208,454,o),
(187,493,o),
(196,547,cs),
(207,604,o),
(261,650,o),
(332,650,cs),
(386,650,o),
(425,633,o),
(435,585,cs)
);
}
);
width = 600;
},
{
anchors = (
{
name = bottom;
position = "{220, 0}";
},
{
name = top;
position = "{349, 730}";
}
);
layerId = "18543873-86E0-4072-B456-E15DF9A15DA0";
shapes = (
{
closed = 1;
nodes = (
(469,557,o),
(479,550,o),
(495,550,cs),
(512,550,o),
(522,558,o),
(523,574,cs),
(529,672,o),
(461,740,o),
(350,740,cs),
(236,740,o),
(142,666,o),
(124,559,cs),
(108,471,o),
(151,399,o),
(235,372,cs),
(331,341,ls),
(398,319,o),
(430,257,o),
(417,184,cs),
(402,94,o),
(322,40,o),
(227,40,cs),
(135,40,o),
(89,94,o),
(92,173,cs),
(92,199,o),
(83,205,o),
(67,205,cs),
(50,205,o),
(38,192,o),
(37,176,cs),
(28,65,o),
(97,-10,o),
(218,-10,cs),
(343,-10,o),
(447,69,o),
(467,183,cs),
(484,279,o),
(439,357,o),
(351,386,cs),
(255,418,ls),
(192,439,o),
(162,495,o),
(174,561,cs),
(188,642,o),
(257,690,o),
(343,690,cs),
(426,690,o),
(464,638,o),
(468,574,cs)
);
}
);
width = 600;
}
);
unicode = 83;
},
{
color = (153, 254, 255, 255);
glyphname = Germandbls;
layers = (
{
layerId = "4A85F2CE-8B6A-44D8-848B-BBECCCC83376";
shapes = (
{
closed = 1;
nodes = (
(3,0,o),
(-16,23,o),
(-8,68,cs),
(71,511,ls),
(96,652,o),
(211,730,o),
(346,730,cs),
(502,730,ls),
(565,730,o),
(591,699,o),
(579,636,cs),
(574,605,o),
(558,577,o),
(533,554,cs),
(426,458,ls),
(400,434,o),
(401,420,o),
(432,407,cs),
(504,375,o),
(533,305,o),
(517,215,cs),
(492,74,o),
(371,4,o),
(241,0,cs),
(200,-1,o),
(182,21,o),
(190,63,cs),
(197,103,o),
(219,122,o),
(264,128,cs),
(314,135,o),
(356,157,o),
(368,227,cs),
(380,291,o),
(352,314,o),
(310,323,cs),
(259,333,o),
(242,355,o),
(250,401,cs),
(255,426,o),
(266,447,o),
(287,465,cs),
(399,568,ls),
(426,593,o),
(424,605,o),
(390,605,cs),
(323,605,ls),
(265,605,o),
(216,571,o),
(206,511,cs),
(127,68,ls),
(119,23,o),
(93,0,o),
(48,0,cs)
);
}
);
width = 600;
},
{
layerId = "A29660E2-EDC3-4773-B175-8F2C31004B34";
shapes = (
{
closed = 1;
nodes = (
(27,0,o),
(14,15,o),
(20,45,cs),
(105,524,ls),
(127,650,o),
(227,730,o),
(352,730,cs),
(520,730,ls),
(559,730,o),
(575,710,o),
(569,671,cs),
(564,651,o),
(557,634,o),
(541,618,cs),
(392,455,ls),
(373,434,o),
(375,424,o),
(401,417,cs),
(486,393,o),
(515,310,o),
(498,215,cs),
(471,63,o),
(359,0,o),
(219,0,cs),
(192,0,o),
(181,14,o),
(186,41,cs),
(190,68,o),
(205,82,o),
(234,83,cs),
(314,87,o),
(384,107,o),
(403,215,cs),
(420,310,o),
(371,336,o),
(303,343,cs),
(268,346,o),
(254,363,o),
(260,397,cs),
(264,414,o),
(271,430,o),
(283,444,cs),
(439,616,ls),
(460,638,o),
(456,648,o),
(429,648,cs),
(337,648,ls),
(261,648,o),
(208,599,o),
(195,524,cs),
(110,45,ls),
(104,15,o),
(87,0,o),
(57,0,cs)
);
}
);
width = 600;
},
{
layerId = "18543873-86E0-4072-B456-E15DF9A15DA0";
shapes = (
{
closed = 1;
nodes = (
(38,0,o),
(32,8,o),
(34,25,cs),
(126,543,ls),
(147,660,o),
(240,730,o),
(355,730,cs),
(536,730,ls),
(557,730,o),
(565,720,o),
(562,699,cs),
(559,689,o),
(555,680,o),
(548,672,cs),
(331,431,ls),
(316,415,o),
(319,408,o),
(338,405,cs),
(438,392,o),
(497,322,o),
(478,210,cs),
(448,48,o),
(332,0,o),
(190,0,cs),
(175,0,o),
(170,8,o),
(172,23,cs),
(175,38,o),
(183,45,o),
(198,45,cs),
(306,47,o),
(403,69,o),
(427,208,cs),
(449,329,o),
(381,362,o),
(284,367,cs),
(265,368,o),
(257,378,o),
(260,397,cs),
(263,407,o),
(266,415,o),
(273,423,cs),
(487,661,ls),
(501,677,o),
(498,685,o),
(478,685,cs),
(347,685,ls),
(260,685,o),
(192,631,o),
(176,543,cs),
(84,25,ls),
(82,8,o),
(72,0,o),
(55,0,cs)
);
}
);
width = 600;
}
);
unicode = 7838;
},
{
color = (153, 254, 255, 255);
glyphname = T;
layers = (
{
layerId = "4A85F2CE-8B6A-44D8-848B-BBECCCC83376";
shapes = (
{
closed = 1;
nodes = (
(250,595,l),
(133,595,ls),
(88,595,o),
(69,618,o),
(77,663,cs),
(85,708,o),
(111,730,o),
(156,730,cs),
(542,730,ls),
(587,730,o),
(605,708,o),
(597,663,cs),
(589,618,o),
(562,595,o),
(517,595,cs),
(400,595,l),
(308,75,ls),
(299,25,o),
(270,0,o),
(220,0,cs),
(170,0,o),
(149,25,o),
(158,75,cs)
);
}
);
width = 600;
},
{
layerId = "A29660E2-EDC3-4773-B175-8F2C31004B34";
shapes = (
{
closed = 1;
nodes = (
(288,640,l),
(133,640,ls),
(106,640,o),
(91,658,o),
(96,685,cs),
(101,712,o),
(122,730,o),
(149,730,cs),
(549,730,ls),
(576,730,o),
(591,712,o),
(586,685,cs),
(581,658,o),
(560,640,o),
(533,640,cs),
(378,640,l),
(271,35,ls),
(266,5,o),
(248,-10,o),
(218,-10,cs),
(188,-10,o),
(176,5,o),
(181,35,cs)
);
}
);
width = 600;
},
{
layerId = "18543873-86E0-4072-B456-E15DF9A15DA0";
shapes = (
{
closed = 1;
nodes = (
(316,680,l),
(125,680,ls),
(110,680,o),
(102,690,o),
(104,705,cs),
(107,720,o),
(119,730,o),
(134,730,cs),
(564,730,ls),
(579,730,o),
(587,720,o),
(584,705,cs),
(582,690,o),
(569,680,o),
(554,680,cs),
(365,680,l),
(249,15,ls),
(246,-2,o),
(236,-10,o),
(219,-10,cs),
(202,-10,o),
(196,-2,o),
(199,15,cs)
);
}
);
width = 600;
}
);
unicode = 84;
},
{
color = (153, 254, 255, 255);
glyphname = U;
layers = (
{
layerId = "4A85F2CE-8B6A-44D8-848B-BBECCCC83376";
shapes = (
{
closed = 1;
nodes = (
(95,655,ls),
(104,705,o),
(134,730,o),
(184,730,cs),
(234,730,o),
(254,705,o),
(245,655,cs),
(170,225,ls),
(160,169,o),
(179,120,o),
(241,120,cs),
(302,120,o),
(340,169,o),
(350,225,cs),
(425,655,ls),
(434,705,o),
(464,730,o),
(514,730,cs),
(564,730,o),
(584,705,o),
(575,655,cs),
(499,224,ls),
(474,80,o),
(360,-10,o),
(218,-10,cs),
(75,-10,o),
(-6,79,o),
(19,224,cs)
);
}
);
width = 600;
},
{
layerId = "A29660E2-EDC3-4773-B175-8F2C31004B34";
shapes = (
{
closed = 1;
nodes = (
(131,685,ls),
(136,715,o),
(154,730,o),
(184,730,cs),
(214,730,o),
(226,715,o),
(221,685,cs),
(137,210,ls),
(123,131,o),
(152,80,o),
(234,80,cs),
(316,80,o),
(363,132,o),
(377,210,cs),
(461,685,ls),
(466,715,o),
(484,730,o),
(514,730,cs),
(544,730,o),
(556,715,o),
(551,685,cs),
(467,210,ls),
(444,77,o),
(354,-10,o),
(218,-10,cs),
(83,-10,o),
(24,78,o),
(47,210,cs)
);
}
);
width = 600;
},
{
layerId = "18543873-86E0-4072-B456-E15DF9A15DA0";
shapes = (
{
closed = 1;
nodes = (
(152,705,ls),
(155,722,o),
(165,730,o),
(182,730,cs),
(199,730,o),
(205,722,o),
(202,705,cs),
(113,200,ls),
(97,110,o),
(131,40,o),
(227,40,cs),
(323,40,o),
(381,110,o),
(397,200,cs),
(486,705,ls),
(489,722,o),
(499,730,o),
(516,730,cs),
(533,730,o),
(539,722,o),
(536,705,cs),
(447,200,ls),
(427,84,o),
(340,-10,o),
(218,-10,cs),
(95,-10,o),
(43,84,o),
(63,200,cs)
);
}
);
width = 600;
}
);
unicode = 85;
},
{
color = (153, 254, 255, 255);
glyphname = V;
layers = (
{
layerId = "4A85F2CE-8B6A-44D8-848B-BBECCCC83376";
shapes = (
{
closed = 1;
nodes = (
(83,662,ls),
(78,714,o),
(112,740,o),
(156,740,cs),
(192,740,o),
(217,723,o),
(219,688,cs),
(247,263,ls),
(250,230,o),
(272,230,o),
(285,263,cs),
(463,688,ls),
(477,723,o),
(508,740,o),
(544,740,cs),
(588,740,o),
(614,714,o),
(591,662,cs),
(325,62,ls),
(303,13,o),
(268,-10,o),
(218,-10,cs),
(168,-10,o),
(141,13,o),
(137,62,cs)
);
}
);
width = 600;
},
{
layerId = "A29660E2-EDC3-4773-B175-8F2C31004B34";
shapes = (
{
closed = 1;
nodes = (
(105,688,ls),
(103,714,o),
(113,740,o),
(152,740,cs),
(178,740,o),
(196,728,o),
(198,705,cs),
(238,185,ls),
(240,155,o),
(254,155,o),
(268,185,cs),
(490,705,ls),
(500,728,o),
(522,740,o),
(548,740,cs),
(587,740,o),
(589,714,o),
(577,688,cs),
(290,38,ls),
(275,6,o),
(252,-10,o),
(218,-10,cs),
(185,-10,o),
(167,6,o),
(164,38,cs)
);
}
);
width = 600;
},
{
layerId = "18543873-86E0-4072-B456-E15DF9A15DA0";
shapes = (
{
closed = 1;
nodes = (
(123,711,ls),
(122,727,o),
(130,740,o),
(150,740,cs),
(163,740,o),
(176,734,o),
(177,721,cs),
(228,100,ls),
(229,80,o),
(239,80,o),
(248,100,cs),
(517,721,ls),
(522,734,o),
(537,740,o),
(550,740,cs),
(570,740,o),
(574,727,o),
(567,711,cs),
(261,19,ls),
(253,0,o),
(238,-10,o),
(218,-10,cs),
(198,-10,o),
(187,0,o),
(185,19,cs)
);
}
);
width = 600;
}
);
unicode = 86;
},
{
color = (153, 254, 255, 255);
glyphname = W;
layers = (
{
layerId = "4A85F2CE-8B6A-44D8-848B-BBECCCC83376";
shapes = (
{
closed = 1;
nodes = (
(65,670,ls),
(70,717,o),
(93,740,o),
(138,740,cs),
(180,740,o),
(199,720,o),
(194,680,cs),
(140,245,ls),
(139,231,o),
(146,229,o),
(151,244,cs),
(241,515,ls),
(253,552,o),
(283,570,o),
(321,570,cs),
(359,570,o),
(381,552,o),
(381,515,cs),
(375,244,ls),
(374,229,o),
(383,230,o),
(386,245,cs),
(487,688,ls),
(495,723,o),
(517,740,o),
(559,740,cs),
(607,740,o),
(621,717,o),
(609,670,cs),
(459,71,ls),
(445,17,o),
(408,-10,o),
(354,-10,cs),
(300,-10,o),
(274,16,o),
(275,70,cs),
(280,291,ls),
(281,305,o),
(267,306,o),
(262,291,cs),
(190,73,ls),
(171,18,o),
(136,-10,o),
(80,-10,cs),
(24,-10,o),
(-4,17,o),
(2,73,cs)
);
}
);
width = 600;
},
{
layerId = "A29660E2-EDC3-4773-B175-8F2C31004B34";
shapes = (
{
closed = 1;
nodes = (
(78,685,ls),
(81,722,o),
(99,740,o),
(133,740,cs),
(161,740,o),
(173,728,o),
(171,703,cs),
(113,145,ls),
(111,133,o),
(119,132,o),
(123,144,cs),
(256,523,ls),
(268,555,o),
(289,570,o),
(321,570,cs),
(353,570,o),
(368,555,o),
(368,523,cs),
(368,145,ls),
(368,134,o),
(376,134,o),
(379,146,cs),
(517,703,ls),
(523,728,o),
(539,740,o),
(567,740,cs),
(601,740,o),
(613,722,o),
(604,685,cs),
(433,50,ls),
(422,10,o),
(395,-10,o),
(354,-10,cs),
(313,-10,o),
(294,10,o),
(294,50,cs),
(298,401,ls),
(298,412,o),
(288,412,o),
(284,401,cs),
(164,51,ls),
(150,10,o),
(123,-10,o),
(82,-10,cs),
(41,-10,o),
(21,10,o),
(24,51,cs)
);
}
);
width = 600;
},
{
layerId = "18543873-86E0-4072-B456-E15DF9A15DA0";
shapes = (
{
closed = 1;
nodes = (
(104,710,ls),
(106,730,o),
(115,740,o),
(135,740,cs),
(150,740,o),
(156,734,o),
(155,720,cs),
(99,55,l),
(99,50,o),
(103,49,o),
(105,55,cs),
(277,539,ls),
(285,560,o),
(300,570,o),
(321,570,cs),
(342,570,o),
(353,560,o),
(353,539,cs),
(357,55,ls),
(357,50,o),
(361,50,o),
(363,55,c),
(539,720,ls),
(542,734,o),
(550,740,o),
(565,740,cs),
(585,740,o),
(592,730,o),
(586,710,cs),
(400,27,ls),
(393,2,o),
(376,-10,o),
(351,-10,cs),
(326,-10,o),
(313,2,o),
(313,27,cs),
(310,485,ls),
(309,490,o),
(303,490,o),
(302,485,cs),
(137,27,ls),
(127,2,o),
(111,-10,o),
(86,-10,cs),
(61,-10,o),
(47,2,o),
(50,27,cs)
);
}
);
width = 600;
}
);
unicode = 87;
},
{
color = (153, 254, 255, 255);
glyphname = X;
layers = (
{
layerId = "4A85F2CE-8B6A-44D8-848B-BBECCCC83376";
shapes = (
{
closed = 1;
nodes = (
(135,40,ls),
(112,7,o),
(85,-10,o),
(47,-10,cs),
(-6,-10,o),
(-40,23,o),
(6,88,cs),
(422,690,ls),
(444,723,o),
(470,740,o),
(508,740,cs),
(561,740,o),
(595,708,o),
(550,642,cs)
);
},
{
closed = 1;
nodes = (
(466,88,ls),
(487,22,o),
(442,-10,o),
(389,-10,cs),
(351,-10,o),
(329,7,o),
(319,40,cs),
(116,642,ls),
(94,707,o),
(139,740,o),
(192,740,cs),
(230,740,o),
(250,723,o),
(262,690,cs)
);
}
);
width = 600;
},
{
layerId = "A29660E2-EDC3-4773-B175-8F2C31004B34";
shapes = (
{
closed = 1;
nodes = (
(79,20,ls),
(64,0,o),
(47,-10,o),
(25,-10,cs),
(-5,-10,o),
(-28,9,o),
(0,48,cs),
(480,711,ls),
(495,731,o),
(511,740,o),
(532,740,cs),
(562,740,o),
(586,721,o),
(557,682,cs)
);
},
{
closed = 1;
nodes = (
(457,49,ls),
(472,10,o),
(441,-10,o),
(411,-10,cs),
(389,-10,o),
(376,0,o),
(369,20,cs),
(122,682,ls),
(107,720,o),
(138,740,o),
(169,740,cs),
(189,740,o),
(203,731,o),
(210,711,cs)
);
}
);
width = 600;
},
{
layerId = "18543873-86E0-4072-B456-E15DF9A15DA0";
shapes = (
{
closed = 1;
nodes = (
(38,6,ls),
(30,-5,o),
(20,-10,o),
(9,-10,cs),
(-7,-10,o),
(-21,1,o),
(-5,22,cs),
(515,724,ls),
(523,735,o),
(532,740,o),
(543,740,cs),
(560,740,o),
(576,729,o),
(559,707,cs)
);
},
{
closed = 1;
nodes = (
(453,22,ls),
(461,1,o),
(443,-10,o),
(427,-10,cs),
(416,-10,o),
(408,-5,o),
(404,6,cs),
(131,707,ls),
(122,729,o),
(140,740,o),
(157,740,cs),
(168,740,o),
(177,735,o),
(181,724,cs)
);
}
);
width = 600;
}
);
unicode = 88;
},
{
color = (153, 254, 255, 255);
glyphname = Y;
layers = (
{
layerId = "4A85F2CE-8B6A-44D8-848B-BBECCCC83376";
shapes = (
{
closed = 1;
nodes = (
(168,-10,o),
(148,15,o),
(156,65,cs),
(186,230,ls),
(189,250,o),
(188,269,o),
(184,287,cs),
(87,655,ls),
(75,704,o),
(116,740,o),
(165,740,cs),
(200,740,o),
(224,721,o),
(233,683,cs),
(288,448,ls),
(293,429,o),
(299,429,o),
(310,448,cs),
(447,683,ls),
(470,721,o),
(500,740,o),
(535,740,cs),
(584,740,o),
(613,704,o),
(583,655,cs),
(358,287,ls),
(346,269,o),
(339,250,o),
(336,230,cs),
(306,65,ls),
(298,15,o),
(268,-10,o),
(218,-10,cs)
);
}
);
width = 600;
},
{
layerId = "A29660E2-EDC3-4773-B175-8F2C31004B34";
shapes = (
{
closed = 1;
nodes = (
(188,-10,o),
(176,5,o),
(181,35,cs),
(219,248,ls),
(222,265,o),
(221,281,o),
(216,296,cs),
(101,690,ls),
(93,716,o),
(119,740,o),
(141,740,cs),
(166,740,o),
(179,735,o),
(187,706,cs),
(279,390,ls),
(283,375,o),
(289,375,o),
(299,390,cs),
(501,706,ls),
(521,735,o),
(534,740,o),
(559,740,cs),
(581,740,o),
(599,716,o),
(583,690,cs),
(328,296,ls),
(319,281,o),
(312,265,o),
(309,248,cs),
(271,35,ls),
(266,5,o),
(248,-10,o),
(218,-10,cs)
);
}
);
width = 600;
},
{
layerId = "18543873-86E0-4072-B456-E15DF9A15DA0";
shapes = (
{
closed = 1;
nodes = (
(201,-10,o),
(195,-2,o),
(198,15,cs),
(241,260,ls),
(243,273,o),
(242,286,o),
(239,298,cs),
(109,711,ls),
(104,727,o),
(121,740,o),
(136,740,cs),
(146,740,o),
(158,734,o),
(162,721,cs),
(274,356,ls),
(278,344,o),
(284,344,o),
(292,356,cs),
(532,721,ls),
(540,734,o),
(554,740,o),
(564,740,cs),
(579,740,o),
(592,727,o),
(581,711,cs),
(307,298,ls),
(298,286,o),
(293,273,o),
(291,260,cs),
(248,15,ls),
(245,-2,o),
(235,-10,o),
(218,-10,cs)
);
}
);
width = 600;
}
);
unicode = 89;
},
{
color = (153, 254, 255, 255);
glyphname = Z;
layers = (
{
layerId = "4A85F2CE-8B6A-44D8-848B-BBECCCC83376";
shapes = (
{
closed = 1;
nodes = (
(96,0,ls),
(28,0,o),
(1,33,o),
(12,97,cs),
(17,124,o),
(26,144,o),
(41,164,cs),
(348,569,ls),
(361,586,o),
(358,595,o),
(338,595,cs),
(175,595,ls),
(130,595,o),
(112,618,o),
(120,663,cs),
(128,708,o),
(155,730,o),
(200,730,cs),
(462,730,ls),
(530,730,o),
(557,697,o),
(545,631,cs),
(541,606,o),
(532,586,o),
(517,566,cs),
(208,161,ls),
(195,144,o),
(199,135,o),
(219,135,cs),
(402,135,ls),
(447,135,o),
(465,113,o),
(457,68,cs),
(449,23,o),
(423,0,o),
(378,0,cs)
);
}
);
width = 600;
},
{
layerId = "A29660E2-EDC3-4773-B175-8F2C31004B34";
shapes = (
{
closed = 1;
nodes = (
(73,0,ls),
(28,0,o),
(9,23,o),
(17,68,cs),
(20,83,o),
(25,96,o),
(35,109,cs),
(420,618,ls),
(430,632,o),
(429,640,o),
(412,640,cs),
(168,640,ls),
(141,640,o),
(126,658,o),
(131,685,cs),
(136,712,o),
(157,730,o),
(184,730,cs),
(486,730,ls),
(531,730,o),
(550,708,o),
(542,663,cs),
(539,648,o),
(534,634,o),
(523,621,cs),
(139,112,ls),
(128,98,o),
(130,90,o),
(147,90,cs),
(406,90,ls),
(433,90,o),
(448,72,o),
(443,45,cs),
(438,18,o),
(417,0,o),
(390,0,cs)
);
}
);
width = 600;
},
{
layerId = "18543873-86E0-4072-B456-E15DF9A15DA0";
shapes = (
{
closed = 1;
nodes = (
(47,0,ls),
(22,0,o),
(12,13,o),
(16,36,cs),
(18,46,o),
(22,54,o),
(27,61,cs),
(470,663,ls),
(479,675,o),
(476,680,o),
(463,680,cs),
(161,680,ls),
(146,680,o),
(136,690,o),
(138,705,cs),
(141,720,o),
(155,730,o),
(170,730,cs),
(503,730,ls),
(532,730,o),
(543,716,o),
(538,687,cs),
(536,677,o),
(533,669,o),
(527,661,cs),
(89,67,ls),
(80,55,o),
(83,50,o),
(96,50,cs),
(414,50,ls),
(429,50,o),
(437,40,o),
(434,25,cs),
(432,10,o),
(420,0,o),
(405,0,cs)
);
}
);
width = 600;
}
);
unicode = 90;
},
{
glyphname = a;
layers = (
{
layerId = "4A85F2CE-8B6A-44D8-848B-BBECCCC83376";
shapes = (
{
closed = 1;
nodes = (
(53,-10,o),
(-29,63,o),
(2,238,cs),
(34,417,o),
(139,560,o),
(289,560,cs),
(414,560,o),
(411,432,o),
(388,298,cs),
(354,106,o),
(283,-10,o),
(148,-10,cs)
);
},
{
closed = 1;
nodes = (
(254,125,o),
(320,176,o),
(341,295,cs),
(355,372,o),
(350,425,o),
(299,425,cs),
(225,425,o),
(170,340,o),
(153,242,cs),
(141,175,o),
(155,125,o),
(204,125,cs)
);
},
{
closed = 1;
nodes = (
(407,538,o),
(440,560,o),
(486,560,cs),
(531,560,o),
(543,539,o),
(529,494,cs),
(484,352,o),
(453,222,o),
(459,54,cs),
(460,9,o),
(445,-10,o),
(400,-10,cs),
(354,-10,o),
(324,10,o),
(323,54,cs),
(317,222,o),
(348,352,o),
(393,494,cs)
);
}
);
width = 600;
},
{
layerId = "A29660E2-EDC3-4773-B175-8F2C31004B34";
shapes = (
{
closed = 1;
nodes = (
(64,-10,o),
(-1,49,o),
(29,224,cs),
(62,409,o),
(163,560,o),
(319,560,cs),
(446,560,o),
(428,412,o),
(409,308,cs),
(384,162,o),
(313,-10,o),
(160,-10,cs)
);
},
{
closed = 1;
nodes = (
(268,80,o),
(345,172,o),
(369,308,cs),
(381,372,o),
(398,470,o),
(311,470,cs),
(228,470,o),
(143,360,o),
(118,215,cs),
(103,130,o),
(124,80,o),
(185,80,cs)
);
},
{
closed = 1;
nodes = (
(436,549,o),
(456,560,o),
(484,560,cs),
(516,560,o),
(525,546,o),
(515,516,cs),
(461,358,o),
(434,214,o),
(446,34,cs),
(448,5,o),
(434,-10,o),
(404,-10,cs),
(374,-10,o),
(358,5,o),
(356,34,cs),
(342,214,o),
(373,358,o),
(425,516,cs)
);
}
);
width = 600;
},
{
layerId = "18543873-86E0-4072-B456-E15DF9A15DA0";
shapes = (
{
closed = 1;
nodes = (
(54,-10,o),
(24,82,o),
(46,205,cs),
(79,392,o),
(181,560,o),
(339,560,cs),
(464,560,o),
(438,418,o),
(414,298,cs),
(388,168,o),
(311,-10,o),
(166,-10,cs)
);
},
{
closed = 1;
nodes = (
(278,40,o),
(366,190,o),
(389,301,cs),
(408,390,o),
(434,510,o),
(328,510,cs),
(210,510,o),
(124,361,o),
(96,205,cs),
(78,103,o),
(105,40,o),
(173,40,cs)
);
},
{
closed = 1;
nodes = (
(456,552,o),
(468,560,o),
(485,560,cs),
(502,560,o),
(506,552,o),
(501,535,cs),
(444,350,o),
(409,208,o),
(418,14,cs),
(420,-2,o),
(412,-10,o),
(395,-10,cs),
(378,-10,o),
(370,-2,o),
(368,14,cs),
(357,208,o),
(394,350,o),
(451,535,cs)
);
}
);
width = 600;
}
);
unicode = 97;
},
{
color = (153, 254, 255, 255);
glyphname = ae;
layers = (
{
layerId = "4A85F2CE-8B6A-44D8-848B-BBECCCC83376";
shapes = (
{
closed = 1;
nodes = (
(196,330,ls),
(213,330,o),
(223,338,o),
(226,355,cs),
(234,400,ls),
(239,428,o),
(234,463,o),
(200,463,cs),
(182,463,o),
(168,453,o),
(159,439,cs),
(139,409,o),
(126,400,o),
(104,400,cs),
(47,400,o),
(26,433,o),
(55,478,cs),
(86,527,o),
(137,560,o),
(200,560,cs),
(258,560,o),
(308,530,o),
(304,468,c),
(322,530,o),
(383,560,o),
(440,560,cs),
(533,560,o),
(577,489,o),
(561,400,cs),
(552,350,ls),
(540,283,o),
(501,250,o),
(434,250,cs),
(350,250,ls),
(333,250,o),
(324,242,o),
(321,225,cs),
(308,150,ls),
(303,122,o),
(307,87,o),
(341,87,cs),
(359,87,o),
(374,97,o),
(383,111,cs),
(403,141,o),
(416,150,o),
(438,150,cs),
(495,150,o),
(515,117,o),
(486,72,cs),
(456,23,o),
(405,-10,o),
(342,-10,cs),
(286,-10,o),
(231,20,o),
(235,81,c),
(217,18,o),
(154,-10,o),
(96,-10,cs),
(-2,-10,o),
(-40,68,o),
(-24,159,cs),
(-6,261,o),
(74,330,o),
(176,330,cs)
);
},
{
closed = 1;
nodes = (
(203,225,ls),
(206,242,o),
(199,250,o),
(182,250,cs),
(162,250,ls),
(120,250,o),
(103,201,o),
(97,168,cs),
(91,136,o),
(91,87,o),
(132,87,cs),
(166,87,o),
(185,121,o),
(190,150,cs)
);
},
{
closed = 1;
nodes = (
(344,355,ls),
(341,338,o),
(347,330,o),
(364,330,cs),
(404,330,ls),
(421,330,o),
(431,338,o),
(434,355,cs),
(442,400,ls),
(447,428,o),
(442,463,o),
(408,463,cs),
(374,463,o),
(357,428,o),
(352,400,cs)
);
}
);
width = 600;
},
{
anchors = (
{
name = m.uni0308;
position = "{318, 550}";
}
);
layerId = "A29660E2-EDC3-4773-B175-8F2C31004B34";
shapes = (
{
closed = 1;
nodes = (
(221,324,ls),
(234,324,o),
(241,331,o),
(244,344,cs),
(254,399,ls),
(262,443,o),
(251,485,o),
(201,485,cs),
(168,485,o),
(142,467,o),
(129,440,cs),
(119,421,o),
(110,414,o),
(94,414,cs),
(57,414,o),
(41,434,o),
(57,466,cs),
(84,521,o),
(135,560,o),
(201,560,cs),
(257,560,o),
(310,532,o),
(308,471,c),
(325,530,o),
(384,560,o),
(439,560,cs),
(532,560,o),
(572,488,o),
(556,400,cs),
(544,336,ls),
(535,282,o),
(504,256,o),
(450,256,cs),
(328,256,ls),
(315,256,o),
(307,249,o),
(305,236,cs),
(290,150,ls),
(282,106,o),
(294,65,o),
(344,65,cs),
(377,65,o),
(402,82,o),
(416,109,cs),
(426,129,o),
(436,137,o),
(453,137,cs),
(493,137,o),
(508,115,o),
(490,82,cs),
(462,26,o),
(405,-10,o),
(338,-10,cs),
(283,-10,o),
(239,24,o),
(238,80,c),
(215,21,o),
(153,-10,o),
(96,-10,cs),
(0,-10,o),
(-36,70,o),
(-21,159,cs),
(-5,250,o),
(64,324,o),
(160,324,cs)
);
},
{
closed = 1;
nodes = (
(225,236,ls),
(227,249,o),
(221,256,o),
(208,256,cs),
(149,256,ls),
(97,256,o),
(71,203,o),
(63,160,cs),
(55,112,o),
(69,65,o),
(123,65,cs),
(173,65,o),
(201,105,o),
(210,150,cs)
);
},
{
closed = 1;
nodes = (
(324,344,ls),
(321,331,o),
(328,324,o),
(341,324,cs),
(439,324,ls),
(452,324,o),
(459,331,o),
(462,344,cs),
(472,400,ls),
(480,443,o),
(467,485,o),
(418,485,cs),
(369,485,o),
(342,443,o),
(334,400,cs)
);
}
);
width = 600;
},
{
layerId = "18543873-86E0-4072-B456-E15DF9A15DA0";
shapes = (
{
closed = 1;
nodes = (
(239,312,ls),
(249,312,o),
(255,317,o),
(258,327,cs),
(272,410,ls),
(281,462,o),
(265,517,o),
(206,517,cs),
(153,517,o),
(116,477,o),
(103,430,cs),
(100,419,o),
(94,414,o),
(84,414,cs),
(62,414,o),
(54,426,o),
(60,446,cs),
(82,510,o),
(134,560,o),
(206,560,cs),
(260,560,o),
(308,531,o),
(307,474,c),
(329,530,o),
(387,560,o),
(441,560,cs),
(529,560,o),
(568,494,o),
(553,410,cs),
(539,329,ls),
(531,289,o),
(508,269,o),
(468,269,cs),
(310,269,ls),
(300,269,o),
(294,264,o),
(292,254,cs),
(272,140,ls),
(261,82,o),
(287,34,o),
(349,34,cs),
(402,34,o),
(440,73,o),
(454,121,cs),
(456,132,o),
(463,137,o),
(473,137,cs),
(495,137,o),
(505,125,o),
(496,105,cs),
(474,39,o),
(418,-10,o),
(344,-10,cs),
(291,-10,o),
(238,19,o),
(236,75,c),
(214,16,o),
(146,-10,o),
(92,-10,cs),
(1,-10,o),
(-27,74,o),
(-12,155,cs),
(2,235,o),
(56,312,o),
(145,312,cs)
);
},
{
closed = 1;
nodes = (
(244,254,ls),
(246,264,o),
(242,269,o),
(232,269,cs),
(138,269,ls),
(77,269,o),
(45,206,o),
(36,155,cs),
(26,97,o),
(42,31,o),
(109,31,cs),
(172,31,o),
(213,81,o),
(224,140,cs)
);
},
{
closed = 1;
nodes = (
(306,327,ls),
(303,317,o),
(307,312,o),
(317,312,cs),
(472,312,ls),
(482,312,o),
(488,317,o),
(491,327,cs),
(505,410,ls),
(515,466,o),
(492,517,o),
(431,517,cs),
(370,517,o),
(330,466,o),
(320,410,cs)
);
}
);
width = 600;
}
);
unicode = 230;
},
{
color = (153, 254, 255, 255);
glyphname = b;
layers = (
{
layerId = "4A85F2CE-8B6A-44D8-848B-BBECCCC83376";
shapes = (
{
closed = 1;
nodes = (
(1,-10,o),
(-18,14,o),
(-9,63,cs),
(97,665,ls),
(106,715,o),
(135,740,o),
(185,740,cs),
(235,740,o),
(256,715,o),
(247,665,cs),
(211,459,l),
(242,523,o),
(292,560,o),
(356,560,cs),
(531,560,o),
(547,406,o),
(523,274,cs),
(501,148,o),
(433,-10,o),
(273,-10,cs),
(191,-10,o),
(147,37,o),
(142,99,c),
(136,63,ls),
(127,14,o),
(101,-10,o),
(51,-10,cs)
);
},
{
closed = 1;
nodes = (
(338,140,o),
(361,207,o),
(373,273,cs),
(385,341,o),
(386,420,o),
(305,420,cs),
(243,420,o),
(196,373,o),
(186,315,cs),
(171,235,ls),
(162,181,o),
(202,140,o),
(262,140,cs)
);
}
);
width = 600;
},
{
layerId = "A29660E2-EDC3-4773-B175-8F2C31004B34";
shapes = (
{
closed = 1;
nodes = (
(23,-10,o),
(11,5,o),
(16,36,cs),
(133,695,ls),
(138,725,o),
(155,740,o),
(185,740,cs),
(215,740,o),
(228,725,o),
(223,695,cs),
(180,456,l),
(211,519,o),
(263,560,o),
(336,560,cs),
(505,560,o),
(511,400,o),
(489,276,cs),
(467,152,o),
(404,-10,o),
(245,-10,cs),
(175,-10,o),
(129,21,o),
(118,100,c),
(106,36,ls),
(101,5,o),
(83,-10,o),
(53,-10,cs)
);
},
{
closed = 1;
nodes = (
(348,75,o),
(385,197,o),
(400,282,cs),
(414,364,o),
(420,475,o),
(306,475,cs),
(234,475,o),
(167,380,o),
(156,316,cs),
(136,206,ls),
(125,143,o),
(178,75,o),
(251,75,cs)
);
}
);
width = 600;
},
{
layerId = "18543873-86E0-4072-B456-E15DF9A15DA0";
shapes = (
{
closed = 1;
nodes = (
(36,-10,o),
(30,-2,o),
(33,15,cs),
(156,715,ls),
(159,732,o),
(168,740,o),
(185,740,cs),
(202,740,o),
(209,732,o),
(206,715,cs),
(159,449,l),
(199,521,o),
(256,560,o),
(329,560,cs),
(480,560,o),
(494,394,o),
(473,275,cs),
(452,155,o),
(379,-10,o),
(231,-10,cs),
(123,-10,o),
(94,47,o),
(96,88,c),
(83,15,ls),
(80,-2,o),
(70,-10,o),
(53,-10,cs)
);
},
{
closed = 1;
nodes = (
(355,38,o),
(406,177,o),
(423,275,cs),
(441,373,o),
(438,512,o),
(313,512,cs),
(239,512,o),
(155,425,o),
(143,355,cs),
(114,194,ls),
(101,119,o),
(151,38,o),
(239,38,cs)
);
}
);
width = 600;
}
);
unicode = 98;
},
{
color = (153, 254, 255, 255);
glyphname = c;
layers = (
{
layerId = "4A85F2CE-8B6A-44D8-848B-BBECCCC83376";
shapes = (
{
closed = 1;
nodes = (
(59,479,o),
(183,560,o),
(325,560,cs),
(444,560,o),
(506,503,o),
(514,450,cs),
(521,412,o),
(499,371,o),
(464,357,cs),
(440,348,o),
(407,349,o),
(397,372,cs),
(382,407,o),
(352,425,o),
(314,425,cs),
(258,425,o),
(193,387,o),
(173,274,cs),
(155,169,o),
(197,125,o),
(257,125,cs),
(294,125,o),
(324,130,o),
(357,153,cs),
(388,174,o),
(424,180,o),
(448,160,cs),
(471,141,o),
(471,94,o),
(445,69,cs),
(375,0,o),
(313,-10,o),
(235,-10,cs),
(81,-10,o),
(-11,78,o),
(24,278,cs)
);
}
);
width = 600;
},
{
layerId = "A29660E2-EDC3-4773-B175-8F2C31004B34";
shapes = (
{
closed = 1;
nodes = (
(84,479,o),
(212,560,o),
(346,560,cs),
(446,560,o),
(499,522,o),
(516,482,cs),
(529,452,o),
(518,428,o),
(494,415,cs),
(468,401,o),
(445,405,o),
(437,425,cs),
(427,447,o),
(394,470,o),
(336,470,cs),
(239,470,o),
(162,406,o),
(139,279,cs),
(116,148,o),
(174,80,o),
(266,80,cs),
(301,80,o),
(345,88,o),
(368,108,cs),
(387,124,o),
(414,129,o),
(432,110,cs),
(447,95,o),
(445,69,o),
(413,38,cs),
(369,-4,o),
(307,-10,o),
(248,-10,cs),
(102,-10,o),
(14,78,o),
(48,274,cs)
);
}
);
width = 600;
},
{
layerId = "18543873-86E0-4072-B456-E15DF9A15DA0";
shapes = (
{
closed = 1;
nodes = (
(104,479,o),
(220,560,o),
(360,560,cs),
(446,560,o),
(481,530,o),
(494,500,cs),
(507,470,o),
(492,454,o),
(478,448,cs),
(464,443,o),
(451,448,o),
(443,466,cs),
(432,491,o),
(394,510,o),
(349,510,cs),
(257,510,o),
(146,432,o),
(118,273,cs),
(93,130,o),
(156,40,o),
(278,40,cs),
(324,40,o),
(359,53,o),
(387,71,cs),
(403,82,o),
(421,85,o),
(429,75,cs),
(437,64,o),
(433,46,o),
(417,33,cs),
(379,3,o),
(333,-10,o),
(257,-10,cs),
(118,-10,o),
(34,78,o),
(69,278,cs)
);
}
);
width = 600;
}
);
unicode = 99;
},
{
color = (153, 254, 255, 255);
glyphname = d;
layers = (
{
layerId = "4A85F2CE-8B6A-44D8-848B-BBECCCC83376";
shapes = (
{
closed = 1;
nodes = (
(335,-10,o),
(317,14,o),
(326,63,cs),
(332,99,l),
(307,37,o),
(245,-10,o),
(163,-10,cs),
(3,-10,o),
(-9,148,o),
(13,274,cs),
(37,406,o),
(107,560,o),
(282,560,cs),
(346,560,o),
(382,523,o),
(391,459,c),
(427,665,ls),
(436,715,o),
(465,740,o),
(515,740,cs),
(565,740,o),
(586,715,o),
(577,665,cs),
(471,63,ls),
(462,14,o),
(435,-10,o),
(385,-10,cs)
);
},
{
closed = 1;
nodes = (
(288,140,o),
(342,181,o),
(351,235,cs),
(366,315,ls),
(376,373,o),
(345,420,o),
(283,420,cs),
(202,420,o),
(175,341,o),
(163,273,cs),
(151,207,o),
(152,140,o),
(228,140,cs)
);
}
);
width = 600;
},
{
layerId = "A29660E2-EDC3-4773-B175-8F2C31004B34";
shapes = (
{
closed = 1;
nodes = (
(353,-10,o),
(341,5,o),
(346,36,cs),
(358,100,l),
(319,21,o),
(261,-10,o),
(191,-10,cs),
(32,-10,o),
(27,152,o),
(49,276,cs),
(71,400,o),
(133,560,o),
(302,560,cs),
(375,560,o),
(413,519,o),
(420,456,c),
(463,695,ls),
(468,725,o),
(485,740,o),
(515,740,cs),
(545,740,o),
(558,725,o),
(553,695,cs),
(436,36,ls),
(431,5,o),
(413,-10,o),
(383,-10,cs)
);
},
{
closed = 1;
nodes = (
(288,75,o),
(365,143,o),
(376,206,cs),
(396,316,ls),
(407,380,o),
(374,475,o),
(302,475,cs),
(188,475,o),
(154,364,o),
(140,282,cs),
(125,197,o),
(118,75,o),
(215,75,cs)
);
}
);
width = 600;
},
{
layerId = "18543873-86E0-4072-B456-E15DF9A15DA0";
shapes = (
{
closed = 1;
nodes = (
(366,-10,o),
(360,-2,o),
(363,15,cs),
(376,88,l),
(362,47,o),
(313,-10,o),
(205,-10,cs),
(57,-10,o),
(42,155,o),
(63,275,cs),
(84,394,o),
(158,560,o),
(309,560,cs),
(382,560,o),
(425,521,o),
(439,449,c),
(486,715,ls),
(489,732,o),
(498,740,o),
(515,740,cs),
(532,740,o),
(539,732,o),
(536,715,cs),
(413,15,ls),
(410,-2,o),
(400,-10,o),
(383,-10,cs)
);
},
{
closed = 1;
nodes = (
(303,38,o),
(381,119,o),
(394,194,cs),
(423,355,ls),
(435,425,o),
(381,512,o),
(307,512,cs),
(182,512,o),
(131,373,o),
(113,275,cs),
(96,177,o),
(99,38,o),
(215,38,cs)
);
}
);
width = 600;
}
);
unicode = 100;
},
{
color = (153, 254, 255, 255);
glyphname = eth;
layers = (
{
layerId = "4A85F2CE-8B6A-44D8-848B-BBECCCC83376";
shapes = (
{
closed = 1;
nodes = (
(206,632,ls),
(224,638,o),
(227,646,o),
(221,660,cs),
(220,663,ls),
(197,708,o),
(217,730,o),
(279,730,cs),
(321,730,o),
(353,717,o),
(359,707,cs),
(362,702,ls),
(368,693,o),
(377,690,o),
(389,694,cs),
(476,723,ls),
(522,739,o),
(542,724,o),
(533,677,cs),
(529,654,o),
(516,638,o),
(492,630,cs),
(447,614,ls),
(429,608,o),
(424,599,o),
(433,586,cs),
(461,537,ls),
(524,430,o),
(540,337,o),
(524,251,cs),
(497,96,o),
(379,0,o),
(220,0,cs),
(63,0,o),
(-23,94,o),
(2,236,cs),
(25,368,o),
(123,456,o),
(244,456,cs),
(313,456,o),
(358,410,o),
(372,375,c),
(378,375,l),
(380,380,o),
(366,414,o),
(321,489,cs),
(291,538,ls),
(284,551,o),
(272,556,o),
(255,550,cs),
(186,526,ls),
(138,510,o),
(120,525,o),
(128,572,cs),
(131,595,o),
(146,611,o),
(169,619,cs)
);
},
{
closed = 1;
nodes = (
(310,125,o),
(360,168,o),
(372,235,cs),
(383,301,o),
(347,345,o),
(281,345,cs),
(214,345,o),
(163,302,o),
(152,235,cs),
(140,168,o),
(176,125,o),
(243,125,cs)
);
}
);
width = 600;
},
{
layerId = "A29660E2-EDC3-4773-B175-8F2C31004B34";
shapes = (
{
closed = 1;
nodes = (
(249,623,ls),
(263,629,o),
(266,636,o),
(260,647,cs),
(245,674,ls),
(225,712,o),
(238,730,o),
(284,730,cs),
(307,730,o),
(324,720,o),
(334,701,cs),
(343,682,ls),
(350,671,o),
(358,668,o),
(370,674,cs),
(459,712,ls),
(495,727,o),
(509,718,o),
(502,682,cs),
(499,664,o),
(488,651,o),
(472,644,cs),
(403,614,ls),
(389,608,o),
(385,601,o),
(390,590,cs),
(441,493,ls),
(485,408,o),
(504,308,o),
(489,223,cs),
(465,83,o),
(356,-10,o),
(217,-10,cs),
(80,-10,o),
(4,80,o),
(28,215,cs),
(52,348,o),
(152,436,o),
(279,436,cs),
(337,436,o),
(372,404,o),
(383,380,c),
(397,380,l),
(393,393,o),
(377,429,o),
(350,480,cs),
(311,555,ls),
(304,566,o),
(295,569,o),
(282,563,cs),
(177,518,ls),
(142,503,o),
(128,512,o),
(134,548,cs),
(137,566,o),
(148,578,o),
(166,586,cs)
);
},
{
closed = 1;
nodes = (
(317,70,o),
(383,128,o),
(398,215,cs),
(413,302,o),
(368,360,o),
(283,360,cs),
(200,360,o),
(133,302,o),
(118,215,cs),
(103,128,o),
(149,70,o),
(232,70,cs)
);
}
);
width = 600;
},
{
layerId = "18543873-86E0-4072-B456-E15DF9A15DA0";
shapes = (
{
closed = 1;
nodes = (
(277,617,ls),
(287,621,o),
(290,627,o),
(286,635,cs),
(254,694,ls),
(241,718,o),
(249,730,o),
(278,730,cs),
(293,730,o),
(303,724,o),
(309,712,c),
(338,657,ls),
(342,649,o),
(350,647,o),
(359,651,cs),
(482,704,l),
(499,712,o),
(506,706,o),
(503,688,cs),
(501,679,o),
(496,673,o),
(488,669,c),
(376,621,ls),
(366,617,o),
(364,611,o),
(368,603,cs),
(413,517,ls),
(473,402,o),
(493,302,o),
(478,213,cs),
(454,78,o),
(352,-10,o),
(218,-10,cs),
(85,-10,o),
(14,79,o),
(38,215,cs),
(62,350,o),
(159,436,o),
(288,436,cs),
(361,436,o),
(409,385,o),
(424,347,c),
(427,347,l),
(424,366,o),
(405,419,o),
(365,491,cs),
(316,581,ls),
(311,589,o),
(304,591,o),
(295,587,cs),
(155,526,ls),
(137,518,o),
(130,524,o),
(133,542,cs),
(135,551,o),
(140,557,o),
(148,561,c)
);
},
{
closed = 1;
nodes = (
(328,40,o),
(404,109,o),
(423,216,cs),
(442,318,o),
(384,390,o),
(289,390,cs),
(188,390,o),
(112,322,o),
(93,215,cs),
(74,108,o),
(127,40,o),
(228,40,cs)
);
}
);
width = 600;
}
);
unicode = 240;
},
{
color = (153, 254, 255, 255);
glyphname = dcaron;
layers = (
{
layerId = "4A85F2CE-8B6A-44D8-848B-BBECCCC83376";
shapes = (
{
closed = 1;
nodes = (
(255,47,o),
(241,34,qs),
(192,-10,o),
(136,-10,qs),
(51,-10,o),
(-37,131,o),
(-12,275,qs),
(14,419,o),
(136,560,o),
(221,560,qs),
(292,560,o),
(331,505,qs),
(338,498,o),
(340,492,qs),
(342,485,o),
(350,486,o),
(354,506,cs),
(382,665,ls),
(391,715,o),
(420,740,o),
(470,740,cs),
(520,740,o),
(541,715,o),
(532,665,cs),
(425,63,ls),
(417,14,o),
(388,-10,o),
(339,-10,cs),
(290,-10,o),
(272,13,o),
(280,62,cs),
(281,64,ls),
(282,69,o),
(278,69,o),
(274,65,cs)
);
},
{
closed = 1;
nodes = (
(234,140,o),
(299,199,o),
(306,235,qs),
(320,315,ls),
(328,361,o),
(283,420,o),
(240,420,qs),
(204,420,o),
(153,354,o),
(138,275,qs),
(125,197,o),
(155,140,o),
(191,140,qs)
);
},
{
closed = 1;
nodes = (
(534,550,o),
(519,569,o),
(529,607,cs),
(545,669,ls),
(555,710,o),
(581,730,o),
(622,730,cs),
(663,730,o),
(677,710,o),
(665,669,cs),
(647,607,ls),
(636,569,o),
(612,550,o),
(573,550,cs)
);
}
);
width = 600;
},
{
layerId = "A29660E2-EDC3-4773-B175-8F2C31004B34";
shapes = (
{
closed = 1;
nodes = (
(288,45,o),
(263,27,qs),
(211,-10,o),
(156,-10,qs),
(83,-10,o),
(10,125,o),
(35,275,qs),
(62,425,o),
(184,560,o),
(257,560,qs),
(324,560,o),
(351,523,qs),
(367,500,o),
(378,476,qs),
(380,473,o),
(382,473,o),
(382,476,cs),
(422,695,ls),
(427,725,o),
(444,740,o),
(474,740,cs),
(504,740,o),
(517,725,o),
(512,695,cs),
(394,35,ls),
(389,5,o),
(371,-10,o),
(341,-10,cs),
(311,-10,o),
(299,5,o),
(304,35,cs),
(311,74,ls),
(311,76,o),
(308,77,o),
(307,74,cs)
);
},
{
closed = 1;
nodes = (
(233,73,o),
(327,163,o),
(335,205,qs),
(354,315,ls),
(366,381,o),
(308,475,o),
(269,475,qs),
(224,475,o),
(147,393,o),
(125,275,qs),
(105,158,o),
(154,73,o),
(191,73,qs)
);
},
{
closed = 1;
nodes = (
(546,550,o),
(535,562,o),
(543,587,cs),
(569,688,ls),
(576,716,o),
(594,730,o),
(622,730,cs),
(650,730,o),
(659,716,o),
(650,688,cs),
(620,587,ls),
(611,562,o),
(596,550,o),
(571,550,cs)
);
}
);
width = 600;
},
{
layerId = "18543873-86E0-4072-B456-E15DF9A15DA0";
shapes = (
{
closed = 1;
nodes = (
(313,51,o),
(287,31,qs),
(231,-10,o),
(175,-10,qs),
(102,-10,o),
(27,129,o),
(53,275,qs),
(79,420,o),
(203,560,o),
(276,560,qs),
(342,560,o),
(373,519,qs),
(391,497,o),
(399,474,qs),
(401,471,o),
(404,471,o),
(404,475,cs),
(447,715,ls),
(450,732,o),
(459,740,o),
(476,740,cs),
(493,740,o),
(500,732,o),
(497,715,cs),
(372,15,ls),
(370,-2,o),
(360,-10,o),
(343,-10,cs),
(326,-10,o),
(320,-2,o),
(322,15,cs),
(333,75,ls),
(334,79,o),
(331,80,o),
(328,76,cs)
);
},
{
closed = 1;
nodes = (
(236,38,o),
(343,131,o),
(354,194,qs),
(383,355,ls),
(393,409,o),
(331,512,o),
(278,512,qs),
(221,512,o),
(127,404,o),
(103,275,qs),
(81,145,o),
(137,38,o),
(194,38,qs)
);
},
{
closed = 1;
nodes = (
(555,550,o),
(550,557,o),
(554,571,cs),
(596,704,ls),
(601,721,o),
(614,730,o),
(631,730,cs),
(648,730,o),
(653,721,o),
(647,704,cs),
(597,571,ls),
(592,557,o),
(583,550,o),
(569,550,cs)
);
}
);
width = 600;
}
);
unicode = 271;
},
{
color = (153, 254, 255, 255);
glyphname = dcroat;
layers = (
{
anchors = (
{
name = t.uni0308;
position = "{455, 700}";
}
);
layerId = "4A85F2CE-8B6A-44D8-848B-BBECCCC83376";
shapes = (
{
closed = 1;
nodes = (
(296,46,o),
(281,34,qs),
(222,-10,o),
(156,-10,qs),
(76,-10,o),
(-18,121,o),
(5,255,qs),
(28,379,o),
(172,510,o),
(252,510,qs),
(326,510,o),
(359,475,qs),
(366,468,o),
(372,464,qs),
(377,460,o),
(386,461,o),
(388,469,cs),
(422,665,ls),
(431,715,o),
(460,740,o),
(510,740,cs),
(560,740,o),
(581,715,o),
(572,665,cs),
(465,63,ls),
(457,14,o),
(428,-10,o),
(379,-10,cs),
(330,-10,o),
(312,13,o),
(320,62,cs),
(321,64,ls),
(322,69,o),
(318,69,o),
(314,65,cs)
);
},
{
closed = 1;
nodes = (
(274,140,o),
(339,199,o),
(346,235,qs),
(351,265,ls),
(359,311,o),
(319,370,o),
(272,370,qs),
(231,370,o),
(167,319,o),
(155,255,qs),
(144,192,o),
(190,140,o),
(231,140,qs)
);
},
{
closed = 1;
nodes = (
(314,555,ls),
(277,555,o),
(262,573,o),
(269,610,cs),
(275,647,o),
(296,665,o),
(333,665,cs),
(593,665,ls),
(630,665,o),
(645,647,o),
(639,610,cs),
(632,573,o),
(611,555,o),
(574,555,cs)
);
}
);
width = 600;
},
{
anchors = (
{
name = _m.uni0308;
position = "{427, 488}";
},
{
name = _t.uni0308;
position = "{427, 488}";
},
{
name = t.uni0308;
position = "{464, 703}";
}
);
layerId = "A29660E2-EDC3-4773-B175-8F2C31004B34";
shapes = (
{
closed = 1;
nodes = (
(328,45,o),
(303,27,qs),
(251,-10,o),
(186,-10,qs),
(103,-10,o),
(21,135,o),
(42,255,qs),
(64,375,o),
(195,510,o),
(278,510,qs),
(353,510,o),
(382,473,qs),
(399,451,o),
(410,426,qs),
(411,423,o),
(413,423,o),
(414,426,cs),
(462,695,ls),
(467,725,o),
(484,740,o),
(514,740,cs),
(544,740,o),
(557,725,o),
(552,695,cs),
(434,35,ls),
(429,5,o),
(411,-10,o),
(381,-10,cs),
(351,-10,o),
(339,5,o),
(344,35,cs),
(351,74,ls),
(351,76,o),
(348,77,o),
(347,74,cs)
);
},
{
closed = 1;
nodes = (
(273,73,o),
(367,163,o),
(375,205,qs),
(385,265,ls),
(396,331,o),
(337,425,o),
(290,425,qs),
(235,425,o),
(148,343,o),
(132,255,qs),
(117,168,o),
(174,73,o),
(221,73,qs)
);
},
{
closed = 1;
nodes = (
(319,572,ls),
(294,572,o),
(284,585,o),
(289,610,cs),
(293,635,o),
(307,647,o),
(332,647,cs),
(587,647,ls),
(612,647,o),
(623,635,o),
(619,610,cs),
(614,585,o),
(599,572,o),
(574,572,cs)
);
}
);
width = 600;
},
{
anchors = (
{
name = t.uni0308;
position = "{482, 687}";
}
);
layerId = "18543873-86E0-4072-B456-E15DF9A15DA0";
shapes = (
{
closed = 1;
nodes = (
(353,51,o),
(327,31,qs),
(271,-10,o),
(205,-10,qs),
(122,-10,o),
(37,129,o),
(60,255,qs),
(81,370,o),
(214,510,o),
(297,510,qs),
(373,510,o),
(405,469,qs),
(421,447,o),
(430,424,qs),
(431,421,o),
(434,421,o),
(435,425,cs),
(487,715,ls),
(490,732,o),
(499,740,o),
(516,740,cs),
(533,740,o),
(540,732,o),
(537,715,cs),
(412,15,ls),
(410,-2,o),
(400,-10,o),
(383,-10,cs),
(366,-10,o),
(360,-2,o),
(362,15,cs),
(373,75,ls),
(374,79,o),
(371,80,o),
(368,76,cs)
);
},
{
closed = 1;
nodes = (
(276,38,o),
(383,131,o),
(394,194,qs),
(414,305,ls),
(423,359,o),
(362,462,o),
(299,462,qs),
(232,462,o),
(128,354,o),
(110,255,qs),
(91,145,o),
(157,38,o),
(224,38,qs)
);
},
{
closed = 1;
nodes = (
(335,588,ls),
(321,588,o),
(316,596,o),
(319,610,cs),
(321,624,o),
(329,631,o),
(343,631,cs),
(591,631,ls),
(605,631,o),
(611,624,o),
(609,610,cs),
(606,596,o),
(597,588,o),
(583,588,cs)
);
}
);
width = 600;
}
);
unicode = 273;
},
{
color = (153, 254, 255, 255);
glyphname = e;
layers = (
{
layerId = "4A85F2CE-8B6A-44D8-848B-BBECCCC83376";
shapes = (
{
closed = 1;
nodes = (
(458,108,o),
(452,69,o),
(434,53,cs),
(374,-1,o),
(306,-10,o),
(218,-10,cs),
(110,-10,o),
(31,67,o),
(27,180,cs),
(19,391,o),
(119,560,o),
(334,560,cs),
(455,560,o),
(525,508,o),
(529,408,cs),
(538,181,o),
(237,217,o),
(60,222,c),
(64,329,l),
(206,322,o),
(411,315,o),
(407,389,cs),
(405,419,o),
(376,434,o),
(330,434,cs),
(206,434,o),
(149,313,o),
(153,194,cs),
(155,149,o),
(194,119,o),
(237,119,cs),
(298,119,o),
(324,128,o),
(368,155,cs),
(384,165,o),
(418,169,o),
(435,143,cs)
);
}
);
width = 600;
},
{
layerId = "A29660E2-EDC3-4773-B175-8F2C31004B34";
shapes = (
{
closed = 1;
nodes = (
(459,89,o),
(453,63,o),
(425,44,cs),
(366,1,o),
(306,-10,o),
(225,-10,cs),
(119,-10,o),
(44,66,o),
(40,178,cs),
(30,455,o),
(192,560,o),
(341,560,cs),
(449,560,o),
(505,504,o),
(513,412,cs),
(532,196,o),
(191,229,o),
(54,232,c),
(56,322,l),
(182,318,o),
(432,283,o),
(418,409,cs),
(414,449,o),
(382,470,o),
(334,470,cs),
(249,470,o),
(126,408,o),
(130,184,cs),
(131,118,o),
(180,80,o),
(237,80,cs),
(297,80,o),
(333,91,o),
(374,117,cs),
(405,138,o),
(424,137,o),
(440,115,cs)
);
}
);
width = 600;
},
{
layerId = "18543873-86E0-4072-B456-E15DF9A15DA0";
shapes = (
{
closed = 1;
nodes = (
(442,81,o),
(440,66,o),
(425,53,cs),
(368,2,o),
(313,-10,o),
(225,-10,cs),
(133,-10,o),
(59,62,o),
(55,167,cs),
(46,438,o),
(199,560,o),
(350,560,cs),
(436,560,o),
(498,514,o),
(505,420,cs),
(520,205,o),
(191,237,o),
(71,249,c),
(74,302,l),
(192,290,o),
(466,257,o),
(455,427,cs),
(451,484,o),
(400,509,o),
(347,509,cs),
(227,509,o),
(97,409,o),
(105,163,cs),
(108,90,o),
(164,40,o),
(230,40,cs),
(306,40,o),
(348,49,o),
(398,94,cs),
(413,108,o),
(424,108,o),
(433,95,cs)
);
}
);
width = 600;
}
);
unicode = 101;
},
{
color = (153, 254, 255, 255);
glyphname = schwa;
layers = (
{
layerId = "4A85F2CE-8B6A-44D8-848B-BBECCCC83376";
shapes = (
{
closed = 1;
nodes = (
(82,442,o),
(88,481,o),
(106,497,cs),
(166,551,o),
(234,560,o),
(322,560,cs),
(430,560,o),
(509,483,o),
(513,370,cs),
(521,159,o),
(421,-10,o),
(206,-10,cs),
(85,-10,o),
(15,46,o),
(11,146,cs),
(2,373,o),
(303,343,o),
(480,338,c),
(476,221,l),
(354,223,o),
(132,239,o),
(133,165,cs),
(133,135,o),
(164,116,o),
(210,116,cs),
(334,116,o),
(391,237,o),
(387,356,cs),
(385,401,o),
(346,431,o),
(303,431,cs),
(242,431,o),
(216,422,o),
(172,395,cs),
(156,385,o),
(122,381,o),
(105,407,cs)
);
}
);
width = 600;
},
{
layerId = "A29660E2-EDC3-4773-B175-8F2C31004B34";
shapes = (
{
closed = 1;
nodes = (
(81,461,o),
(87,486,o),
(115,506,cs),
(174,548,o),
(234,560,o),
(315,560,cs),
(421,560,o),
(496,484,o),
(500,372,cs),
(510,95,o),
(348,-10,o),
(199,-10,cs),
(91,-10,o),
(35,41,o),
(27,133,cs),
(8,349,o),
(349,331,o),
(486,328,c),
(484,238,l),
(358,242,o),
(108,262,o),
(122,136,cs),
(126,96,o),
(158,80,o),
(206,80,cs),
(291,80,o),
(414,142,o),
(410,366,cs),
(409,432,o),
(360,470,o),
(303,470,cs),
(243,470,o),
(207,460,o),
(166,433,cs),
(135,413,o),
(116,413,o),
(100,435,cs)
);
}
);
width = 600;
},
{
layerId = "18543873-86E0-4072-B456-E15DF9A15DA0";
shapes = (
{
closed = 1;
nodes = (
(104,469,o),
(106,484,o),
(121,497,cs),
(178,548,o),
(233,560,o),
(321,560,cs),
(413,560,o),
(487,488,o),
(491,383,cs),
(500,112,o),
(347,-10,o),
(196,-10,cs),
(110,-10,o),
(48,36,o),
(41,130,cs),
(26,335,o),
(365,323,o),
(485,321,c),
(482,268,l),
(364,270,o),
(80,286,o),
(91,123,cs),
(95,66,o),
(146,41,o),
(199,41,cs),
(319,41,o),
(449,141,o),
(441,387,cs),
(438,460,o),
(382,510,o),
(316,510,cs),
(240,510,o),
(198,501,o),
(148,456,cs),
(133,442,o),
(122,442,o),
(113,455,cs)
);
}
);
width = 600;
}
);
unicode = 601;
},
{
color = (153, 254, 255, 255);
glyphname = f;
layers = (
{
layerId = "4A85F2CE-8B6A-44D8-848B-BBECCCC83376";
shapes = (
{
closed = 1;
nodes = (
(508,475,ls),
(553,475,o),
(571,453,o),
(564,408,cs),
(555,363,o),
(529,340,o),
(484,340,cs),
(101,340,ls),
(56,340,o),
(38,363,o),
(47,408,cs),
(54,453,o),
(80,475,o),
(125,475,cs)
);
},
{
closed = 1;
nodes = (
(300,-10,ls),
(274,-158,o),
(188,-235,o),
(43,-235,cs),
(-8,-235,ls),
(-52,-235,o),
(-70,-214,o),
(-61,-170,cs),
(-54,-126,o),
(-29,-105,o),
(15,-105,cs),
(66,-105,ls),
(106,-105,o),
(139,-72,o),
(150,-10,cs),
(247,545,ls),
(268,667,o),
(346,730,o),
(485,730,cs),
(526,730,ls),
(570,730,o),
(587,709,o),
(579,665,cs),
(571,621,o),
(547,600,o),
(503,600,cs),
(462,600,ls),
(437,600,o),
(403,581,o),
(397,545,cs)
);
}
);
width = 600;
},
{
layerId = "A29660E2-EDC3-4773-B175-8F2C31004B34";
shapes = (
{
closed = 1;
nodes = (
(520,470,ls),
(547,470,o),
(560,452,o),
(555,425,cs),
(551,398,o),
(531,380,o),
(504,380,cs),
(97,380,ls),
(70,380,o),
(56,398,o),
(60,425,cs),
(65,452,o),
(86,470,o),
(113,470,cs)
);
},
{
closed = 1;
nodes = (
(252,-20,ls),
(232,-133,o),
(160,-210,o),
(35,-210,cs),
(-10,-210,ls),
(-37,-210,o),
(-52,-192,o),
(-48,-165,cs),
(-43,-138,o),
(-21,-120,o),
(6,-120,cs),
(51,-120,ls),
(103,-120,o),
(151,-83,o),
(162,-20,cs),
(266,570,ls),
(285,676,o),
(355,730,o),
(469,730,cs),
(534,730,ls),
(561,730,o),
(576,712,o),
(572,685,cs),
(567,658,o),
(545,640,o),
(518,640,cs),
(453,640,ls),
(409,640,o),
(364,616,o),
(356,570,cs)
);
}
);
width = 600;
},
{
layerId = "18543873-86E0-4072-B456-E15DF9A15DA0";
shapes = (
{
closed = 1;
nodes = (
(526,469,ls),
(541,469,o),
(549,460,o),
(546,445,cs),
(544,430,o),
(531,419,o),
(516,419,cs),
(93,419,ls),
(78,419,o),
(71,430,o),
(73,445,cs),
(76,460,o),
(88,469,o),
(103,469,cs)
);
},
{
closed = 1;
nodes = (
(232,-20,ls),
(216,-112,o),
(171,-185,o),
(51,-185,cs),
(-8,-185,ls),
(-23,-185,o),
(-30,-175,o),
(-27,-160,cs),
(-25,-145,o),
(-14,-135,o),
(1,-135,cs),
(60,-135,ls),
(120,-135,o),
(169,-95,o),
(182,-20,cs),
(290,595,ls),
(306,685,o),
(361,730,o),
(455,730,cs),
(544,730,ls),
(559,730,o),
(566,720,o),
(563,705,cs),
(561,690,o),
(550,680,o),
(535,680,cs),
(446,680,ls),
(391,680,o),
(350,652,o),
(340,595,cs)
);
}
);
width = 600;
}
);
unicode = 102;
},
{
color = (153, 254, 255, 255);
glyphname = g;
layers = (
{
layerId = "4A85F2CE-8B6A-44D8-848B-BBECCCC83376";
shapes = (
{
closed = 1;
nodes = (
(332,99,l),
(307,37,o),
(245,-10,o),
(163,-10,cs),
(3,-10,o),
(-9,148,o),
(13,274,cs),
(37,406,o),
(107,560,o),
(282,560,cs),
(346,560,o),
(382,523,o),
(391,459,c),
(396,485,ls),
(404,535,o),
(434,560,o),
(484,560,cs),
(534,560,o),
(554,535,o),
(546,485,cs),
(460,0,ls),
(430,-172,o),
(345,-270,o),
(152,-270,cs),
(73,-270,o),
(8,-241,o),
(-35,-181,cs),
(-44,-167,o),
(-49,-148,o),
(-46,-130,cs),
(-39,-93,o),
(2,-53,o),
(44,-53,cs),
(57,-53,o),
(70,-57,o),
(79,-67,cs),
(107,-98,o),
(143,-135,o),
(197,-135,cs),
(258,-135,o),
(299,-88,o),
(315,0,cs)
);
},
{
closed = 1;
nodes = (
(288,140,o),
(342,181,o),
(351,235,cs),
(366,315,ls),
(376,373,o),
(345,420,o),
(283,420,cs),
(202,420,o),
(175,341,o),
(163,273,cs),
(151,207,o),
(152,140,o),
(228,140,cs)
);
}
);
width = 600;
},
{
layerId = "A29660E2-EDC3-4773-B175-8F2C31004B34";
shapes = (
{
closed = 1;
nodes = (
(361,120,l),
(322,41,o),
(265,10,o),
(195,10,cs),
(36,10,o),
(28,157,o),
(50,281,cs),
(71,405,o),
(133,560,o),
(302,560,cs),
(375,560,o),
(413,519,o),
(420,456,c),
(431,515,ls),
(436,545,o),
(454,560,o),
(484,560,cs),
(514,560,o),
(526,545,o),
(521,515,cs),
(430,0,ls),
(400,-169,o),
(291,-240,o),
(170,-240,cs),
(77,-240,o),
(27,-202,o),
(-2,-156,cs),
(-9,-144,o),
(-11,-132,o),
(-9,-120,cs),
(-5,-98,o),
(18,-64,o),
(48,-64,cs),
(63,-64,o),
(72,-70,o),
(79,-82,cs),
(101,-117,o),
(143,-150,o),
(198,-150,cs),
(247,-150,o),
(320,-114,o),
(340,0,cs)
);
},
{
closed = 1;
nodes = (
(292,95,o),
(369,163,o),
(380,226,cs),
(396,316,ls),
(407,380,o),
(374,475,o),
(302,475,cs),
(188,475,o),
(155,369,o),
(141,287,cs),
(126,202,o),
(122,95,o),
(219,95,cs)
);
}
);
width = 600;
},
{
layerId = "18543873-86E0-4072-B456-E15DF9A15DA0";
shapes = (
{
closed = 1;
nodes = (
(383,128,l),
(369,87,o),
(320,30,o),
(212,30,cs),
(64,30,o),
(44,165,o),
(65,285,cs),
(86,404,o),
(158,560,o),
(309,560,cs),
(382,560,o),
(425,521,o),
(439,449,c),
(454,535,ls),
(457,552,o),
(467,560,o),
(484,560,cs),
(501,560,o),
(507,552,o),
(504,535,cs),
(410,0,ls),
(379,-173,o),
(274,-210,o),
(179,-210,cs),
(92,-210,o),
(48,-179,o),
(22,-147,cs),
(12,-134,o),
(10,-127,o),
(12,-114,cs),
(15,-97,o),
(26,-85,o),
(42,-85,cs),
(48,-85,o),
(55,-87,o),
(63,-97,cs),
(76,-113,o),
(128,-160,o),
(190,-160,cs),
(268,-160,o),
(337,-128,o),
(360,0,cs)
);
},
{
closed = 1;
nodes = (
(310,78,o),
(388,159,o),
(401,234,cs),
(423,355,ls),
(435,425,o),
(381,512,o),
(307,512,cs),
(182,512,o),
(133,383,o),
(115,285,cs),
(98,187,o),
(106,78,o),
(222,78,cs)
);
}
);
width = 600;
}
);
unicode = 103;
},
{
color = (153, 254, 255, 255);
glyphname = h;
layers = (
{
layerId = "4A85F2CE-8B6A-44D8-848B-BBECCCC83376";
shapes = (
{
closed = 1;
nodes = (
(143,65,ls),
(135,15,o),
(105,-10,o),
(55,-10,cs),
(5,-10,o),
(-15,15,o),
(-7,65,cs),
(100,667,ls),
(108,716,o),
(137,740,o),
(182,740,cs),
(227,740,o),
(253,716,o),
(245,667,cs),
(206,450,l),
(240,520,o),
(294,560,o),
(358,560,cs),
(486,560,o),
(541,469,o),
(521,355,cs),
(469,65,ls),
(461,15,o),
(431,-10,o),
(381,-10,cs),
(331,-10,o),
(311,15,o),
(319,65,cs),
(365,325,ls),
(373,371,o),
(362,420,o),
(307,420,cs),
(245,420,o),
(198,373,o),
(188,315,cs)
);
}
);
width = 600;
},
{
layerId = "A29660E2-EDC3-4773-B175-8F2C31004B34";
shapes = (
{
closed = 1;
nodes = (
(111,35,ls),
(106,5,o),
(88,-10,o),
(58,-10,cs),
(28,-10,o),
(16,5,o),
(21,35,cs),
(138,695,ls),
(143,725,o),
(161,740,o),
(191,740,cs),
(221,740,o),
(233,725,o),
(228,695,cs),
(185,456,l),
(216,519,o),
(268,560,o),
(341,560,cs),
(447,560,o),
(510,484,o),
(490,370,cs),
(431,35,ls),
(426,5,o),
(408,-10,o),
(378,-10,cs),
(348,-10,o),
(336,5,o),
(341,35,cs),
(396,344,ls),
(408,413,o),
(382,475,o),
(311,475,cs),
(239,475,o),
(172,380,o),
(161,316,cs)
);
}
);
width = 600;
},
{
layerId = "18543873-86E0-4072-B456-E15DF9A15DA0";
shapes = (
{
closed = 1;
nodes = (
(88,15,ls),
(85,-2,o),
(75,-10,o),
(58,-10,cs),
(41,-10,o),
(35,-2,o),
(38,15,cs),
(161,715,ls),
(164,732,o),
(174,740,o),
(191,740,cs),
(208,740,o),
(214,732,o),
(211,715,cs),
(164,449,l),
(204,521,o),
(261,560,o),
(334,560,cs),
(442,560,o),
(489,476,o),
(470,367,cs),
(408,15,ls),
(405,-2,o),
(395,-10,o),
(378,-10,cs),
(361,-10,o),
(355,-2,o),
(358,15,cs),
(418,355,ls),
(432,438,o),
(401,512,o),
(318,512,cs),
(244,512,o),
(160,425,o),
(148,355,cs)
);
}
);
width = 600;
}
);
unicode = 104;
},
{
color = (153, 254, 255, 255);
glyphname = idotless;
layers = (
{
layerId = "4A85F2CE-8B6A-44D8-848B-BBECCCC83376";
shapes = (
{
closed = 1;
nodes = (
(152,355,ls),
(109,345,o),
(83,358,o),
(72,401,cs),
(61,444,o),
(76,471,o),
(119,484,cs),
(256,525,ls),
(347,552,o),
(396,490,o),
(375,410,cs),
(316,194,ls),
(306,155,o),
(318,125,o),
(345,125,cs),
(372,125,o),
(390,141,o),
(418,172,cs),
(445,202,o),
(471,202,o),
(500,178,cs),
(531,152,o),
(529,127,o),
(508,97,cs),
(453,20,o),
(399,-10,o),
(294,-10,cs),
(190,-10,o),
(144,86,o),
(168,170,cs),
(217,341,ls),
(222,358,o),
(216,370,o),
(198,366,cs)
);
}
);
width = 600;
},
{
layerId = "A29660E2-EDC3-4773-B175-8F2C31004B34";
shapes = (
{
closed = 1;
nodes = (
(154,399,ls),
(125,391,o),
(109,402,o),
(104,432,cs),
(99,462,o),
(111,480,o),
(140,488,cs),
(275,525,ls),
(339,543,o),
(374,504,o),
(360,450,cs),
(300,224,ls),
(268,105,o),
(286,80,o),
(326,80,cs),
(363,80,o),
(400,103,o),
(428,134,cs),
(451,158,o),
(473,155,o),
(489,141,cs),
(506,127,o),
(507,95,o),
(489,72,cs),
(440,12,o),
(391,-10,o),
(311,-10,cs),
(211,-10,o),
(165,58,o),
(192,161,cs),
(255,397,ls),
(260,415,o),
(250,425,o),
(234,421,cs)
);
}
);
width = 600;
},
{
layerId = "18543873-86E0-4072-B456-E15DF9A15DA0";
shapes = (
{
closed = 1;
nodes = (
(142,438,ls),
(126,434,o),
(115,439,o),
(112,456,cs),
(109,473,o),
(115,483,o),
(132,487,cs),
(288,528,ls),
(333,540,o),
(356,510,o),
(346,470,cs),
(271,196,ls),
(237,73,o),
(268,40,o),
(317,40,cs),
(352,40,o),
(393,71,o),
(429,112,cs),
(440,124,o),
(455,124,o),
(464,118,cs),
(474,111,o),
(477,92,o),
(467,81,cs),
(418,23,o),
(384,-10,o),
(300,-10,cs),
(218,-10,o),
(189,59,o),
(214,155,cs),
(293,454,ls),
(297,470,o),
(286,478,o),
(272,474,cs)
);
}
);
width = 600;
}
);
unicode = 305;
},
{
color = (153, 254, 255, 255);
glyphname = ij;
layers = (
{
layerId = "4A85F2CE-8B6A-44D8-848B-BBECCCC83376";
shapes = (
{
closed = 1;
nodes = (
(40,-180,ls),
(-5,-180,o),
(-23,-158,o),
(-15,-113,cs),
(-7,-68,o),
(19,-45,o),
(64,-45,cs),
(192,-45,ls),
(230,-45,o),
(286,5,o),
(293,45,qs),
(369,475,ls),
(379,525,o),
(408,550,o),
(458,550,cs),
(508,550,o),
(529,525,o),
(519,475,cs),
(443,40,ls),
(424,-62,o),
(283,-180,o),
(179,-180,qs)
);
},
{
closed = 1;
nodes = (
(89,475,ls),
(99,525,o),
(128,550,o),
(178,550,cs),
(228,550,o),
(249,525,o),
(239,475,cs),
(180,140,ls),
(171,90,o),
(142,65,o),
(92,65,cs),
(42,65,o),
(21,90,o),
(30,140,cs)
);
},
{
closed = 1;
nodes = (
(152,637,o),
(110,679,o),
(117,715,qs),
(124,751,o),
(180,793,o),
(221,793,qs),
(262,793,o),
(304,751,o),
(297,715,qs),
(290,679,o),
(234,637,o),
(193,637,qs)
);
},
{
closed = 1;
nodes = (
(432,637,o),
(390,679,o),
(397,715,qs),
(404,751,o),
(460,793,o),
(501,793,qs),
(542,793,o),
(584,751,o),
(577,715,qs),
(570,679,o),
(514,637,o),
(473,637,qs)
);
}
);
width = 600;
},
{
layerId = "A29660E2-EDC3-4773-B175-8F2C31004B34";
shapes = (
{
closed = 1;
nodes = (
(37,-180,ls),
(10,-180,o),
(-1,-166,o),
(3,-139,cs),
(8,-112,o),
(24,-98,o),
(51,-98,cs),
(176,-98,ls),
(238,-98,o),
(320,-30,o),
(331,31,qs),
(414,505,ls),
(420,535,o),
(438,550,o),
(468,550,cs),
(498,550,o),
(510,535,o),
(504,505,cs),
(421,31,ls),
(403,-66,o),
(263,-180,o),
(162,-180,qs)
);
},
{
closed = 1;
nodes = (
(117,505,ls),
(123,535,o),
(141,550,o),
(171,550,cs),
(201,550,o),
(213,535,o),
(207,505,cs),
(126,45,ls),
(120,15,o),
(103,0,o),
(73,0,cs),
(43,0,o),
(30,15,o),
(36,45,cs)
);
},
{
closed = 1;
nodes = (
(153,649,o),
(121,683,o),
(126,712,qs),
(132,742,o),
(176,777,o),
(209,777,qs),
(242,777,o),
(274,742,o),
(268,712,qs),
(263,683,o),
(219,649,o),
(186,649,qs)
);
},
{
closed = 1;
nodes = (
(451,649,o),
(419,683,o),
(424,712,qs),
(430,742,o),
(474,777,o),
(507,777,qs),
(540,777,o),
(572,742,o),
(566,712,qs),
(561,683,o),
(517,649,o),
(484,649,qs)
);
}
);
width = 600;
},
{
layerId = "18543873-86E0-4072-B456-E15DF9A15DA0";
shapes = (
{
closed = 1;
nodes = (
(38,-180,ls),
(23,-180,o),
(16,-173,o),
(19,-158,cs),
(22,-143,o),
(31,-135,o),
(46,-135,cs),
(177,-135,ls),
(248,-135,o),
(334,-60,o),
(347,10,qs),
(439,525,ls),
(441,542,o),
(451,550,o),
(468,550,cs),
(485,550,o),
(491,542,o),
(489,525,cs),
(397,10,ls),
(381,-79,o),
(261,-180,o),
(169,-180,qs)
);
},
{
closed = 1;
nodes = (
(141,525,ls),
(143,542,o),
(153,550,o),
(170,550,cs),
(187,550,o),
(193,542,o),
(191,525,cs),
(101,25,ls),
(99,8,o),
(89,0,o),
(72,0,cs),
(55,0,o),
(49,8,o),
(51,25,cs)
);
},
{
closed = 1;
nodes = (
(162,655,o),
(136,685,o),
(140,710,qs),
(144,735,o),
(182,765,o),
(208,765,qs),
(234,765,o),
(260,735,o),
(256,710,qs),
(252,685,o),
(214,655,o),
(188,655,qs)
);
},
{
closed = 1;
nodes = (
(458,655,o),
(432,685,o),
(436,710,qs),
(440,735,o),
(478,765,o),
(504,765,qs),
(530,765,o),
(556,735,o),
(552,710,qs),
(548,685,o),
(510,655,o),
(484,655,qs)
);
}
);
width = 600;
}
);
unicode = 307;
},
{
color = (153, 254, 255, 255);
glyphname = ij_acute;
layers = (
{
anchors = (
{
name = m.uni0308;
position = "{555, 785}";
}
);
layerId = "4A85F2CE-8B6A-44D8-848B-BBECCCC83376";
shapes = (
{
closed = 1;
nodes = (
(-7,-68,o),
(19,-45,o),
(64,-45,cs),
(192,-45,ls),
(230,-45,o),
(286,5,o),
(293,45,qs),
(369,475,ls),
(379,525,o),
(408,550,o),
(458,550,cs),
(508,550,o),
(529,525,o),
(519,475,cs),
(443,40,ls),
(424,-62,o),
(283,-180,o),
(179,-180,qs),
(40,-180,ls),
(-5,-180,o),
(-23,-158,o),
(-15,-113,cs)
);
},
{
closed = 1;
nodes = (
(42,65,o),
(21,90,o),
(30,140,cs),
(89,475,ls),
(99,525,o),
(128,550,o),
(178,550,cs),
(228,550,o),
(249,525,o),
(239,475,cs),
(180,140,ls),
(171,90,o),
(142,65,o),
(92,65,cs)
);
},
{
closed = 1;
nodes = (
(428,645,o),
(422,671,o),
(471,724,cs),
(489,745,ls),
(519,778,o),
(549,785,o),
(588,785,cs),
(655,785,o),
(661,759,o),
(609,708,cs),
(584,683,ls),
(559,657,o),
(528,645,o),
(495,645,cs)
);
},
{
closed = 1;
nodes = (
(144,645,o),
(138,671,o),
(187,724,cs),
(205,745,ls),
(235,778,o),
(265,785,o),
(304,785,cs),
(371,785,o),
(377,759,o),
(325,708,cs),
(300,683,ls),
(275,657,o),
(244,645,o),
(211,645,cs)
);
}
);
width = 600;
},
{
anchors = (
{
name = m.uni0308;
position = "{555, 785}";
}
);
layerId = "A29660E2-EDC3-4773-B175-8F2C31004B34";
shapes = (
{
closed = 1;
nodes = (
(8,-112,o),
(24,-98,o),
(51,-98,cs),
(176,-98,ls),
(238,-98,o),
(320,-30,o),
(331,31,qs),
(414,505,ls),
(420,535,o),
(438,550,o),
(468,550,cs),
(498,550,o),
(510,535,o),
(504,505,cs),
(421,31,ls),
(403,-66,o),
(263,-180,o),
(162,-180,qs),
(37,-180,ls),
(10,-180,o),
(-1,-166,o),
(3,-139,cs)
);
},
{
closed = 1;
nodes = (
(43,0,o),
(30,15,o),
(36,45,cs),
(117,505,ls),
(123,535,o),
(141,550,o),
(171,550,cs),
(201,550,o),
(213,535,o),
(207,505,cs),
(126,45,ls),
(120,15,o),
(103,0,o),
(73,0,cs)
);
},
{
closed = 1;
nodes = (
(451,645,o),
(446,661,o),
(478,694,cs),
(537,759,ls),
(554,776,o),
(573,785,o),
(595,785,cs),
(638,785,o),
(643,768,o),
(610,734,cs),
(547,669,ls),
(531,653,o),
(513,645,o),
(492,645,cs)
);
},
{
closed = 1;
nodes = (
(162,645,o),
(157,661,o),
(189,694,cs),
(248,759,ls),
(265,776,o),
(284,785,o),
(306,785,cs),
(349,785,o),
(354,768,o),
(321,734,cs),
(258,669,ls),
(242,653,o),
(224,645,o),
(203,645,cs)
);
}
);
width = 600;
},
{
anchors = (
{
name = m.uni0308;
position = "{559, 785}";
}
);
layerId = "18543873-86E0-4072-B456-E15DF9A15DA0";
shapes = (
{
closed = 1;
nodes = (
(22,-143,o),
(31,-135,o),
(46,-135,cs),
(177,-135,ls),
(248,-135,o),
(334,-60,o),
(347,10,qs),
(439,525,ls),
(441,542,o),
(451,550,o),
(468,550,cs),
(485,550,o),
(491,542,o),
(489,525,cs),
(397,10,ls),
(381,-79,o),
(261,-180,o),
(169,-180,qs),
(38,-180,ls),
(23,-180,o),
(16,-173,o),
(19,-158,cs)
);
},
{
closed = 1;
nodes = (
(55,0,o),
(49,8,o),
(51,25,cs),
(141,525,ls),
(143,542,o),
(153,550,o),
(170,550,cs),
(187,550,o),
(193,542,o),
(191,525,cs),
(101,25,ls),
(99,8,o),
(89,0,o),
(72,0,cs)
);
},
{
closed = 1;
nodes = (
(465,645,o),
(463,654,o),
(480,673,cs),
(570,769,ls),
(581,780,o),
(593,785,o),
(606,785,cs),
(632,785,o),
(634,775,o),
(614,754,cs),
(521,659,ls),
(512,650,o),
(501,645,o),
(489,645,cs)
);
},
{
closed = 1;
nodes = (
(170,645,o),
(168,654,o),
(185,673,cs),
(275,769,ls),
(286,780,o),
(298,785,o),
(311,785,cs),
(337,785,o),
(339,775,o),
(319,754,cs),
(226,659,ls),
(217,650,o),
(206,645,o),
(194,645,cs)
);
}
);
width = 600;
}
);
},
{
color = (153, 254, 255, 255);
glyphname = jdotless;
layers = (
{
layerId = "4A85F2CE-8B6A-44D8-848B-BBECCCC83376";
shapes = (
{
closed = 1;
nodes = (
(393,46,ls),
(351,-201,o),
(302,-270,o),
(97,-270,cs),
(54,-270,o),
(-9,-264,o),
(-70,-181,cs),
(-81,-167,o),
(-84,-145,o),
(-80,-129,c),
(-75,-95,o),
(-34,-53,o),
(6,-53,cs),
(27,-53,o),
(40,-66,o),
(58,-87,c),
(72,-106,o),
(90,-135,o),
(130,-135,cs),
(186,-135,o),
(219,-89,o),
(239,22,cs),
(297,341,ls),
(300,358,o),
(296,370,o),
(278,366,cs),
(232,355,ls),
(189,345,o),
(163,358,o),
(152,401,cs),
(141,444,o),
(156,471,o),
(199,484,cs),
(336,525,ls),
(427,552,o),
(469,492,o),
(455,410,cs)
);
}
);
width = 600;
},
{
layerId = "A29660E2-EDC3-4773-B175-8F2C31004B34";
shapes = (
{
closed = 1;
nodes = (
(354,-33,ls),
(328,-180,o),
(253,-240,o),
(117,-240,cs),
(39,-240,o),
(-9,-199,o),
(-45,-148,c),
(-52,-140,o),
(-52,-129,o),
(-52,-121,c),
(-48,-99,o),
(-26,-68,o),
(6,-68,cs),
(23,-68,o),
(34,-81,o),
(41,-92,cs),
(63,-123,o),
(86,-150,o),
(131,-150,cs),
(189,-150,o),
(250,-113,o),
(262,-47,cs),
(341,399,ls),
(344,417,o),
(336,427,o),
(320,423,cs),
(234,399,ls),
(205,391,o),
(189,402,o),
(184,432,cs),
(179,462,o),
(191,480,o),
(220,488,cs),
(355,525,ls),
(419,543,o),
(450,505,o),
(440,450,cs)
);
}
);
width = 600;
},
{
layerId = "18543873-86E0-4072-B456-E15DF9A15DA0";
shapes = (
{
closed = 1;
nodes = (
(325,-63,ls),
(308,-161,o),
(236,-220,o),
(120,-220,cs),
(32,-220,o),
(-10,-170,o),
(-31,-144,cs),
(-35,-139,o),
(-34,-131,o),
(-34,-127,cs),
(-31,-114,o),
(-17,-94,o),
(-5,-94,cs),
(2,-94,o),
(10,-101,o),
(17,-111,cs),
(48,-146,o),
(78,-170,o),
(127,-170,cs),
(196,-170,o),
(264,-123,o),
(274,-67,cs),
(366,450,ls),
(370,470,o),
(361,475,o),
(342,470,cs),
(191,430,ls),
(176,426,o),
(168,450,o),
(171,465,cs),
(173,480,o),
(184,486,o),
(200,490,cs),
(370,530,ls),
(410,539,o),
(426,510,o),
(420,470,cs)
);
}
);
width = 600;
}
);
unicode = 567;
},
{
color = (153, 254, 255, 255);
glyphname = k;
layers = (
{
layerId = "4A85F2CE-8B6A-44D8-848B-BBECCCC83376";
shapes = (
{
closed = 1;
nodes = (
(481.401,76,ls),
(527.174,18,o),
(509.237,-10,o),
(439.237,-10,cs),
(385.237,-10,o),
(352,0,o),
(326.819,33,cs),
(154.434,252,l),
(317.901,283,l)
);
},
{
closed = 1;
nodes = (
(168.461,65,ls),
(159.645,15,o),
(130.237,-10,o),
(80.237,-10,cs),
(30.237,-10,o),
(9.645,15,o),
(18.461,65,cs),
(124.081,664,ls),
(132.897,714,o),
(162.306,739,o),
(212.306,739,cs),
(262.306,739,o),
(282.897,714,o),
(274.081,664,cs)
);
},
{
closed = 1;
nodes = (
(119.251,302,l),
(176.016,295,o),
(364.251,302,o),
(376.77,373,cs),
(380.649,395,o),
(374.294,410,o),
(345.294,410,cs),
(291.294,410,o),
(218.239,387,o),
(189.543,315,c),
(141.644,429,l),
(200.043,522,o),
(276.743,560,o),
(381.743,560,cs),
(506.743,560,o),
(545.813,481,o),
(528.181,381,cs),
(492.915,181,o),
(250.215,143,o),
(99.034,176,c)
);
}
);
width = 600;
},
{
layerId = "A29660E2-EDC3-4773-B175-8F2C31004B34";
shapes = (
{
closed = 1;
nodes = (
(453.64,49,ls),
(483.94,11,o),
(470.237,-10,o),
(426.237,-10,cs),
(399.237,-10,o),
(380,0,o),
(364.35,19,cs),
(196.026,227,l),
(294.553,247,l)
);
},
{
closed = 1;
nodes = (
(137.171,35,ls),
(131.882,5,o),
(114.237,-10,o),
(84.237,-10,cs),
(54.237,-10,o),
(41.882,5,o),
(47.171,35,cs),
(163.547,695,ls),
(168.837,725,o),
(186.482,740,o),
(216.482,740,cs),
(246.482,740,o),
(258.837,725,o),
(253.547,695,cs)
);
},
{
closed = 1;
nodes = (
(148.137,273,l),
(220.198,262,o),
(379.311,291,o),
(398.886,385,cs),
(408.173,432,o),
(392.994,448,o),
(357.994,448,cs),
(310.994,448,o),
(223.939,425,o),
(178.301,359,c),
(143.468,428,l),
(210.043,522,o),
(294.864,538,o),
(377.864,538,cs),
(478.864,538,o),
(512.519,485,o),
(496.473,394,cs),
(468.613,236,o),
(283.918,164,o),
(134.855,192,c)
);
}
);
width = 600;
},
{
layerId = "18543873-86E0-4072-B456-E15DF9A15DA0";
shapes = (
{
closed = 1;
nodes = (
(442.232,24,ls),
(460.353,2,o),
(452.237,-10,o),
(421.237,-10,cs),
(406.237,-10,o),
(394.295,-4,o),
(385.234,7,cs),
(220.087,216,l),
(281.379,229,l)
);
},
{
closed = 1;
nodes = (
(113.645,15,ls),
(110.647,-2,o),
(101.237,-10,o),
(84.237,-10,cs),
(67.237,-10,o),
(60.647,-2,o),
(63.645,15,cs),
(187.074,715,ls),
(190.071,732,o),
(199.482,740,o),
(216.482,740,cs),
(233.482,740,o),
(240.071,732,o),
(237.074,715,cs)
);
},
{
closed = 1;
nodes = (
(144.082,250,l),
(282.318,240,o),
(400.432,269,o),
(420.533,383,cs),
(429.702,435,o),
(410.345,467,o),
(357.345,467,cs),
(300.345,467,o),
(224.289,444,o),
(169.77,373,c),
(149.176,415,l),
(196.519,485,o),
(281.161,517,o),
(370.161,517,cs),
(452.161,517,o),
(484.816,464,o),
(472.297,393,cs),
(443.555,230,o),
(285.973,187,o),
(135.794,203,c)
);
}
);
width = 600;
}
);
unicode = 107;
},
{
color = (153, 254, 255, 255);
glyphname = l;
layers = (
{
layerId = "4A85F2CE-8B6A-44D8-848B-BBECCCC83376";
shapes = (
{
closed = 1;
nodes = (
(382,24,o),
(325,-10,o),
(250,-10,cs),
(140,-10,o),
(100,65,o),
(108,170,cs),
(136,532,o),
(211,740,o),
(399,740,cs),
(521,740,o),
(545,635,o),
(525,536,cs),
(485,331,o),
(340,197,o),
(51,78,cs),
(11,62,o),
(-14,76,o),
(-23,119,cs),
(-33,162,o),
(-18,190,o),
(23,207,cs),
(243,301,o),
(359,406,o),
(387,538,cs),
(392,562,o),
(398,605,o),
(375,605,cs),
(327,605,o),
(260,444,o),
(246,197,cs),
(243,158,o),
(258,128,o),
(281,128,cs),
(306,128,o),
(326,145,o),
(354,172,cs),
(383,200,o),
(411,200,o),
(440,176,cs),
(468,153,o),
(467,113,o),
(444,89,cs)
);
}
);
width = 600;
},
{
layerId = "A29660E2-EDC3-4773-B175-8F2C31004B34";
shapes = (
{
closed = 1;
nodes = (
(375,19,o),
(320,-10,o),
(247,-10,cs),
(147,-10,o),
(119,60,o),
(126,161,cs),
(157,601,o),
(270,740,o),
(408,740,cs),
(507,740,o),
(527,664,o),
(514,589,cs),
(473,336,o),
(327,191,o),
(19,66,cs),
(-12,54,o),
(-29,62,o),
(-36,91,cs),
(-43,119,o),
(-32,138,o),
(-1,151,cs),
(259,259,o),
(394,389,o),
(424,585,cs),
(430,626,o),
(421,650,o),
(393,650,cs),
(339,650,o),
(233,539,o),
(215,203,cs),
(210,115,o),
(225,76,o),
(269,76,cs),
(311,76,o),
(337,98,o),
(364,129,cs),
(388,153,o),
(410,155,o),
(429,139,cs),
(450,121,o),
(448,96,o),
(428,74,cs)
);
}
);
width = 600;
},
{
layerId = "18543873-86E0-4072-B456-E15DF9A15DA0";
shapes = (
{
closed = 1;
nodes = (
(378,18,o),
(328,-10,o),
(255,-10,cs),
(163,-10,o),
(135,59,o),
(144,155,cs),
(181,572,o),
(272,740,o),
(421,740,cs),
(510,740,o),
(521,672,o),
(514,616,cs),
(483,324,o),
(314,185,o),
(-1,57,cs),
(-18,50,o),
(-27,56,o),
(-31,74,cs),
(-34,92,o),
(-29,103,o),
(-12,110,cs),
(272,227,o),
(427,335,o),
(464,608,cs),
(469,650,o),
(459,690,o),
(417,690,cs),
(337,690,o),
(236,568,o),
(196,196,cs),
(185,93,o),
(203,40,o),
(272,40,cs),
(327,40,o),
(361,70,o),
(397,111,cs),
(408,123,o),
(421,124,o),
(433,114,cs),
(445,103,o),
(443,87,o),
(432,76,cs)
);
}
);
width = 600;
}
);
unicode = 108;
},
{
color = (153, 254, 255, 255);
glyphname = m;
layers = (
{
layerId = "4A85F2CE-8B6A-44D8-848B-BBECCCC83376";
shapes = (
{
closed = 1;
nodes = (
(-24,-10,o),
(-45,10,o),
(-37,54,cs),
(41,499,ls),
(48,541,o),
(82,560,o),
(119,560,cs),
(160,560,o),
(183,537,o),
(176,499,cs),
(173,480,l),
(191,529,o),
(228,560,o),
(274,560,cs),
(332,560,o),
(361,521,o),
(363,480,c),
(378,521,o),
(410,560,o),
(472,560,cs),
(539,560,o),
(575,515,o),
(562,440,cs),
(494,54,ls),
(486,10,o),
(458,-10,o),
(416,-10,cs),
(373,-10,o),
(351,11,o),
(359,55,cs),
(418,393,ls),
(423,417,o),
(416,436,o),
(395,436,cs),
(373,436,o),
(362,417,o),
(357,393,cs),
(297,49,ls),
(289,8,o),
(257,-10,o),
(218,-10,cs),
(179,-10,o),
(154,8,o),
(162,49,cs),
(222,393,ls),
(226,416,o),
(222,436,o),
(200,436,cs),
(178,436,o),
(161,416,o),
(157,393,cs),
(98,55,ls),
(90,11,o),
(62,-10,o),
(19,-10,cs)
);
}
);
width = 600;
},
{
layerId = "A29660E2-EDC3-4773-B175-8F2C31004B34";
shapes = (
{
closed = 1;
nodes = (
(-4,0,o),
(-23,13,o),
(-18,42,cs),
(67,520,ls),
(71,545,o),
(94,560,o),
(119,560,cs),
(145,560,o),
(161,545,o),
(157,520,cs),
(151,485,l),
(173,531,o),
(199,560,o),
(253,560,cs),
(310,560,o),
(339,525,o),
(338,485,c),
(355,527,o),
(388,560,o),
(448,560,cs),
(530,560,o),
(553,497,o),
(539,418,cs),
(472,42,ls),
(467,13,o),
(445,0,o),
(418,0,cs),
(391,0,o),
(373,13,o),
(378,42,cs),
(443,409,ls),
(449,445,o),
(443,481,o),
(401,481,cs),
(360,481,o),
(341,446,o),
(334,410,cs),
(269,37,ls),
(264,11,o),
(244,0,o),
(220,0,cs),
(196,0,o),
(180,11,o),
(185,37,cs),
(250,409,ls),
(256,444,o),
(251,481,o),
(209,481,cs),
(167,481,o),
(148,447,o),
(141,410,cs),
(76,42,ls),
(71,13,o),
(50,0,o),
(23,0,cs)
);
}
);
width = 600;
},
{
layerId = "18543873-86E0-4072-B456-E15DF9A15DA0";
shapes = (
{
closed = 1;
nodes = (
(2,-10,o),
(-5,-1,o),
(-2,15,cs),
(90,538,ls),
(93,553,o),
(105,560,o),
(119,560,cs),
(135,560,o),
(143,553,o),
(140,538,cs),
(131,490,l),
(155,531,o),
(192,560,o),
(237,560,cs),
(290,560,o),
(317,534,o),
(324,490,c),
(353,534,o),
(379,560,o),
(434,560,cs),
(510,560,o),
(533,499,o),
(521,431,cs),
(447,14,ls),
(445,-2,o),
(435,-10,o),
(419,-10,cs),
(403,-10,o),
(396,-2,o),
(398,14,cs),
(470,420,ls),
(479,468,o),
(465,513,o),
(411,513,cs),
(357,513,o),
(327,468,o),
(318,420,cs),
(246,14,ls),
(244,-2,o),
(234,-10,o),
(218,-10,cs),
(202,-10,o),
(195,-2,o),
(197,14,cs),
(269,420,ls),
(278,468,o),
(264,513,o),
(210,513,cs),
(156,513,o),
(127,468,o),
(118,420,cs),
(46,14,ls),
(44,-2,o),
(34,-10,o),
(18,-10,cs)
);
}
);
width = 600;
}
);
unicode = 109;
},
{
color = (153, 254, 255, 255);
glyphname = n;
layers = (
{
layerId = "4A85F2CE-8B6A-44D8-848B-BBECCCC83376";
shapes = (
{
closed = 1;
nodes = (
(143,65,ls),
(135,15,o),
(105,-10,o),
(55,-10,cs),
(5,-10,o),
(-15,15,o),
(-7,65,cs),
(68,487,ls),
(77,536,o),
(105,560,o),
(150,560,cs),
(195,560,o),
(222,536,o),
(213,487,cs),
(206,450,l),
(240,520,o),
(294,560,o),
(358,560,cs),
(486,560,o),
(541,469,o),
(521,355,cs),
(469,65,ls),
(461,15,o),
(431,-10,o),
(381,-10,cs),
(331,-10,o),
(311,15,o),
(319,65,cs),
(365,325,ls),
(373,371,o),
(362,420,o),
(307,420,cs),
(245,420,o),
(198,373,o),
(188,315,cs)
);
}
);
width = 600;
},
{
layerId = "A29660E2-EDC3-4773-B175-8F2C31004B34";
shapes = (
{
closed = 1;
nodes = (
(111,35,ls),
(106,5,o),
(88,-10,o),
(58,-10,cs),
(28,-10,o),
(16,5,o),
(21,35,cs),
(106,515,ls),
(111,545,o),
(129,560,o),
(159,560,cs),
(189,560,o),
(201,545,o),
(196,515,cs),
(185,456,l),
(216,519,o),
(268,560,o),
(341,560,cs),
(447,560,o),
(510,484,o),
(490,370,cs),
(431,35,ls),
(426,5,o),
(408,-10,o),
(378,-10,cs),
(348,-10,o),
(336,5,o),
(341,35,cs),
(396,344,ls),
(408,413,o),
(382,475,o),
(311,475,cs),
(239,475,o),
(172,380,o),
(161,316,cs)
);
}
);
width = 600;
},
{
layerId = "18543873-86E0-4072-B456-E15DF9A15DA0";
shapes = (
{
closed = 1;
nodes = (
(88,15,ls),
(85,-2,o),
(75,-10,o),
(58,-10,cs),
(41,-10,o),
(35,-2,o),
(38,15,cs),
(129,535,ls),
(132,552,o),
(142,560,o),
(159,560,cs),
(176,560,o),
(182,552,o),
(179,535,cs),
(164,449,l),
(204,521,o),
(261,560,o),
(334,560,cs),
(442,560,o),
(489,476,o),
(470,367,cs),
(408,15,ls),
(405,-2,o),
(395,-10,o),
(378,-10,cs),
(361,-10,o),
(355,-2,o),
(358,15,cs),
(418,355,ls),
(432,438,o),
(401,512,o),
(318,512,cs),
(244,512,o),
(160,425,o),
(148,355,cs)
);
}
);
width = 600;
}
);
unicode = 110;
},
{
color = (153, 254, 255, 255);
glyphname = o;
layers = (
{
layerId = "4A85F2CE-8B6A-44D8-848B-BBECCCC83376";
shapes = (
{
closed = 1;
nodes = (
(53,-10,o),
(-3,123,o),
(23,275,cs),
(50,427,o),
(154,560,o),
(319,560,cs),
(484,560,o),
(541,429,o),
(513,275,cs),
(487,123,o),
(383,-10,o),
(218,-10,cs)
);
},
{
closed = 1;
nodes = (
(305,115,o),
(349,190,o),
(363,275,cs),
(379,362,o),
(362,435,o),
(297,435,cs),
(232,435,o),
(188,360,o),
(173,275,cs),
(159,190,o),
(175,115,o),
(240,115,cs)
);
}
);
width = 600;
},
{
layerId = "A29660E2-EDC3-4773-B175-8F2C31004B34";
shapes = (
{
closed = 1;
nodes = (
(64,-10,o),
(14,110,o),
(44,276,cs),
(73,440,o),
(163,560,o),
(319,560,cs),
(476,560,o),
(523,440,o),
(494,276,cs),
(464,110,o),
(373,-10,o),
(218,-10,cs)
);
},
{
closed = 1;
nodes = (
(328,80,o),
(383,160,o),
(404,276,cs),
(424,390,o),
(398,470,o),
(303,470,cs),
(208,470,o),
(154,390,o),
(133,275,cs),
(113,160,o),
(140,80,o),
(234,80,cs)
);
}
);
width = 600;
},
{
layerId = "18543873-86E0-4072-B456-E15DF9A15DA0";
shapes = (
{
closed = 1;
nodes = (
(84,-10,o),
(28,100,o),
(58,275,cs),
(89,450,o),
(185,560,o),
(321,560,cs),
(457,560,o),
(509,450,o),
(479,278,cs),
(448,100,o),
(351,-10,o),
(218,-10,cs)
);
},
{
closed = 1;
nodes = (
(328,40,o),
(403,130,o),
(429,278,cs),
(454,420,o),
(416,510,o),
(312,510,cs),
(209,510,o),
(134,420,o),
(108,275,cs),
(83,130,o),
(125,40,o),
(227,40,cs)
);
}
);
width = 600;
}
);
unicode = 111;
},
{
color = (153, 254, 255, 255);
glyphname = oe;
layers = (
{
layerId = "4A85F2CE-8B6A-44D8-848B-BBECCCC83376";
shapes = (
{
closed = 1;
nodes = (
(547,350,ls),
(535,283,o),
(496,250,o),
(429,250,cs),
(346,250,ls),
(329,250,o),
(320,242,o),
(317,225,cs),
(302,140,ls),
(297,115,o),
(317,87,o),
(339,87,qs),
(361,87,o),
(375,101,qs),
(377,102,o),
(378,103,qs),
(403,130,o),
(418,140,o),
(433,140,cs),
(489,140,o),
(509,108,o),
(481,65,cs),
(468,47,o),
(451,32,qs),
(403,-10,o),
(338,-10,qs),
(300,-10,o),
(255,14,o),
(235,49,o),
(232,65,q),
(221,49,o),
(189,14,o),
(135,-10,o),
(98,-10,qs),
(33,-10,o),
(-25,73,o),
(-20,140,qs),
(-14,229,o),
(2,321,o),
(28,410,cs),
(48,478,o),
(134,560,o),
(199,560,qs),
(236,560,o),
(281,536,o),
(302,501,o),
(306,485,q),
(316,501,o),
(347,536,o),
(401,560,o),
(439,560,qs),
(504,560,o),
(570,478,o),
(558,410,qs)
);
},
{
closed = 1;
nodes = (
(154,87,o),
(180,115,o),
(188,140,qs),
(214,229,o),
(230,321,o),
(236,410,cs),
(238,436,o),
(221,463,o),
(199,463,qs),
(177,463,o),
(150,435,o),
(143,410,qs),
(117,321,o),
(101,229,o),
(95,140,cs),
(93,115,o),
(110,87,o),
(132,87,qs)
);
},
{
closed = 1;
nodes = (
(340,355,ls),
(337,338,o),
(343,330,o),
(360,330,cs),
(378,330,ls),
(412,330,o),
(432,346,o),
(438,380,cs),
(443,410,ls),
(448,436,o),
(428,463,o),
(406,463,qs),
(384,463,o),
(354,435,o),
(350,410,qs)
);
}
);
width = 600;
},
{
layerId = "A29660E2-EDC3-4773-B175-8F2C31004B34";
shapes = (
{
closed = 1;
nodes = (
(543,330,ls),
(534,276,o),
(503,250,o),
(449,250,cs),
(327,250,ls),
(314,250,o),
(307,243,o),
(304,230,cs),
(290,150,ls),
(283,112,o),
(311,67,o),
(342,67,qs),
(369,67,o),
(390,83,qs),
(399,89,o),
(406,98,qs),
(421,118,o),
(432,125,o),
(448,125,cs),
(488,125,o),
(500,104,o),
(479,71,cs),
(462,46,o),
(439,27,qs),
(394,-10,o),
(338,-10,qs),
(298,-10,o),
(251,16,o),
(233,53,o),
(233,70,q),
(226,53,o),
(193,16,o),
(138,-10,o),
(98,-10,qs),
(31,-10,o),
(-22,78,o),
(-18,150,qs),
(-13,233,o),
(2,318,o),
(26,400,cs),
(48,473,o),
(132,560,o),
(199,560,qs),
(239,560,o),
(286,534,o),
(306,497,o),
(305,480,q),
(313,497,o),
(344,534,o),
(399,560,o),
(439,560,qs),
(506,560,o),
(569,474,o),
(556,400,qs)
);
},
{
closed = 1;
nodes = (
(153,67,o),
(187,112,o),
(199,150,qs),
(224,233,o),
(239,318,o),
(243,400,cs),
(245,438,o),
(227,483,o),
(196,483,qs),
(164,483,o),
(123,438,o),
(111,400,qs),
(87,318,o),
(72,233,o),
(67,150,cs),
(65,112,o),
(90,67,o),
(122,67,qs)
);
},
{
closed = 1;
nodes = (
(324,343,ls),
(321,330,o),
(328,323,o),
(341,323,cs),
(418,323,ls),
(445,323,o),
(459,336,o),
(464,363,cs),
(471,400,ls),
(478,438,o),
(448,483,o),
(416,483,qs),
(385,483,o),
(341,438,o),
(334,400,qs)
);
}
);
width = 600;
},
{
layerId = "18543873-86E0-4072-B456-E15DF9A15DA0";
shapes = (
{
closed = 1;
nodes = (
(542,320,ls),
(535,280,o),
(511,260,o),
(471,260,cs),
(308,260,ls),
(298,260,o),
(292,255,o),
(290,245,cs),
(272,140,ls),
(264,93,o),
(306,34,o),
(349,34,qs),
(391,35,o),
(422,60,qs),
(443,78,o),
(453,101,qs),
(463,118,o),
(473,125,o),
(489,125,cs),
(506,125,o),
(511,116,o),
(505,100,cs),
(488,56,o),
(452,27,qs),
(406,-10,o),
(344,-10,qs),
(306,-10,o),
(259,17,o),
(238,57,o),
(236,75,q),
(228,57,o),
(191,17,o),
(133,-10,o),
(92,-10,qs),
(28,-10,o),
(-24,71,o),
(-20,139,qs),
(-15,228,o),
(2,319,o),
(28,408,cs),
(47,477,o),
(133,560,o),
(199,560,qs),
(238,560,o),
(284,532,o),
(307,493,o),
(307,474,q),
(317,493,o),
(352,532,o),
(407,560,o),
(442,560,qs),
(507,560,o),
(570,478,o),
(558,410,qs)
);
},
{
closed = 1;
nodes = (
(152,34,o),
(205,93,o),
(218,140,qs),
(244,229,o),
(260,321,o),
(266,410,cs),
(269,457,o),
(238,516,o),
(195,516,qs),
(152,516,o),
(92,457,o),
(79,408,qs),
(53,319,o),
(36,228,o),
(31,139,cs),
(28,92,o),
(66,34,o),
(109,34,qs)
);
},
{
closed = 1;
nodes = (
(305,325,ls),
(303,315,o),
(307,310,o),
(317,310,cs),
(460,310,ls),
(480,310,o),
(492,320,o),
(495,340,cs),
(508,410,ls),
(516,457,o),
(475,516,o),
(432,516,qs),
(390,516,o),
(328,457,o),
(320,410,qs)
);
}
);
width = 600;
}
);
unicode = 339;
},
{
color = (153, 254, 255, 255);
glyphname = p;
layers = (
{
layerId = "4A85F2CE-8B6A-44D8-848B-BBECCCC83376";
shapes = (
{
closed = 1;
nodes = (
(202,560,o),
(220,536,o),
(211,487,cs),
(205,451,l),
(231,513,o),
(292,560,o),
(374,560,cs),
(534,560,o),
(546,402,o),
(524,276,cs),
(501,144,o),
(431,-10,o),
(256,-10,cs),
(192,-10,o),
(155,27,o),
(146,91,c),
(110,-115,ls),
(101,-165,o),
(72,-190,o),
(22,-190,cs),
(-28,-190,o),
(-49,-165,o),
(-40,-115,cs),
(66,487,ls),
(75,536,o),
(102,560,o),
(152,560,cs)
);
},
{
closed = 1;
nodes = (
(250,410,o),
(195,369,o),
(186,315,cs),
(172,235,ls),
(161,177,o),
(192,130,o),
(254,130,cs),
(335,130,o),
(362,209,o),
(374,277,cs),
(386,343,o),
(386,410,o),
(310,410,cs)
);
}
);
width = 600;
},
{
layerId = "A29660E2-EDC3-4773-B175-8F2C31004B34";
shapes = (
{
closed = 1;
nodes = (
(184,560,o),
(196,545,o),
(191,514,cs),
(179,450,l),
(218,529,o),
(276,560,o),
(346,560,cs),
(505,560,o),
(510,398,o),
(488,274,cs),
(466,150,o),
(404,-10,o),
(235,-10,cs),
(162,-10,o),
(124,31,o),
(117,94,c),
(74,-145,ls),
(69,-175,o),
(51,-190,o),
(21,-190,cs),
(-9,-190,o),
(-21,-175,o),
(-16,-145,cs),
(101,514,ls),
(106,545,o),
(124,560,o),
(154,560,cs)
);
},
{
closed = 1;
nodes = (
(249,475,o),
(172,407,o),
(161,344,cs),
(141,234,ls),
(130,170,o),
(163,75,o),
(235,75,cs),
(349,75,o),
(383,186,o),
(397,268,cs),
(412,353,o),
(419,475,o),
(322,475,cs)
);
}
);
width = 600;
},
{
layerId = "18543873-86E0-4072-B456-E15DF9A15DA0";
shapes = (
{
closed = 1;
nodes = (
(171,560,o),
(177,552,o),
(174,535,cs),
(161,462,l),
(175,503,o),
(224,560,o),
(332,560,cs),
(480,560,o),
(495,395,o),
(473,275,cs),
(453,156,o),
(379,-10,o),
(228,-10,cs),
(155,-10,o),
(112,29,o),
(98,101,c),
(51,-165,ls),
(48,-182,o),
(38,-190,o),
(21,-190,cs),
(4,-190,o),
(-2,-182,o),
(1,-165,cs),
(124,535,ls),
(127,552,o),
(137,560,o),
(154,560,cs)
);
},
{
closed = 1;
nodes = (
(234,512,o),
(156,431,o),
(143,356,cs),
(114,195,ls),
(102,125,o),
(156,38,o),
(230,38,cs),
(355,38,o),
(406,177,o),
(423,275,cs),
(441,373,o),
(438,512,o),
(322,512,cs)
);
}
);
width = 600;
}
);
unicode = 112;
},
{
color = (153, 254, 255, 255);
glyphname = q;
layers = (
{
layerId = "4A85F2CE-8B6A-44D8-848B-BBECCCC83376";
shapes = (
{
closed = 1;
nodes = (
(536,560,o),
(555,536,o),
(546,487,cs),
(440,-115,ls),
(431,-165,o),
(401,-190,o),
(351,-190,cs),
(301,-190,o),
(281,-165,o),
(290,-115,cs),
(326,91,l),
(295,27,o),
(245,-10,o),
(181,-10,cs),
(6,-10,o),
(-10,144,o),
(14,276,cs),
(36,402,o),
(104,560,o),
(264,560,cs),
(346,560,o),
(390,513,o),
(395,451,c),
(401,487,ls),
(410,536,o),
(436,560,o),
(486,560,cs)
);
},
{
closed = 1;
nodes = (
(199,410,o),
(175,343,o),
(164,277,cs),
(152,209,o),
(151,130,o),
(232,130,cs),
(294,130,o),
(341,177,o),
(351,235,cs),
(366,315,ls),
(375,369,o),
(335,410,o),
(275,410,cs)
);
}
);
width = 600;
},
{
layerId = "A29660E2-EDC3-4773-B175-8F2C31004B34";
shapes = (
{
closed = 1;
nodes = (
(514,560,o),
(526,545,o),
(521,514,cs),
(404,-145,ls),
(399,-175,o),
(381,-190,o),
(351,-190,cs),
(321,-190,o),
(309,-175,o),
(314,-145,cs),
(357,94,l),
(326,31,o),
(274,-10,o),
(201,-10,cs),
(32,-10,o),
(26,150,o),
(48,274,cs),
(70,398,o),
(133,560,o),
(292,560,cs),
(362,560,o),
(408,529,o),
(419,450,c),
(431,514,ls),
(436,545,o),
(454,560,o),
(484,560,cs)
);
},
{
closed = 1;
nodes = (
(189,475,o),
(152,353,o),
(137,268,cs),
(123,186,o),
(117,75,o),
(231,75,cs),
(303,75,o),
(370,170,o),
(381,234,cs),
(401,344,ls),
(412,407,o),
(359,475,o),
(286,475,cs)
);
}
);
width = 600;
},
{
layerId = "18543873-86E0-4072-B456-E15DF9A15DA0";
shapes = (
{
closed = 1;
nodes = (
(501,560,o),
(507,552,o),
(504,535,cs),
(381,-165,ls),
(378,-182,o),
(368,-190,o),
(351,-190,cs),
(334,-190,o),
(328,-182,o),
(331,-165,cs),
(378,101,l),
(338,29,o),
(281,-10,o),
(208,-10,cs),
(57,-10,o),
(43,156,o),
(63,275,cs),
(85,395,o),
(158,560,o),
(306,560,cs),
(414,560,o),
(443,503,o),
(441,462,c),
(454,535,ls),
(457,552,o),
(467,560,o),
(484,560,cs)
);
},
{
closed = 1;
nodes = (
(182,512,o),
(131,373,o),
(113,275,cs),
(96,177,o),
(99,38,o),
(224,38,cs),
(298,38,o),
(382,125,o),
(394,195,cs),
(423,356,ls),
(436,431,o),
(386,512,o),
(298,512,cs)
);
}
);
width = 600;
}
);
unicode = 113;
},
{
color = (153, 254, 255, 255);
glyphname = r;
layers = (
{
anchors = (
{
name = bottom;
position = "{65, 0}";
},
{
name = top;
position = "{337, 550}";
}
);
layerId = "4A85F2CE-8B6A-44D8-848B-BBECCCC83376";
shapes = (
{
closed = 1;
nodes = (
(29,-10,o),
(9,15,o),
(17,65,cs),
(92,487,ls),
(101,536,o),
(129,560,o),
(178,560,cs),
(227,560,o),
(246,536,o),
(237,487,cs),
(230,450,l),
(270,520,o),
(332,560,o),
(421,560,cs),
(535,560,o),
(567,481,o),
(545,360,cs),
(544,350,ls),
(535,300,o),
(505,275,o),
(455,275,cs),
(405,275,o),
(385,300,o),
(394,350,cs),
(394,352,ls),
(401,394,o),
(401,430,o),
(353,430,cs),
(299,430,o),
(224,387,o),
(214,328,cs),
(167,65,ls),
(159,15,o),
(129,-10,o),
(79,-10,cs)
);
}
);
width = 600;
},
{
anchors = (
{
name = bottom;
position = "{65, 0}";
},
{
name = top;
position = "{337, 550}";
}
);
layerId = "A29660E2-EDC3-4773-B175-8F2C31004B34";
shapes = (
{
closed = 1;
nodes = (
(45,-10,o),
(33,5,o),
(38,35,cs),
(123,515,ls),
(128,545,o),
(146,560,o),
(176,560,cs),
(206,560,o),
(218,545,o),
(213,515,cs),
(202,456,l),
(236,519,o),
(295,560,o),
(393,560,cs),
(514,560,o),
(533,468,o),
(514,362,cs),
(512,350,ls),
(506,320,o),
(489,305,o),
(459,305,cs),
(429,305,o),
(416,320,o),
(422,350,cs),
(424,362,ls),
(435,423,o),
(434,482,o),
(358,482,cs),
(289,482,o),
(198,432,o),
(184,350,cs),
(128,35,ls),
(123,5,o),
(105,-10,o),
(75,-10,cs)
);
}
);
width = 600;
},
{
anchors = (
{
name = bottom;
position = "{55, 0}";
},
{
name = top;
position = "{337, 550}";
}
);
layerId = "18543873-86E0-4072-B456-E15DF9A15DA0";
shapes = (
{
closed = 1;
nodes = (
(58,-10,o),
(52,-2,o),
(55,15,cs),
(146,535,ls),
(149,552,o),
(159,560,o),
(176,560,cs),
(193,560,o),
(199,552,o),
(196,535,cs),
(181,449,l),
(220,521,o),
(294,560,o),
(387,560,cs),
(498,560,o),
(511,469,o),
(492,365,cs),
(491,355,ls),
(488,338,o),
(478,330,o),
(461,330,cs),
(444,330,o),
(438,338,o),
(441,355,cs),
(442,365,ls),
(456,443,o),
(456,517,o),
(365,517,cs),
(286,517,o),
(181,450,o),
(165,360,cs),
(105,15,ls),
(102,-2,o),
(92,-10,o),
(75,-10,cs)
);
}
);
width = 600;
}
);
unicode = 114;
},
{
color = (153, 254, 255, 255);
glyphname = s;
layers = (
{
layerId = "4A85F2CE-8B6A-44D8-848B-BBECCCC83376";
shapes = (
{
closed = 1;
nodes = (
(127,-10,o),
(69,7,o),
(28,61,cs),
(13,80,o),
(6,98,o),
(11,125,cs),
(18,165,o),
(45,191,o),
(79,191,cs),
(91,191,o),
(107,188,o),
(118,177,cs),
(151,143,o),
(193,120,o),
(241,120,cs),
(290,120,o),
(338,124,o),
(343,155,cs),
(346,169,o),
(338,182,o),
(317,190,cs),
(151,252,ls),
(90,275,o),
(56,315,o),
(70,398,cs),
(92,520,o),
(183,560,o),
(319,560,cs),
(400,560,o),
(473,536,o),
(503,493,cs),
(511,482,o),
(518,467,o),
(513,439,cs),
(506,397,o),
(479,374,o),
(444,374,cs),
(426,374,o),
(408,380,o),
(397,393,cs),
(383,410,o),
(349,430,o),
(296,430,cs),
(250,430,o),
(223,415,o),
(219,391,cs),
(216,375,o),
(224,371,o),
(241,364,cs),
(382,307,ls),
(457,277,o),
(504,251,o),
(488,157,cs),
(464,21,o),
(341,-10,o),
(218,-10,cs)
);
}
);
width = 600;
},
{
layerId = "A29660E2-EDC3-4773-B175-8F2C31004B34";
shapes = (
{
closed = 1;
nodes = (
(138,-10,o),
(76,10,o),
(34,71,cs),
(23,86,o),
(20,106,o),
(23,124,cs),
(28,153,o),
(49,162,o),
(68,162,cs),
(82,162,o),
(92,157,o),
(104,144,cs),
(143,102,o),
(169,80,o),
(234,80,cs),
(280,80,o),
(366,88,o),
(376,150,cs),
(384,190,o),
(358,209,o),
(321,222,cs),
(181,270,ls),
(129,288,o),
(79,321,o),
(94,406,cs),
(113,517,o),
(217,560,o),
(319,560,cs),
(405,560,o),
(476,530,o),
(501,475,cs),
(507,460,o),
(508,448,o),
(506,439,cs),
(503,418,o),
(485,399,o),
(459,399,cs),
(447,399,o),
(430,403,o),
(419,417,cs),
(392,449,o),
(364,470,o),
(303,470,cs),
(244,470,o),
(192,451,o),
(184,407,cs),
(179,382,o),
(192,363,o),
(215,354,cs),
(355,303,ls),
(425,278,o),
(483,242,o),
(466,149,cs),
(445,31,o),
(335,-10,o),
(219,-10,cs)
);
}
);
width = 600;
},
{
layerId = "18543873-86E0-4072-B456-E15DF9A15DA0";
shapes = (
{
closed = 1;
nodes = (
(154,-10,o),
(82,0,o),
(50,55,cs),
(40,70,o),
(31,95,o),
(34,112,cs),
(36,125,o),
(46,135,o),
(62,135,cs),
(73,135,o),
(83,131,o),
(88,119,cs),
(110,65,o),
(155,40,o),
(227,40,cs),
(299,40,o),
(390,65,o),
(405,148,cs),
(413,195,o),
(391,230,o),
(348,241,cs),
(197,280,ls),
(136,296,o),
(88,330,o),
(103,413,cs),
(121,518,o),
(218,560,o),
(319,560,cs),
(409,560,o),
(466,528,o),
(491,472,cs),
(496,461,o),
(498,453,o),
(496,445,cs),
(494,431,o),
(483,425,o),
(470,425,cs),
(460,425,o),
(452,428,o),
(448,437,cs),
(420,494,o),
(369,510,o),
(310,510,cs),
(232,510,o),
(166,482,o),
(154,414,cs),
(145,363,o),
(174,337,o),
(220,325,cs),
(372,285,ls),
(431,270,o),
(470,227,o),
(457,152,cs),
(437,39,o),
(323,-10,o),
(218,-10,cs)
);
}
);
width = 600;
}
);
unicode = 115;
},
{
color = (153, 254, 255, 255);
glyphname = germandbls;
layers = (
{
layerId = "4A85F2CE-8B6A-44D8-848B-BBECCCC83376";
shapes = (
{
closed = 1;
nodes = (
(143,75,ls),
(134,25,o),
(105,0,o),
(55,0,cs),
(5,0,o),
(-16,25,o),
(-7,75,cs),
(71,512,ls),
(95,647,o),
(210,740,o),
(355,740,cs),
(496,740,o),
(581,659,o),
(560,541,cs),
(546,462,o),
(488,398,o),
(418,386,c),
(494,368,o),
(537,295,o),
(521,207,cs),
(499,84,o),
(391,0,o),
(257,0,cs),
(256,0,ls),
(212,0,o),
(194,21,o),
(203,65,cs),
(210,109,o),
(235,130,o),
(279,130,cs),
(282,130,ls),
(313,130,o),
(362,170,o),
(372,228,cs),
(383,286,o),
(355,325,o),
(308,325,cs),
(304,325,ls),
(267,325,o),
(252,343,o),
(259,380,cs),
(265,417,o),
(286,435,o),
(323,435,cs),
(327,435,ls),
(371,435,o),
(400,472,o),
(410,525,cs),
(419,578,o),
(387,615,o),
(333,615,cs),
(277,615,o),
(232,573,o),
(221,512,cs)
);
}
);
width = 600;
},
{
layerId = "A29660E2-EDC3-4773-B175-8F2C31004B34";
shapes = (
{
closed = 1;
nodes = (
(110,45,ls),
(104,15,o),
(87,0,o),
(57,0,cs),
(27,0,o),
(14,15,o),
(20,45,cs),
(107,534,ls),
(128,656,o),
(229,740,o),
(354,740,cs),
(479,740,o),
(551,665,o),
(532,556,cs),
(517,477,o),
(458,408,o),
(385,391,c),
(466,376,o),
(510,300,o),
(492,204,cs),
(471,83,o),
(366,0,o),
(235,0,cs),
(218,0,ls),
(191,0,o),
(180,14,o),
(185,41,cs),
(189,68,o),
(205,82,o),
(232,82,cs),
(239,82,ls),
(321,82,o),
(388,135,o),
(402,212,cs),
(415,289,o),
(372,342,o),
(295,342,cs),
(278,342,ls),
(251,342,o),
(240,355,o),
(245,382,cs),
(250,409,o),
(265,422,o),
(292,422,cs),
(298,422,ls),
(369,422,o),
(427,470,o),
(439,541,cs),
(452,612,o),
(411,660,o),
(340,660,cs),
(268,660,o),
(210,609,o),
(197,534,cs)
);
}
);
width = 600;
},
{
layerId = "18543873-86E0-4072-B456-E15DF9A15DA0";
shapes = (
{
closed = 1;
nodes = (
(84,25,ls),
(82,8,o),
(72,0,o),
(55,0,cs),
(38,0,o),
(32,8,o),
(34,25,cs),
(126,543,ls),
(147,660,o),
(241,740,o),
(358,740,cs),
(474,740,o),
(540,663,o),
(520,550,cs),
(505,468,o),
(444,398,o),
(370,383,c),
(450,367,o),
(494,292,o),
(477,198,cs),
(456,81,o),
(354,0,o),
(227,0,cs),
(208,0,ls),
(193,0,o),
(187,8,o),
(189,23,cs),
(192,38,o),
(201,45,o),
(216,45,cs),
(235,45,ls),
(332,45,o),
(409,109,o),
(426,202,cs),
(443,295,o),
(387,359,o),
(290,359,cs),
(271,359,ls),
(256,359,o),
(250,367,o),
(253,382,cs),
(255,397,o),
(265,404,o),
(280,404,cs),
(299,404,ls),
(385,404,o),
(454,463,o),
(470,550,cs),
(485,636,o),
(437,695,o),
(351,695,cs),
(264,695,o),
(193,633,o),
(176,543,cs)
);
}
);
width = 600;
}
);
unicode = 223;
},
{
color = (153, 254, 255, 255);
glyphname = longs;
layers = (
{
layerId = "4A85F2CE-8B6A-44D8-848B-BBECCCC83376";
shapes = (
{
closed = 1;
nodes = (
(217,65,ls),
(207,15,o),
(178,-10,o),
(128,-10,cs),
(78,-10,o),
(57,15,o),
(67,65,cs),
(149,525,ls),
(170,650,o),
(269,730,o),
(400,730,cs),
(520,730,ls),
(564,730,o),
(581,709,o),
(573,665,cs),
(565,621,o),
(541,600,o),
(497,600,cs),
(387,600,ls),
(342,600,o),
(306,570,o),
(299,525,cs)
);
}
);
width = 600;
},
{
layerId = "A29660E2-EDC3-4773-B175-8F2C31004B34";
shapes = (
{
closed = 1;
nodes = (
(181,35,ls),
(176,5,o),
(158,-10,o),
(128,-10,cs),
(98,-10,o),
(86,5,o),
(91,35,cs),
(186,571,ls),
(204,666,o),
(283,730,o),
(384,730,cs),
(520,730,ls),
(547,730,o),
(557,717,o),
(553,690,cs),
(548,663,o),
(532,650,o),
(505,650,cs),
(369,650,ls),
(322,650,o),
(284,618,o),
(276,570,cs)
);
}
);
width = 600;
},
{
layerId = "18543873-86E0-4072-B456-E15DF9A15DA0";
shapes = (
{
closed = 1;
nodes = (
(152,15,ls),
(150,-2,o),
(140,-10,o),
(123,-10,cs),
(106,-10,o),
(100,-2,o),
(102,15,cs),
(205,595,ls),
(220,678,o),
(283,730,o),
(366,730,cs),
(522,730,ls),
(537,730,o),
(544,723,o),
(540,708,cs),
(538,693,o),
(530,685,o),
(515,685,cs),
(357,685,ls),
(307,685,o),
(265,648,o),
(255,595,cs)
);
}
);
width = 600;
}
);
unicode = 383;
},
{
color = (153, 254, 255, 255);
glyphname = t;
layers = (
{
layerId = "4A85F2CE-8B6A-44D8-848B-BBECCCC83376";
shapes = (
{
closed = 1;
nodes = (
(486,530,ls),
(531,530,o),
(550,508,o),
(542,463,cs),
(534,418,o),
(507,395,o),
(462,395,cs),
(93,395,ls),
(49,395,o),
(31,417,o),
(39,461,cs),
(47,507,o),
(74,530,o),
(120,530,cs)
);
},
{
closed = 1;
nodes = (
(217,630,ls),
(227,680,o),
(255,705,o),
(305,705,cs),
(355,705,o),
(377,680,o),
(367,630,cs),
(279,194,ls),
(272,157,o),
(282,134,o),
(308,134,cs),
(332,134,o),
(353,138,o),
(381,172,cs),
(404,200,o),
(438,199,o),
(463,178,cs),
(492,153,o),
(489,124,o),
(471,97,cs),
(408,0,o),
(342,-9,o),
(257,-9,cs),
(147,-9,o),
(104,63,o),
(125,170,cs)
);
}
);
width = 600;
},
{
layerId = "A29660E2-EDC3-4773-B175-8F2C31004B34";
shapes = (
{
closed = 1;
nodes = (
(493,530,ls),
(520,530,o),
(531,512,o),
(526,485,cs),
(521,458,o),
(505,440,o),
(478,440,cs),
(97,440,ls),
(70,440,o),
(58,458,o),
(63,485,cs),
(68,512,o),
(85,530,o),
(112,530,cs)
);
},
{
closed = 1;
nodes = (
(252,660,ls),
(258,690,o),
(275,705,o),
(305,705,cs),
(335,705,o),
(348,690,o),
(342,660,cs),
(255,224,ls),
(235,123,o),
(237,80,o),
(281,80,cs),
(318,80,o),
(355,103,o),
(383,134,cs),
(406,158,o),
(428,155,o),
(444,141,cs),
(461,127,o),
(463,101,o),
(443,79,cs),
(390,24,o),
(339,-10,o),
(266,-10,cs),
(166,-10,o),
(133,57,o),
(153,161,cs)
);
}
);
width = 600;
},
{
layerId = "18543873-86E0-4072-B456-E15DF9A15DA0";
shapes = (
{
closed = 1;
nodes = (
(496,530,ls),
(511,530,o),
(518,520,o),
(514,505,cs),
(512,490,o),
(502,480,o),
(487,480,cs),
(100,480,ls),
(85,480,o),
(79,490,o),
(81,505,cs),
(85,520,o),
(94,530,o),
(109,530,cs)
);
},
{
closed = 1;
nodes = (
(276,680,l),
(279,697,o),
(288,705,o),
(305,705,cs),
(322,705,o),
(330,697,o),
(326,680,cs),
(231,196,ls),
(207,71,o),
(228,40,o),
(277,40,cs),
(312,40,o),
(353,71,o),
(389,112,cs),
(400,124,o),
(415,124,o),
(424,118,cs),
(434,111,o),
(438,92,o),
(427,81,cs),
(373,23,o),
(333,-10,o),
(260,-10,cs),
(178,-10,o),
(156,60,o),
(174,155,cs)
);
}
);
width = 600;
}
);
unicode = 116;
},
{
color = (153, 254, 255, 255);
glyphname = u;
layers = (
{
layerId = "4A85F2CE-8B6A-44D8-848B-BBECCCC83376";
shapes = (
{
closed = 1;
nodes = (
(349,235,ls),
(339,177,o),
(292,130,o),
(230,130,cs),
(175,130,o),
(164,179,o),
(172,225,cs),
(218,485,ls),
(226,535,o),
(206,560,o),
(156,560,cs),
(106,560,o),
(76,535,o),
(68,485,cs),
(16,195,ls),
(-4,81,o),
(51,-10,o),
(179,-10,cs),
(243,-10,o),
(297,30,o),
(331,100,c),
(324,63,ls),
(315,14,o),
(342,-10,o),
(387,-10,cs),
(432,-10,o),
(460,14,o),
(469,63,cs),
(544,485,ls),
(552,535,o),
(532,560,o),
(482,560,cs),
(432,560,o),
(402,535,o),
(394,485,cs)
);
}
);
width = 600;
},
{
layerId = "A29660E2-EDC3-4773-B175-8F2C31004B34";
shapes = (
{
closed = 1;
nodes = (
(376,234,ls),
(365,170,o),
(298,75,o),
(226,75,cs),
(155,75,o),
(129,137,o),
(141,206,cs),
(196,515,ls),
(201,545,o),
(189,560,o),
(159,560,cs),
(129,560,o),
(111,545,o),
(106,515,cs),
(47,180,ls),
(27,66,o),
(90,-10,o),
(196,-10,cs),
(269,-10,o),
(321,31,o),
(352,94,c),
(341,35,ls),
(336,5,o),
(348,-10,o),
(378,-10,cs),
(408,-10,o),
(426,5,o),
(431,35,cs),
(516,515,ls),
(521,545,o),
(509,560,o),
(479,560,cs),
(449,560,o),
(431,545,o),
(426,515,cs)
);
}
);
width = 600;
},
{
layerId = "18543873-86E0-4072-B456-E15DF9A15DA0";
shapes = (
{
closed = 1;
nodes = (
(389,195,ls),
(377,125,o),
(293,38,o),
(219,38,cs),
(136,38,o),
(105,112,o),
(119,195,cs),
(179,535,ls),
(182,552,o),
(176,560,o),
(159,560,cs),
(142,560,o),
(132,552,o),
(129,535,cs),
(67,183,ls),
(48,74,o),
(95,-10,o),
(203,-10,cs),
(276,-10,o),
(333,29,o),
(373,101,c),
(358,15,ls),
(355,-2,o),
(361,-10,o),
(378,-10,cs),
(395,-10,o),
(405,-2,o),
(408,15,cs),
(499,535,ls),
(502,552,o),
(496,560,o),
(479,560,cs),
(462,560,o),
(452,552,o),
(449,535,cs)
);
}
);
width = 600;
}
);
unicode = 117;
},
{
color = (153, 254, 255, 255);
glyphname = v;
layers = (
{
layerId = "4A85F2CE-8B6A-44D8-848B-BBECCCC83376";
shapes = (
{
closed = 1;
nodes = (
(61,482,ls),
(52,532,o),
(101,560,o),
(135,560,cs),
(171,560,o),
(192,540,o),
(198,508,cs),
(244,243,ls),
(248,220,o),
(267,222,o),
(282,243,cs),
(338,320,o),
(386,411,o),
(422,508,cs),
(434,542,o),
(467,560,o),
(503,560,cs),
(537,560,o),
(572,535,o),
(549,482,cs),
(485,333,o),
(409,191,o),
(325,62,cs),
(296,17,o),
(268,-10,o),
(218,-10,cs),
(168,-10,o),
(146,15,o),
(137,62,cs)
);
}
);
width = 600;
},
{
layerId = "A29660E2-EDC3-4773-B175-8F2C31004B34";
shapes = (
{
closed = 1;
nodes = (
(84,508,ls),
(79,534,o),
(102,560,o),
(133,560,cs),
(157,560,o),
(173,548,o),
(177,525,cs),
(240,171,ls),
(243,157,o),
(254,159,o),
(262,171,cs),
(332,273,o),
(399,403,o),
(449,525,cs),
(459,549,o),
(481,560,o),
(505,560,cs),
(536,560,o),
(547,534,o),
(536,508,cs),
(467,343,o),
(381,183,o),
(290,38,cs),
(271,8,o),
(252,-10,o),
(218,-10,cs),
(185,-10,o),
(169,6,o),
(164,38,cs)
);
}
);
width = 600;
},
{
layerId = "18543873-86E0-4072-B456-E15DF9A15DA0";
shapes = (
{
closed = 1;
nodes = (
(102,531,ls),
(99,547,o),
(119,560,o),
(129,560,cs),
(142,560,o),
(154,554,o),
(155,541,cs),
(228,100,ls),
(231,83,o),
(238,83,o),
(248,100,cs),
(333,236,o),
(410,385,o),
(475,541,cs),
(481,554,o),
(496,560,o),
(509,560,cs),
(519,560,o),
(533,547,o),
(526,531,cs),
(449,352,o),
(358,178,o),
(261,19,cs),
(250,0,o),
(238,-10,o),
(218,-10,cs),
(198,-10,o),
(189,0,o),
(185,19,cs)
);
}
);
width = 600;
}
);
unicode = 118;
},
{
color = (153, 254, 255, 255);
glyphname = w;
layers = (
{
anchors = (
{
name = bottom;
position = "{220, 0}";
},
{
name = top;
position = "{318, 550}";
}
);
layerId = "4A85F2CE-8B6A-44D8-848B-BBECCCC83376";
shapes = (
{
closed = 1;
nodes = (
(35,0,o),
(9,27,o),
(10,80,cs),
(20,481,ls),
(22,527,o),
(45,550,o),
(92,550,cs),
(129,550,o),
(147,532,o),
(146,495,cs),
(136,215,ls),
(135,198,o),
(139,199,o),
(145,215,cs),
(210,385,ls),
(226,428,o),
(256,450,o),
(300,450,cs),
(344,450,o),
(366,428,o),
(368,385,cs),
(371,215,ls),
(371,199,o),
(372,199,o),
(380,215,cs),
(430,307,o),
(460,403,o),
(470,495,cs),
(473,534,o),
(507,550,o),
(544,550,cs),
(591,550,o),
(599,529,o),
(590,481,cs),
(566,348,o),
(522,212,o),
(457,79,cs),
(433,29,o),
(405,0,o),
(351,0,cs),
(297,0,o),
(271,26,o),
(269,78,cs),
(264,221,ls),
(264,237,o),
(260,237,o),
(254,221,cs),
(199,79,ls),
(179,26,o),
(143,0,o),
(89,0,cs)
);
}
);
width = 600;
},
{
anchors = (
{
name = bottom;
position = "{220, 0}";
},
{
name = top;
position = "{318, 550}";
}
);
layerId = "A29660E2-EDC3-4773-B175-8F2C31004B34";
shapes = (
{
closed = 1;
nodes = (
(59,0,o),
(40,19,o),
(41,57,cs),
(47,501,ls),
(48,534,o),
(64,550,o),
(98,550,cs),
(125,550,o),
(137,537,o),
(137,510,cs),
(122,140,ls),
(122,127,o),
(124,127,o),
(129,140,cs),
(228,391,ls),
(241,424,o),
(264,440,o),
(298,440,cs),
(332,440,o),
(349,424,o),
(350,391,cs),
(361,140,ls),
(362,127,o),
(362,127,o),
(368,140,cs),
(427,262,o),
(466,388,o),
(485,510,cs),
(488,537,o),
(511,550,o),
(538,550,cs),
(572,550,o),
(578,534,o),
(571,501,cs),
(541,354,o),
(489,204,o),
(419,57,cs),
(402,21,o),
(382,0,o),
(343,0,cs),
(304,0,o),
(284,18,o),
(283,56,cs),
(276,290,ls),
(275,303,o),
(273,303,o),
(268,290,cs),
(177,56,ls),
(162,18,o),
(137,0,o),
(98,0,cs)
);
}
);
width = 600;
},
{
anchors = (
{
name = bottom;
position = "{220, 0}";
},
{
name = top;
position = "{435, 550}";
}
);
layerId = "18543873-86E0-4072-B456-E15DF9A15DA0";
shapes = (
{
closed = 1;
nodes = (
(75,0,o),
(63,11,o),
(63,35,cs),
(67,520,ls),
(68,540,o),
(79,550,o),
(99,550,cs),
(115,550,o),
(122,542,o),
(122,526,cs),
(113,85,ls),
(113,75,o),
(115,75,o),
(119,85,cs),
(254,401,ls),
(263,420,o),
(276,430,o),
(296,430,cs),
(316,430,o),
(327,420,o),
(328,401,cs),
(351,85,ls),
(351,75,o),
(352,75,o),
(357,85,cs),
(426,231,o),
(476,380,o),
(504,526,cs),
(507,542,o),
(521,550,o),
(537,550,cs),
(557,550,o),
(562,540,o),
(557,520,cs),
(522,360,o),
(464,195,o),
(388,35,cs),
(377,12,o),
(365,0,o),
(341,0,cs),
(317,0,o),
(304,11,o),
(302,34,cs),
(282,325,ls),
(282,335,o),
(278,335,o),
(274,325,cs),
(150,35,ls),
(140,12,o),
(123,0,o),
(99,0,cs)
);
}
);
width = 600;
}
);
unicode = 119;
},
{
color = (153, 254, 255, 255);
glyphname = x;
layers = (
{
layerId = "4A85F2CE-8B6A-44D8-848B-BBECCCC83376";
shapes = (
{
closed = 1;
nodes = (
(157,36,ls),
(131,6,o),
(101,-10,o),
(65,-10,cs),
(20,-10,o),
(-22,22,o),
(31,84,cs),
(397,512,ls),
(423,543,o),
(452,560,o),
(489,560,cs),
(534,560,o),
(577,528,o),
(524,466,cs)
);
},
{
closed = 1;
nodes = (
(129,376,o),
(99,376,o),
(82,387,cs),
(55,404,o),
(43,432,o),
(58,469,cs),
(83,531,o),
(125,560,o),
(203,560,cs),
(265,560,o),
(307,538,o),
(320,467,cs),
(376,150,ls),
(379,133,o),
(385,122,o),
(402,122,cs),
(419,122,o),
(434,135,o),
(444,156,cs),
(453,174,o),
(484,174,o),
(501,163,cs),
(528,146,o),
(540,118,o),
(525,81,cs),
(500,19,o),
(458,-10,o),
(380,-10,cs),
(318,-10,o),
(276,12,o),
(263,83,cs),
(207,400,ls),
(204,417,o),
(198,428,o),
(181,428,cs),
(161,428,o),
(151,417,o),
(139,394,cs)
);
}
);
width = 600;
},
{
layerId = "A29660E2-EDC3-4773-B175-8F2C31004B34";
shapes = (
{
closed = 1;
nodes = (
(108,20,ls),
(92,1,o),
(73,-10,o),
(49,-10,cs),
(22,-10,o),
(-5,11,o),
(27,49,cs),
(437,530,ls),
(454,550,o),
(473,560,o),
(497,560,cs),
(525,560,o),
(553,540,o),
(519,500,cs)
);
},
{
closed = 1;
nodes = (
(141,412,o),
(127,407,o),
(101,413,cs),
(84,417,o),
(69,432,o),
(75,455,cs),
(93,524,o),
(137,560,o),
(213,560,cs),
(274,560,o),
(301,527,o),
(311,457,cs),
(359,115,ls),
(363,90,o),
(377,80,o),
(395,80,cs),
(411,80,o),
(425,90,o),
(438,105,cs),
(456,125,o),
(472,128,o),
(490,117,cs),
(510,105,o),
(515,88,o),
(508,72,cs),
(485,20,o),
(439,-10,o),
(387,-10,cs),
(325,-10,o),
(288,22,o),
(278,93,cs),
(230,435,ls),
(226,462,o),
(215,474,o),
(197,474,cs),
(181,474,o),
(169,463,o),
(157,441,cs)
);
}
);
width = 600;
},
{
layerId = "18543873-86E0-4072-B456-E15DF9A15DA0";
shapes = (
{
closed = 1;
nodes = (
(80,5,ls),
(71,-5,o),
(55,-10,o),
(42,-10,cs),
(26,-10,o),
(6,0,o),
(25,22,cs),
(464,543,ls),
(474,554,o),
(490,560,o),
(503,560,cs),
(520,560,o),
(540,550,o),
(521,528,cs)
);
},
{
closed = 1;
nodes = (
(135,456,o),
(122,454,o),
(110,458,cs),
(99,462,o),
(95,475,o),
(99,484,cs),
(117,530,o),
(140,560,o),
(203,560,cs),
(256,560,o),
(275,537,o),
(285,477,cs),
(355,75,ls),
(359,50,o),
(377,40,o),
(397,40,cs),
(422,40,o),
(436,52,o),
(448,81,cs),
(453,94,o),
(466,96,o),
(478,92,cs),
(489,88,o),
(493,75,o),
(489,66,cs),
(471,20,o),
(439,-10,o),
(395,-10,cs),
(341,-10,o),
(313,13,o),
(303,73,cs),
(233,475,ls),
(229,499,o),
(215,510,o),
(195,510,cs),
(170,510,o),
(151,497,o),
(140,469,cs)
);
}
);
width = 600;
}
);
unicode = 120;
},
{
color = (153, 254, 255, 255);
glyphname = y;
layers = (
{
layerId = "4A85F2CE-8B6A-44D8-848B-BBECCCC83376";
shapes = (
{
closed = 1;
nodes = (
(477,63,ls),
(444,-119,o),
(351,-270,o),
(148,-270,cs),
(69,-270,o),
(3,-241,o),
(-39,-181,cs),
(-49,-167,o),
(-53,-148,o),
(-50,-130,cs),
(-44,-93,o),
(-2,-53,o),
(40,-53,cs),
(53,-53,o),
(66,-57,o),
(75,-67,cs),
(102,-98,o),
(139,-135,o),
(189,-135,cs),
(274,-135,o),
(318,-4,o),
(332,63,cs),
(339,97,l),
(330,81,o),
(284,20,o),
(179,20,cs),
(60,20,o),
(-6,101,o),
(16,225,cs),
(62,485,ls),
(71,535,o),
(100,560,o),
(150,560,cs),
(200,560,o),
(221,535,o),
(212,485,cs),
(171,250,ls),
(163,204,o),
(181,155,o),
(236,155,cs),
(295,155,o),
(355,211,o),
(365,270,cs),
(402,485,ls),
(411,535,o),
(440,560,o),
(490,560,cs),
(540,560,o),
(561,535,o),
(552,485,cs)
);
}
);
width = 600;
},
{
layerId = "A29660E2-EDC3-4773-B175-8F2C31004B34";
shapes = (
{
closed = 1;
nodes = (
(424,-33,ls),
(403,-152,o),
(290,-240,o),
(179,-240,cs),
(76,-240,o),
(29,-198,o),
(0,-152,cs),
(-8,-140,o),
(-11,-132,o),
(-10,-120,cs),
(-6,-98,o),
(17,-64,o),
(47,-64,cs),
(62,-64,o),
(70,-71,o),
(77,-80,cs),
(97,-106,o),
(142,-150,o),
(192,-150,cs),
(246,-150,o),
(321,-111,o),
(332,-47,cs),
(362,122,l),
(325,65,o),
(263,40,o),
(200,40,cs),
(86,40,o),
(34,115,o),
(54,230,cs),
(103,515,ls),
(108,545,o),
(126,560,o),
(156,560,cs),
(186,560,o),
(198,545,o),
(193,515,cs),
(149,256,ls),
(137,187,o),
(160,130,o),
(236,130,cs),
(317,130,o),
(376,195,o),
(389,270,cs),
(431,515,ls),
(436,545,o),
(454,560,o),
(484,560,cs),
(514,560,o),
(527,545,o),
(521,515,cs)
);
}
);
width = 600;
},
{
layerId = "18543873-86E0-4072-B456-E15DF9A15DA0";
shapes = (
{
closed = 1;
nodes = (
(400,-64,ls),
(382,-167,o),
(274,-220,o),
(188,-220,cs),
(92,-220,o),
(49,-189,o),
(19,-153,cs),
(12,-144,o),
(10,-137,o),
(12,-124,cs),
(15,-107,o),
(26,-95,o),
(41,-95,cs),
(53,-95,o),
(59,-101,o),
(64,-108,cs),
(76,-123,o),
(128,-170,o),
(190,-170,cs),
(248,-170,o),
(338,-135,o),
(350,-68,cs),
(387,137,l),
(349,87,o),
(286,60,o),
(211,60,cs),
(103,60,o),
(57,143,o),
(76,253,cs),
(125,535,ls),
(128,552,o),
(137,560,o),
(154,560,cs),
(171,560,o),
(178,552,o),
(175,535,cs),
(127,265,ls),
(112,182,o),
(142,110,o),
(233,110,cs),
(327,110,o),
(397,187,o),
(412,275,cs),
(457,535,ls),
(460,552,o),
(469,560,o),
(486,560,cs),
(503,560,o),
(510,552,o),
(507,535,cs)
);
}
);
width = 600;
}
);
unicode = 121;
},
{
color = (153, 254, 255, 255);
glyphname = z;
layers = (
{
layerId = "4A85F2CE-8B6A-44D8-848B-BBECCCC83376";
shapes = (
{
closed = 1;
nodes = (
(77,0,ls),
(19,0,o),
(-5,29,o),
(5,84,cs),
(10,116,o),
(25,141,o),
(49,162,cs),
(286,371,ls),
(300,383,o),
(307,392,o),
(308,399,cs),
(310,409,o),
(299,415,o),
(275,415,cs),
(138,415,ls),
(94,415,o),
(77,438,o),
(85,482,cs),
(93,526,o),
(118,550,o),
(162,550,cs),
(449,550,ls),
(507,550,o),
(531,521,o),
(521,466,cs),
(516,434,o),
(501,409,o),
(477,388,cs),
(240,179,ls),
(226,167,o),
(219,158,o),
(218,151,cs),
(216,141,o),
(227,135,o),
(251,135,cs),
(409,135,ls),
(453,135,o),
(470,112,o),
(462,68,cs),
(454,24,o),
(429,0,o),
(385,0,cs)
);
}
);
width = 600;
},
{
layerId = "A29660E2-EDC3-4773-B175-8F2C31004B34";
shapes = (
{
closed = 1;
nodes = (
(70,0,ls),
(30,0,o),
(14,20,o),
(20,59,cs),
(24,80,o),
(33,97,o),
(49,113,cs),
(369,429,ls),
(377,437,o),
(381,443,o),
(382,448,cs),
(383,456,o),
(376,460,o),
(359,460,cs),
(143,460,ls),
(116,460,o),
(102,478,o),
(107,505,cs),
(112,532,o),
(132,550,o),
(159,550,cs),
(456,550,ls),
(496,550,o),
(512,530,o),
(506,491,cs),
(502,470,o),
(493,452,o),
(477,437,cs),
(152,121,ls),
(144,113,o),
(140,106,o),
(139,101,cs),
(138,94,o),
(145,90,o),
(161,90,cs),
(402,90,ls),
(429,90,o),
(443,72,o),
(438,45,cs),
(433,18,o),
(413,0,o),
(386,0,cs)
);
}
);
width = 600;
},
{
layerId = "18543873-86E0-4072-B456-E15DF9A15DA0";
shapes = (
{
closed = 1;
nodes = (
(54,0,ls),
(33,0,o),
(25,10,o),
(28,31,cs),
(30,41,o),
(35,51,o),
(42,59,cs),
(414,475,ls),
(419,480,o),
(422,485,o),
(422,489,cs),
(423,496,o),
(417,500,o),
(405,500,cs),
(145,500,ls),
(130,500,o),
(122,510,o),
(125,525,cs),
(127,540,o),
(138,550,o),
(153,550,cs),
(470,550,ls),
(491,550,o),
(499,540,o),
(496,519,cs),
(494,509,o),
(489,499,o),
(481,490,cs),
(109,74,ls),
(104,68,o),
(101,64,o),
(101,60,cs),
(99,53,o),
(106,50,o),
(118,50,cs),
(401,50,ls),
(416,50,o),
(424,40,o),
(421,25,cs),
(419,10,o),
(407,0,o),
(392,0,cs)
);
}
);
width = 600;
}
);
unicode = 122;
},
{
color = (153, 254, 255, 255);
glyphname = ordfeminine;
layers = (
{
layerId = "4A85F2CE-8B6A-44D8-848B-BBECCCC83376";
shapes = (
{
closed = 1;
nodes = (
(361,473,o),
(310,452,o),
(275,452,cs),
(184,452,o),
(186,526,o),
(195,576,cs),
(206,639,o),
(258,742,o),
(367,742,cs),
(391,742,o),
(405,740,o),
(418,724,c),
(429,740,o),
(441,742,o),
(454,742,cs),
(478,742,o),
(483,726,o),
(480,713,cs),
(477,695,o),
(472,684,o),
(469,673,cs),
(452,619,o),
(438,552,o),
(450,500,cs),
(451,493,o),
(451,484,o),
(450,476,cs),
(448,462,o),
(432,452,o),
(413,452,cs),
(395,452,o),
(386,458,o),
(383,467,cs),
(380,473,o),
(380,495,o),
(380,509,c)
);
},
{
closed = 1;
nodes = (
(323,527,o),
(339,543,o),
(352,566,cs),
(364,588,o),
(372,613,o),
(374,628,cs),
(378,648,o),
(377,668,o),
(351,668,cs),
(314,668,o),
(286,610,o),
(281,581,cs),
(277,562,o),
(273,527,o),
(299,527,cs)
);
}
);
width = 600;
},
{
layerId = "A29660E2-EDC3-4773-B175-8F2C31004B34";
shapes = (
{
closed = 1;
nodes = (
(367,470,o),
(326,446,o),
(276,446,cs),
(197,446,o),
(194,517,o),
(204,570,cs),
(216,637,o),
(278,745,o),
(372,745,cs),
(388,745,o),
(408,739,o),
(421,728,c),
(427,742,o),
(440,745,o),
(454,745,cs),
(474,745,o),
(482,732,o),
(479,715,cs),
(476,696,o),
(472,688,o),
(468,679,cs),
(455,633,o),
(431,535,o),
(446,496,cs),
(449,489,o),
(449,481,o),
(448,473,cs),
(444,453,o),
(427,446,o),
(411,446,cs),
(394,446,o),
(389,452,o),
(386,465,cs),
(383,476,o),
(383,496,o),
(382,504,c)
);
},
{
closed = 1;
nodes = (
(325,510,o),
(358,538,o),
(372,567,cs),
(383,586,o),
(390,607,o),
(393,628,cs),
(399,660,o),
(389,681,o),
(357,681,cs),
(315,681,o),
(276,616,o),
(269,574,cs),
(264,548,o),
(260,510,o),
(295,510,cs)
);
}
);
width = 600;
},
{
layerId = "18543873-86E0-4072-B456-E15DF9A15DA0";
shapes = (
{
closed = 1;
nodes = (
(364,474,o),
(307,446,o),
(273,446,cs),
(197,446,o),
(201,518,o),
(210,568,cs),
(223,640,o),
(278,746,o),
(373,746,cs),
(389,746,o),
(411,742,o),
(423,728,c),
(427,736,o),
(435,746,o),
(450,746,cs),
(464,746,o),
(470,734,o),
(468,722,cs),
(466,712,o),
(462,702,o),
(459,694,cs),
(441,642,o),
(411,535,o),
(429,487,cs),
(432,480,o),
(434,476,o),
(433,468,cs),
(430,454,o),
(421,446,o),
(407,446,cs),
(395,446,o),
(389,454,o),
(386,462,cs),
(383,472,o),
(380,495,o),
(379,508,c)
);
},
{
closed = 1;
nodes = (
(320,491,o),
(365,540,o),
(381,574,cs),
(388,592,o),
(394,610,o),
(397,629,cs),
(405,669,o),
(400,701,o),
(361,701,cs),
(310,701,o),
(263,619,o),
(255,569,cs),
(249,536,o),
(243,491,o),
(288,491,cs)
);
}
);
width = 600;
}
);
unicode = 170;
},
{
color = (153, 254, 255, 255);
glyphname = ordmasculine;
layers = (
{
layerId = "4A85F2CE-8B6A-44D8-848B-BBECCCC83376";
shapes = (
{
closed = 1;
nodes = (
(342,490,o),
(360,535,o),
(368,580,cs),
(376,625,o),
(374,670,o),
(339,670,cs),
(305,670,o),
(286,625,o),
(278,580,cs),
(270,535,o),
(272,490,o),
(307,490,cs)
);
},
{
closed = 1;
nodes = (
(200,420,o),
(180,500,o),
(194,580,cs),
(208,659,o),
(257,740,o),
(351,740,cs),
(447,740,o),
(468,660,o),
(454,580,cs),
(440,500,o),
(389,420,o),
(294,420,cs)
);
}
);
width = 600;
},
{
layerId = "A29660E2-EDC3-4773-B175-8F2C31004B34";
shapes = (
{
closed = 1;
nodes = (
(354,506,o),
(374,550,o),
(380,590,cs),
(388,630,o),
(385,675,o),
(340,675,cs),
(299,675,o),
(277,630,o),
(269,590,cs),
(263,550,o),
(269,506,o),
(310,506,cs)
);
},
{
closed = 1;
nodes = (
(208,440,o),
(193,520,o),
(205,590,cs),
(218,660,o),
(261,740,o),
(352,740,cs),
(448,740,o),
(458,660,o),
(445,590,cs),
(433,520,o),
(394,440,o),
(299,440,cs)
);
}
);
width = 600;
},
{
layerId = "18543873-86E0-4072-B456-E15DF9A15DA0";
shapes = (
{
closed = 1;
nodes = (
(359,500,o),
(382,550,o),
(391,600,cs),
(400,652,o),
(394,700,o),
(345,700,cs),
(294,700,o),
(270,650,o),
(261,600,cs),
(253,550,o),
(259,500,o),
(309,500,cs)
);
},
{
closed = 1;
nodes = (
(217,460,o),
(205,536,o),
(217,600,cs),
(229,665,o),
(266,740,o),
(351,740,cs),
(436,740,o),
(449,667,o),
(437,600,cs),
(425,535,o),
(387,460,o),
(302,460,cs)
);
}
);
width = 600;
}
);
unicode = 186;
},
{
color = (153, 254, 255, 255);
glyphname = "Be-cy";
layers = (
{
layerId = "4A85F2CE-8B6A-44D8-848B-BBECCCC83376";
shapes = (
{
closed = 1;
nodes = (
(86,0,ls),
(19,0,o),
(-8,33,o),
(4,100,cs),
(98,630,ls),
(110,697,o),
(149,730,o),
(216,730,cs),
(510,730,ls),
(555,730,o),
(573,708,o),
(566,663,cs),
(557,618,o),
(530,595,o),
(485,595,cs),
(286,595,ls),
(252,595,o),
(234,578,o),
(228,545,cs),
(215,476,ls),
(213,459,o),
(219,451,o),
(236,451,cs),
(309,451,ls),
(385,451,o),
(487,396,o),
(533,296,o),
(520,228,qs),
(508,162,o),
(428,59,o),
(305,0,o),
(230,0,qs)
);
},
{
closed = 1;
nodes = (
(163,180,ls),
(157,147,o),
(171,130,o),
(204,130,cs),
(253,130,ls),
(299,130,o),
(363,184,o),
(370,228,qs),
(378,273,o),
(334,326,o),
(288,326,qs),
(214,326,ls),
(197,326,o),
(188,318,o),
(184,301,cs)
);
}
);
width = 600;
},
{
layerId = "A29660E2-EDC3-4773-B175-8F2C31004B34";
shapes = (
{
closed = 1;
nodes = (
(94,0,ls),
(40,0,o),
(19,26,o),
(28,80,cs),
(129,650,ls),
(139,704,o),
(170,730,o),
(224,730,cs),
(509,730,ls),
(536,730,o),
(547,716,o),
(542,689,cs),
(538,662,o),
(521,648,o),
(494,648,cs),
(259,648,ls),
(232,648,o),
(217,635,o),
(212,608,cs),
(184,452,ls),
(182,439,o),
(188,432,o),
(201,432,cs),
(302,432,ls),
(372,432,o),
(462,378,o),
(500,281,o),
(488,216,qs),
(477,151,o),
(404,54,o),
(295,0,o),
(225,0,qs)
);
},
{
closed = 1;
nodes = (
(126,122,ls),
(121,95,o),
(131,82,o),
(158,82,cs),
(239,82,ls),
(301,82,o),
(385,155,o),
(395,216,qs),
(406,278,o),
(349,350,o),
(287,350,qs),
(186,350,ls),
(173,350,o),
(165,343,o),
(162,330,cs)
);
}
);
width = 600;
},
{
layerId = "18543873-86E0-4072-B456-E15DF9A15DA0";
shapes = (
{
closed = 1;
nodes = (
(90,0,ls),
(50,0,o),
(33,20,o),
(41,60,cs),
(149,670,ls),
(156,710,o),
(180,730,o),
(220,730,cs),
(513,730,ls),
(528,730,o),
(535,723,o),
(531,708,cs),
(529,693,o),
(520,685,o),
(505,685,cs),
(232,685,ls),
(212,685,o),
(199,675,o),
(196,655,cs),
(157,435,ls),
(155,425,o),
(159,420,o),
(169,420,cs),
(300,420,ls),
(363,420,o),
(448,367,o),
(484,273,o),
(474,210,qs),
(462,148,o),
(392,53,o),
(289,0,o),
(226,0,qs)
);
},
{
closed = 1;
nodes = (
(93,75,ls),
(90,55,o),
(98,45,o),
(118,45,cs),
(234,45,ls),
(305,45,o),
(410,137,o),
(424,210,qs),
(436,284,o),
(364,375,o),
(293,375,qs),
(162,375,ls),
(152,375,o),
(146,370,o),
(144,360,cs)
);
}
);
width = 600;
}
);
unicode = 1041;
},
{
color = (153, 254, 255, 255);
glyphname = "Ge-cy";
layers = (
{
layerId = "4A85F2CE-8B6A-44D8-848B-BBECCCC83376";
shapes = (
{
closed = 1;
nodes = (
(58,-10,o),
(37,15,o),
(47,65,cs),
(147,630,ls),
(159,697,o),
(198,730,o),
(265,730,cs),
(542,730,ls),
(587,730,o),
(606,708,o),
(598,663,cs),
(589,618,o),
(563,595,o),
(518,595,cs),
(340,595,ls),
(307,595,o),
(288,579,o),
(282,545,cs),
(197,65,ls),
(187,15,o),
(158,-10,o),
(108,-10,cs)
);
}
);
width = 600;
},
{
anchors = (
{
name = m.uni0308;
position = "{370, 730}";
}
);
layerId = "A29660E2-EDC3-4773-B175-8F2C31004B34";
shapes = (
{
closed = 1;
nodes = (
(63,-10,o),
(51,5,o),
(56,35,cs),
(165,650,ls),
(175,704,o),
(206,730,o),
(260,730,cs),
(564,730,ls),
(591,730,o),
(602,716,o),
(597,689,cs),
(593,662,o),
(576,648,o),
(549,648,cs),
(295,648,ls),
(268,648,o),
(253,635,o),
(248,608,cs),
(146,35,ls),
(141,5,o),
(123,-10,o),
(93,-10,cs)
);
}
);
width = 600;
},
{
layerId = "18543873-86E0-4072-B456-E15DF9A15DA0";
shapes = (
{
closed = 1;
nodes = (
(66,-10,o),
(60,-2,o),
(62,15,cs),
(179,670,ls),
(186,710,o),
(210,730,o),
(250,730,cs),
(572,730,ls),
(587,730,o),
(594,723,o),
(591,708,cs),
(588,693,o),
(579,685,o),
(564,685,cs),
(262,685,ls),
(242,685,o),
(230,675,o),
(226,655,cs),
(112,15,ls),
(110,-2,o),
(100,-10,o),
(83,-10,cs)
);
}
);
width = 600;
}
);
unicode = 1043;
},
{
color = (153, 254, 255, 255);
glyphname = "Gheupturn-cy";
layers = (
{
layerId = "4A85F2CE-8B6A-44D8-848B-BBECCCC83376";
shapes = (
{
closed = 1;
nodes = (
(58,-10,o),
(37,15,o),
(47,65,cs),
(147,630,ls),
(159,697,o),
(198,730,o),
(265,730,cs),
(438,730,ls),
(456,730,o),
(466,739,o),
(470,757,cs),
(470,758,ls),
(478,803,o),
(503,825,o),
(548,825,cs),
(601,825,o),
(622,800,o),
(613,747,cs),
(603,690,ls),
(590,623,o),
(551,590,o),
(484,590,cs),
(339,590,ls),
(306,590,o),
(287,574,o),
(281,540,cs),
(197,65,ls),
(187,15,o),
(158,-10,o),
(108,-10,cs)
);
}
);
width = 600;
},
{
layerId = "A29660E2-EDC3-4773-B175-8F2C31004B34";
shapes = (
{
closed = 1;
nodes = (
(63,-10,o),
(51,5,o),
(56,35,cs),
(165,650,ls),
(175,704,o),
(206,730,o),
(260,730,cs),
(488,730,ls),
(509,730,o),
(522,741,o),
(525,762,cs),
(530,787,ls),
(535,812,o),
(549,825,o),
(574,825,cs),
(606,825,o),
(619,810,o),
(613,778,cs),
(605,728,ls),
(594,674,o),
(564,648,o),
(510,648,cs),
(295,648,ls),
(268,648,o),
(253,635,o),
(248,608,cs),
(146,35,ls),
(141,5,o),
(123,-10,o),
(93,-10,cs)
);
}
);
width = 600;
},
{
layerId = "18543873-86E0-4072-B456-E15DF9A15DA0";
shapes = (
{
closed = 1;
nodes = (
(66,-10,o),
(60,-2,o),
(62,15,cs),
(179,670,ls),
(186,710,o),
(210,730,o),
(250,730,cs),
(515,730,ls),
(535,730,o),
(546,740,o),
(550,760,cs),
(557,800,ls),
(560,817,o),
(569,825,o),
(586,825,cs),
(603,825,o),
(610,817,o),
(607,800,cs),
(597,745,ls),
(590,705,o),
(567,685,o),
(527,685,cs),
(262,685,ls),
(242,685,o),
(229,675,o),
(226,655,cs),
(112,15,ls),
(110,-2,o),
(100,-10,o),
(83,-10,cs)
);
}
);
width = 600;
}
);
unicode = 1168;
},
{
color = (153, 254, 255, 255);
glyphname = "De-cy";
layers = (
{
layerId = "4A85F2CE-8B6A-44D8-848B-BBECCCC83376";
shapes = (
{
closed = 1;
nodes = (
(-41,96,ls),
(-38,115,o),
(-25,125,o),
(-6,125,cs),
(-1,125,o),
(3,127,o),
(5,131,cs),
(18,148,o),
(33,175,qs),
(52,207,o),
(79,292,o),
(87,340,qs),
(143,630,ls),
(156,697,o),
(196,730,o),
(263,730,cs),
(468,730,ls),
(535,730,o),
(562,697,o),
(550,630,cs),
(462,137,ls),
(460,129,o),
(465,125,o),
(473,125,cs),
(505,125,o),
(517,109,o),
(511,77,cs),
(485,-70,ls),
(477,-117,o),
(450,-140,o),
(403,-140,cs),
(356,-140,o),
(337,-117,o),
(345,-70,cs),
(349,-50,ls),
(355,-17,o),
(342,0,o),
(308,0,cs),
(132,0,ls),
(98,0,o),
(79,-17,o),
(73,-50,cs),
(69,-70,ls),
(61,-117,o),
(34,-140,o),
(-13,-140,cs),
(-60,-140,o),
(-79,-117,o),
(-71,-70,cs)
);
},
{
closed = 1;
nodes = (
(152,132,o),
(157,125,o),
(173,125,cs),
(296,125,ls),
(313,125,o),
(321,133,o),
(325,150,cs),
(397,555,ls),
(402,589,o),
(390,605,o),
(356,605,cs),
(329,605,ls),
(295,605,o),
(275,588,o),
(269,555,cs),
(227,341,ls),
(220,295,o),
(195,210,o),
(178,177,qs),
(169,161,o),
(161,148,qs)
);
}
);
width = 600;
},
{
layerId = "A29660E2-EDC3-4773-B175-8F2C31004B34";
shapes = (
{
closed = 1;
nodes = (
(-47,41,ls),
(-43,65,o),
(-30,77,o),
(-6,77,cs),
(0,77,o),
(5,80,o),
(9,85,cs),
(21,103,o),
(36,131,qs),
(54,165,o),
(87,251,o),
(97,298,qs),
(165,650,ls),
(176,704,o),
(207,730,o),
(261,730,cs),
(475,730,ls),
(529,730,o),
(550,704,o),
(540,650,cs),
(441,91,ls),
(439,82,o),
(443,77,o),
(452,77,cs),
(490,77,o),
(506,59,o),
(498,21,cs),
(477,-100,ls),
(472,-127,o),
(457,-140,o),
(430,-140,cs),
(403,-140,o),
(392,-127,o),
(397,-100,cs),
(407,-40,ls),
(412,-13,o),
(402,0,o),
(375,0,cs),
(65,0,ls),
(38,0,o),
(22,-13,o),
(17,-40,cs),
(7,-100,ls),
(2,-127,o),
(-13,-140,o),
(-40,-140,cs),
(-67,-140,o),
(-78,-127,o),
(-73,-100,cs)
);
},
{
closed = 1;
nodes = (
(103,83,o),
(104,77,o),
(117,77,cs),
(328,77,ls),
(341,77,o),
(350,84,o),
(353,97,cs),
(444,610,ls),
(448,637,o),
(437,650,o),
(410,650,cs),
(292,650,ls),
(265,650,o),
(249,637,o),
(245,610,cs),
(185,298,ls),
(176,247,o),
(144,160,o),
(128,127,qs),
(118,109,o),
(110,95,qs)
);
}
);
width = 600;
},
{
layerId = "18543873-86E0-4072-B456-E15DF9A15DA0";
shapes = (
{
closed = 1;
nodes = (
(-29,18,ls),
(-25,36,o),
(-15,45,o),
(3,45,cs),
(8,45,o),
(11,46,o),
(15,50,cs),
(31,67,o),
(50,97,qs),
(71,131,o),
(109,222,o),
(120,276,qs),
(199,670,ls),
(207,710,o),
(231,730,o),
(271,730,cs),
(468,730,ls),
(508,730,o),
(524,710,o),
(517,670,cs),
(409,59,ls),
(406,49,o),
(410,45,o),
(420,45,cs),
(459,45,o),
(475,26,o),
(467,-13,cs),
(449,-118,ls),
(447,-133,o),
(438,-140,o),
(423,-140,cs),
(408,-140,o),
(402,-132,o),
(404,-117,cs),
(420,-30,ls),
(423,-10,o),
(415,0,o),
(395,0,cs),
(43,0,ls),
(23,0,o),
(11,-10,o),
(8,-30,cs),
(-8,-117,ls),
(-10,-132,o),
(-19,-140,o),
(-34,-140,cs),
(-49,-140,o),
(-55,-133,o),
(-53,-118,cs)
);
},
{
closed = 1;
nodes = (
(67,48,o),
(68,45,o),
(78,45,cs),
(341,45,ls),
(351,45,o),
(357,50,o),
(359,60,cs),
(464,655,ls),
(467,675,o),
(460,685,o),
(440,685,cs),
(283,685,ls),
(263,685,o),
(249,675,o),
(246,655,cs),
(170,276,ls),
(159,222,o),
(122,131,o),
(102,97,qs),
(87,73,o),
(74,57,qs)
);
}
);
width = 600;
}
);
unicode = 1044;
},
{
color = (153, 254, 255, 255);
glyphname = "Zhe-cy";
layers = (
{
anchors = (
{
name = bottomright;
position = "{500, 0}";
},
{
name = top;
position = "{350, 730}";
}
);
layerId = "4A85F2CE-8B6A-44D8-848B-BBECCCC83376";
shapes = (
{
closed = 1;
nodes = (
(52,29,ls),
(41,3,o),
(21,-10,o),
(-6,-10,cs),
(-60,-10,o),
(-75,16,o),
(-51,68,cs),
(79,353,ls),
(85,369,o),
(89,385,o),
(87,401,cs),
(61,663,ls),
(55,715,o),
(79,740,o),
(133,740,cs),
(160,740,o),
(176,727,o),
(178,701,cs),
(204,450,ls),
(205,438,o),
(212,432,o),
(225,432,cs),
(225,432,ls),
(238,432,o),
(245,438,o),
(247,451,cs),
(289,689,ls),
(296,723,o),
(315,740,o),
(349,740,cs),
(383,740,o),
(398,723,o),
(391,689,cs),
(349,452,ls),
(347,439,o),
(353,432,o),
(366,432,cs),
(366,432,ls),
(379,432,o),
(389,438,o),
(395,451,cs),
(510,702,ls),
(523,727,o),
(541,740,o),
(567,740,cs),
(620,740,o),
(634,715,o),
(610,665,cs),
(488,404,ls),
(479,388,o),
(477,372,o),
(480,356,cs),
(514,67,ls),
(519,16,o),
(497,-10,o),
(443,-10,cs),
(416,-10,o),
(401,2,o),
(398,28,cs),
(366,307,ls),
(365,319,o),
(359,325,o),
(346,325,cs),
(346,325,ls),
(333,325,o),
(326,319,o),
(323,306,cs),
(281,41,ls),
(275,7,o),
(255,-10,o),
(221,-10,cs),
(187,-10,o),
(173,7,o),
(179,41,cs),
(221,305,ls),
(224,318,o),
(218,325,o),
(205,325,cs),
(205,325,ls),
(192,325,o),
(183,319,o),
(176,306,cs)
);
}
);
width = 600;
},
{
anchors = (
{
name = bottomright;
position = "{500, 0}";
},
{
name = top;
position = "{350, 730}";
}
);
layerId = "A29660E2-EDC3-4773-B175-8F2C31004B34";
shapes = (
{
closed = 1;
nodes = (
(31,19,ls),
(22,0,o),
(6,-10,o),
(-15,-10,cs),
(-56,-10,o),
(-65,9,o),
(-46,48,cs),
(117,360,ls),
(123,373,o),
(126,385,o),
(124,398,cs),
(78,681,ls),
(71,721,o),
(88,740,o),
(130,740,cs),
(151,740,o),
(164,730,o),
(166,710,cs),
(206,430,ls),
(208,417,o),
(216,411,o),
(229,411,cs),
(235,411,ls),
(248,411,o),
(256,418,o),
(259,431,cs),
(306,702,ls),
(312,727,o),
(326,740,o),
(351,740,cs),
(376,740,o),
(388,727,o),
(382,702,cs),
(335,431,ls),
(332,418,o),
(338,411,o),
(351,411,cs),
(359,411,ls),
(372,411,o),
(382,417,o),
(388,430,cs),
(526,710,ls),
(536,730,o),
(551,740,o),
(572,740,cs),
(614,740,o),
(625,721,o),
(604,681,cs),
(456,397,ls),
(451,384,o),
(447,372,o),
(449,359,cs),
(501,48,ls),
(508,9,o),
(492,-10,o),
(450,-10,cs),
(429,-10,o),
(418,-1,o),
(414,19,cs),
(368,324,ls),
(366,337,o),
(358,343,o),
(345,343,cs),
(339,343,ls),
(326,343,o),
(317,336,o),
(316,323,cs),
(263,28,ls),
(259,3,o),
(243,-10,o),
(218,-10,cs),
(193,-10,o),
(183,3,o),
(187,28,cs),
(240,323,ls),
(241,336,o),
(236,343,o),
(223,343,cs),
(215,343,ls),
(202,343,o),
(192,337,o),
(186,324,cs)
);
}
);
width = 600;
},
{
anchors = (
{
name = bottomright;
position = "{500, 0}";
},
{
name = top;
position = "{350, 730}";
}
);
layerId = "18543873-86E0-4072-B456-E15DF9A15DA0";
shapes = (
{
closed = 1;
nodes = (
(-6,6,ls),
(-12,-5,o),
(-20,-10,o),
(-32,-10,cs),
(-55,-10,o),
(-61,0,o),
(-49,22,cs),
(144,370,ls),
(149,379,o),
(150,389,o),
(148,398,cs),
(83,708,ls),
(78,730,o),
(87,740,o),
(110,740,cs),
(122,740,o),
(128,735,o),
(131,724,cs),
(194,415,ls),
(196,406,o),
(202,401,o),
(212,401,cs),
(253,401,ls),
(263,401,o),
(269,406,o),
(270,416,cs),
(325,718,ls),
(327,733,o),
(335,740,o),
(350,740,cs),
(365,740,o),
(371,733,o),
(369,718,cs),
(314,416,ls),
(313,406,o),
(317,401,o),
(327,401,cs),
(368,401,ls),
(378,401,o),
(386,406,o),
(392,415,cs),
(567,724,ls),
(572,735,o),
(581,740,o),
(592,740,cs),
(615,740,o),
(620,729,o),
(608,708,cs),
(432,398,ls),
(426,389,o),
(424,379,o),
(426,370,cs),
(496,23,ls),
(500,1,o),
(492,-10,o),
(468,-10,cs),
(456,-10,o),
(449,-5,o),
(447,6,cs),
(378,344,ls),
(376,353,o),
(370,358,o),
(360,358,cs),
(319,358,ls),
(309,358,o),
(304,353,o),
(302,343,cs),
(244,12,ls),
(240,-3,o),
(232,-10,o),
(217,-10,cs),
(202,-10,o),
(196,-3,o),
(200,12,cs),
(258,343,ls),
(260,353,o),
(255,358,o),
(245,358,cs),
(204,358,ls),
(194,358,o),
(187,353,o),
(182,344,cs)
);
}
);
width = 600;
}
);
unicode = 1046;
},
{
color = (153, 254, 255, 255);
glyphname = "Ze-cy";
layers = (
{
layerId = "4A85F2CE-8B6A-44D8-848B-BBECCCC83376";
shapes = (
{
closed = 1;
nodes = (
(153,696,o),
(248,740,o),
(346,740,cs),
(467,740,o),
(576,676,o),
(552,541,cs),
(540,469,o),
(486,399,o),
(410,386,c),
(490,368,o),
(528,291,o),
(513,207,cs),
(487,59,o),
(341,-10,o),
(209,-10,cs),
(109,-10,o),
(21,31,o),
(-7,114,cs),
(-25,168,o),
(16,210,o),
(87,210,cs),
(110,210,o),
(123,198,o),
(140,163,cs),
(154,132,o),
(193,118,o),
(232,118,cs),
(292,118,o),
(351,152,o),
(362,217,cs),
(375,288,o),
(330,316,o),
(275,316,cs),
(247,316,ls),
(205,316,o),
(188,336,o),
(196,378,cs),
(203,420,o),
(228,440,o),
(270,440,cs),
(298,440,ls),
(345,440,o),
(389,465,o),
(400,529,cs),
(410,583,o),
(374,616,o),
(322,616,cs),
(283,616,o),
(250,598,o),
(230,568,cs),
(204,531,o),
(189,520,o),
(162,520,cs),
(91,520,o),
(64,561,o),
(100,616,cs)
);
}
);
width = 600;
},
{
anchors = (
{
name = m.uni0308;
position = "{350, 730}";
},
{
name = m.uni0325_2;
position = "{220, 0}";
}
);
layerId = "A29660E2-EDC3-4773-B175-8F2C31004B34";
shapes = (
{
closed = 1;
nodes = (
(146,685,o),
(240,740,o),
(346,740,cs),
(460,740,o),
(550,674,o),
(529,551,cs),
(515,477,o),
(461,403,o),
(383,384,c),
(469,368,o),
(505,286,o),
(489,199,cs),
(465,61,o),
(335,-10,o),
(209,-10,cs),
(102,-10,o),
(16,43,o),
(6,141,cs),
(2,178,o),
(26,200,o),
(68,200,cs),
(87,200,o),
(94,191,o),
(95,170,cs),
(98,104,o),
(156,70,o),
(225,70,cs),
(307,70,o),
(383,118,o),
(399,205,cs),
(414,292,o),
(354,340,o),
(272,340,cs),
(226,340,ls),
(199,340,o),
(189,353,o),
(194,380,cs),
(199,407,o),
(213,420,o),
(240,420,cs),
(286,420,ls),
(344,420,o),
(420,448,o),
(437,542,cs),
(450,616,o),
(403,660,o),
(332,660,cs),
(264,660,o),
(207,622,o),
(184,560,cs),
(177,539,o),
(165,530,o),
(146,530,cs),
(104,530,o),
(88,553,o),
(103,590,cs)
);
}
);
width = 600;
},
{
layerId = "18543873-86E0-4072-B456-E15DF9A15DA0";
shapes = (
{
closed = 1;
nodes = (
(137,670,o),
(230,740,o),
(345,740,cs),
(460,740,o),
(535,665,o),
(514,547,cs),
(501,471,o),
(443,397,o),
(364,381,c),
(447,360,o),
(487,282,o),
(471,194,cs),
(448,63,o),
(331,-10,o),
(208,-10,cs),
(94,-10,o),
(10,52,o),
(14,163,cs),
(15,184,o),
(28,196,o),
(51,196,cs),
(62,196,o),
(66,190,o),
(66,179,cs),
(57,86,o),
(124,35,o),
(216,35,cs),
(313,35,o),
(404,93,o),
(422,196,cs),
(441,299,o),
(371,356,o),
(274,356,cs),
(232,356,ls),
(217,356,o),
(209,364,o),
(213,379,cs),
(215,394,o),
(223,401,o),
(238,401,cs),
(285,401,ls),
(374,401,o),
(448,458,o),
(465,549,cs),
(481,639,o),
(426,696,o),
(338,696,cs),
(246,696,o),
(173,635,o),
(150,547,cs),
(147,536,o),
(140,530,o),
(129,530,cs),
(106,530,o),
(97,541,o),
(104,563,cs)
);
}
);
width = 600;
}
);
unicode = 1047;
},
{
color = (153, 254, 255, 255);
glyphname = "Ii-cy";
layers = (
{
layerId = "4A85F2CE-8B6A-44D8-848B-BBECCCC83376";
shapes = (
{
closed = 1;
nodes = (
(582,629,ls),
(594,703,o),
(564,740,o),
(490,740,cs),
(440,740,o),
(406,716,o),
(382,669,cs),
(163,240,ls),
(161,236,o),
(159,234,o),
(156,234,cs),
(153,234,o),
(152,236,o),
(153,240,cs),
(229,670,ls),
(237,717,o),
(218,740,o),
(171,740,cs),
(124,740,o),
(97,717,o),
(89,670,cs),
(-13,101,ls),
(-25,27,o),
(5,-10,o),
(79,-10,cs),
(129,-10,o),
(164,14,o),
(188,61,cs),
(407,490,ls),
(409,494,o),
(411,496,o),
(414,496,cs),
(417,496,o),
(418,494,o),
(417,490,cs),
(341,60,ls),
(333,13,o),
(351,-10,o),
(398,-10,cs),
(445,-10,o),
(473,13,o),
(481,60,cs)
);
}
);
width = 600;
},
{
anchors = (
{
name = m.uni0308;
position = "{350, 730}";
}
);
layerId = "A29660E2-EDC3-4773-B175-8F2C31004B34";
shapes = (
{
closed = 1;
nodes = (
(558,662,ls),
(567,714,o),
(545,740,o),
(493,740,cs),
(458,740,o),
(435,723,o),
(417,690,cs),
(126,150,ls),
(124,146,o),
(123,144,o),
(120,144,cs),
(117,144,o),
(116,146,o),
(117,150,cs),
(214,695,ls),
(219,725,o),
(206,740,o),
(176,740,cs),
(146,740,o),
(129,725,o),
(124,695,cs),
(12,68,ls),
(2,16,o),
(24,-10,o),
(76,-10,cs),
(111,-10,o),
(135,7,o),
(154,40,cs),
(444,580,ls),
(446,584,o),
(448,586,o),
(451,586,cs),
(454,586,o),
(454,584,o),
(453,580,cs),
(356,35,ls),
(351,5,o),
(363,-10,o),
(393,-10,cs),
(423,-10,o),
(441,5,o),
(446,35,cs)
);
}
);
width = 600;
},
{
layerId = "18543873-86E0-4072-B456-E15DF9A15DA0";
shapes = (
{
closed = 1;
nodes = (
(533,693,ls),
(539,724,o),
(525,740,o),
(494,740,cs),
(470,740,o),
(454,729,o),
(441,707,cs),
(104,80,ls),
(102,76,o),
(100,74,o),
(97,74,cs),
(94,74,o),
(93,76,o),
(94,80,cs),
(207,715,ls),
(210,732,o),
(203,740,o),
(186,740,cs),
(169,740,o),
(160,732,o),
(157,715,cs),
(37,37,ls),
(31,6,o),
(44,-10,o),
(75,-10,cs),
(99,-10,o),
(116,1,o),
(128,23,cs),
(465,650,ls),
(467,654,o),
(469,656,o),
(472,656,cs),
(475,656,o),
(476,654,o),
(475,650,cs),
(362,15,ls),
(360,-2,o),
(366,-10,o),
(383,-10,cs),
(400,-10,o),
(410,-2,o),
(412,15,cs)
);
}
);
width = 600;
}
);
unicode = 1048;
},
{
color = (153, 254, 255, 255);
glyphname = "El-cy";
layers = (
{
layerId = "4A85F2CE-8B6A-44D8-848B-BBECCCC83376";
shapes = (
{
closed = 1;
nodes = (
(144,630,ls),
(157,697,o),
(197,730,o),
(264,730,cs),
(484,730,ls),
(551,730,o),
(578,697,o),
(566,630,cs),
(466,65,ls),
(456,15,o),
(427,-10,o),
(377,-10,cs),
(327,-10,o),
(306,15,o),
(316,65,cs),
(401,545,ls),
(407,579,o),
(393,595,o),
(359,595,cs),
(336,595,ls),
(302,595,o),
(284,578,o),
(277,545,cs),
(214,220,ls),
(189,90,o),
(126,18,o),
(23,-6,cs),
(-35,-20,o),
(-63,11,o),
(-52,75,cs),
(-48,101,o),
(-33,115,o),
(3,126,cs),
(39,138,o),
(55,168,o),
(65,220,cs)
);
}
);
width = 600;
},
{
layerId = "A29660E2-EDC3-4773-B175-8F2C31004B34";
shapes = (
{
closed = 1;
nodes = (
(164,650,ls),
(175,704,o),
(206,730,o),
(260,730,cs),
(476,730,ls),
(530,730,o),
(551,704,o),
(541,650,cs),
(432,35,ls),
(427,5,o),
(409,-10,o),
(379,-10,cs),
(349,-10,o),
(337,5,o),
(342,35,cs),
(444,608,ls),
(449,635,o),
(438,648,o),
(411,648,cs),
(294,648,ls),
(267,648,o),
(251,635,o),
(246,608,cs),
(175,246,ls),
(152,120,o),
(117,12,o),
(-14,-9,cs),
(-46,-14,o),
(-60,2,o),
(-54,35,cs),
(-50,57,o),
(-38,68,o),
(-11,76,cs),
(61,96,o),
(72,176,o),
(85,246,cs)
);
}
);
width = 600;
},
{
layerId = "18543873-86E0-4072-B456-E15DF9A15DA0";
shapes = (
{
closed = 1;
nodes = (
(185,670,ls),
(193,710,o),
(217,730,o),
(257,730,cs),
(480,730,ls),
(520,730,o),
(536,710,o),
(529,670,cs),
(412,15,ls),
(410,-2,o),
(400,-10,o),
(383,-10,cs),
(366,-10,o),
(360,-2,o),
(362,15,cs),
(476,654,ls),
(479,674,o),
(471,684,o),
(451,684,cs),
(268,684,ls),
(248,684,o),
(236,674,o),
(233,654,cs),
(137,158,ls),
(116,52,o),
(65,-10,o),
(-32,-10,cs),
(-48,-10,o),
(-56,-3,o),
(-52,14,cs),
(-50,30,o),
(-39,40,o),
(-22,40,cs),
(43,40,o),
(72,82,o),
(87,158,cs)
);
}
);
width = 600;
}
);
unicode = 1051;
},
{
color = (153, 254, 255, 255);
glyphname = "Pe-cy";
layers = (
{
layerId = "4A85F2CE-8B6A-44D8-848B-BBECCCC83376";
shapes = (
{
closed = 1;
nodes = (
(9,-10,o),
(-12,15,o),
(-2,65,cs),
(98,630,ls),
(110,697,o),
(149,730,o),
(216,730,cs),
(484,730,ls),
(551,730,o),
(578,697,o),
(566,630,cs),
(466,65,ls),
(456,15,o),
(427,-10,o),
(377,-10,cs),
(327,-10,o),
(306,15,o),
(316,65,cs),
(401,545,ls),
(407,579,o),
(393,595,o),
(359,595,cs),
(291,595,ls),
(257,595,o),
(239,579,o),
(233,545,cs),
(148,65,ls),
(138,15,o),
(109,-10,o),
(59,-10,cs)
);
}
);
width = 600;
},
{
layerId = "A29660E2-EDC3-4773-B175-8F2C31004B34";
shapes = (
{
closed = 1;
nodes = (
(27,-10,o),
(15,5,o),
(20,35,cs),
(129,650,ls),
(139,704,o),
(170,730,o),
(224,730,cs),
(476,730,ls),
(530,730,o),
(551,704,o),
(541,650,cs),
(432,35,ls),
(427,5,o),
(409,-10,o),
(379,-10,cs),
(349,-10,o),
(337,5,o),
(342,35,cs),
(444,608,ls),
(449,635,o),
(438,648,o),
(411,648,cs),
(259,648,ls),
(232,648,o),
(217,635,o),
(212,608,cs),
(110,35,ls),
(105,5,o),
(87,-10,o),
(57,-10,cs)
);
}
);
width = 600;
},
{
layerId = "18543873-86E0-4072-B456-E15DF9A15DA0";
shapes = (
{
closed = 1;
nodes = (
(36,-10,o),
(30,-2,o),
(32,15,cs),
(149,670,ls),
(156,710,o),
(180,730,o),
(220,730,cs),
(480,730,ls),
(520,730,o),
(536,710,o),
(529,670,cs),
(412,15,ls),
(410,-2,o),
(400,-10,o),
(383,-10,cs),
(366,-10,o),
(360,-2,o),
(362,15,cs),
(476,655,ls),
(480,675,o),
(472,685,o),
(452,685,cs),
(232,685,ls),
(212,685,o),
(200,675,o),
(196,655,cs),
(82,15,ls),
(80,-2,o),
(70,-10,o),
(53,-10,cs)
);
}
);
width = 600;
}
);
unicode = 1055;
},
{
color = (153, 254, 255, 255);
glyphname = "U-cy";
layers = (
{
anchors = (
{
name = top;
position = "{350, 730}";
}
);
layerId = "4A85F2CE-8B6A-44D8-848B-BBECCCC83376";
shapes = (
{
closed = 1;
nodes = (
(117,-10,o),
(97,12,o),
(132,83,cs),
(173,165,ls),
(181,181,o),
(184,195,o),
(182,211,cs),
(96,647,ls),
(83,710,o),
(109,740,o),
(176,740,cs),
(215,740,o),
(240,734,o),
(246,693,cs),
(288,391,ls),
(291,375,o),
(296,375,o),
(303,391,cs),
(446,692,ls),
(464,730,o),
(489,740,o),
(526,740,cs),
(593,740,o),
(609,709,o),
(576,646,cs),
(262,37,ls),
(245,5,o),
(219,-10,o),
(186,-10,cs)
);
}
);
width = 600;
},
{
anchors = (
{
name = top;
position = "{350, 730}";
}
);
layerId = "A29660E2-EDC3-4773-B175-8F2C31004B34";
shapes = (
{
closed = 1;
nodes = (
(130,-10,o),
(121,10,o),
(143,50,cs),
(208,170,ls),
(215,182,o),
(218,196,o),
(215,208,cs),
(114,679,ls),
(106,720,o),
(122,740,o),
(166,740,cs),
(188,740,o),
(202,730,o),
(205,709,cs),
(276,307,ls),
(280,294,o),
(284,294,o),
(289,307,cs),
(488,709,ls),
(499,730,o),
(514,740,o),
(536,740,cs),
(580,740,o),
(590,720,o),
(568,679,cs),
(221,20,ls),
(211,0,o),
(194,-10,o),
(173,-10,cs)
);
}
);
width = 600;
},
{
anchors = (
{
name = top;
position = "{350, 730}";
}
);
layerId = "18543873-86E0-4072-B456-E15DF9A15DA0";
shapes = (
{
closed = 1;
nodes = (
(140,-10,o),
(134,1,o),
(147,25,cs),
(231,177,ls),
(236,186,o),
(237,196,o),
(235,205,cs),
(127,705,ls),
(123,729,o),
(132,740,o),
(157,740,cs),
(170,740,o),
(177,734,o),
(180,722,cs),
(271,269,ls),
(272,260,o),
(276,260,o),
(281,269,cs),
(521,723,ls),
(526,734,o),
(535,740,o),
(547,740,cs),
(571,740,o),
(578,729,o),
(565,706,cs),
(195,8,ls),
(188,-4,o),
(178,-10,o),
(165,-10,cs)
);
}
);
width = 600;
}
);
unicode = 1059;
},
{
color = (153, 254, 255, 255);
glyphname = "Ef-cy";
layers = (
{
layerId = "4A85F2CE-8B6A-44D8-848B-BBECCCC83376";
shapes = (
{
closed = 1;
nodes = (
(165,-25,o),
(144,-5,o),
(153,48,cs),
(155,55,l),
(46,59,o),
(-9,145,o),
(-6,274,cs),
(-4,341,o),
(9,409,o),
(30,476,cs),
(73,606,o),
(158,691,o),
(269,695,c),
(269,697,ls),
(278,750,o),
(306,770,o),
(357,770,cs),
(406,770,o),
(428,746,o),
(419,697,cs),
(419,695,l),
(528,691,o),
(583,605,o),
(578,476,cs),
(577,409,o),
(564,341,o),
(542,274,cs),
(501,145,o),
(416,59,o),
(305,55,c),
(303,48,ls),
(295,-1,o),
(265,-25,o),
(216,-25,cs)
);
},
{
closed = 1;
nodes = (
(266,580,l),
(219,580,o),
(176,539,o),
(155,476,cs),
(134,409,o),
(121,341,o),
(119,274,cs),
(118,212,o),
(146,171,o),
(193,171,c)
);
},
{
closed = 1;
nodes = (
(307,171,l),
(354,171,o),
(398,212,o),
(417,274,cs),
(439,341,o),
(452,409,o),
(453,476,cs),
(456,539,o),
(427,580,o),
(380,580,c)
);
}
);
width = 600;
},
{
layerId = "A29660E2-EDC3-4773-B175-8F2C31004B34";
shapes = (
{
closed = 1;
nodes = (
(186,-25,o),
(173,-10,o),
(178,20,cs),
(185,55,l),
(75,55,o),
(7,138,o),
(13,263,cs),
(15,335,o),
(29,410,o),
(51,482,cs),
(93,610,o),
(188,695,o),
(299,695,c),
(304,725,ls),
(310,755,o),
(327,770,o),
(357,770,cs),
(387,770,o),
(400,755,o),
(394,725,cs),
(389,695,l),
(500,695,o),
(565,610,o),
(559,482,cs),
(557,410,o),
(543,335,o),
(521,263,cs),
(481,138,o),
(385,55,o),
(275,55,c),
(268,20,ls),
(263,-10,o),
(246,-25,o),
(216,-25,cs)
);
},
{
closed = 1;
nodes = (
(289,619,l),
(224,619,o),
(162,566,o),
(135,482,cs),
(113,410,o),
(99,335,o),
(97,263,cs),
(94,182,o),
(137,131,o),
(202,131,c)
);
},
{
closed = 1;
nodes = (
(284,131,l),
(349,131,o),
(412,182,o),
(437,263,cs),
(459,335,o),
(473,410,o),
(475,482,cs),
(478,566,o),
(436,619,o),
(371,619,c)
);
}
);
width = 600;
},
{
layerId = "18543873-86E0-4072-B456-E15DF9A15DA0";
shapes = (
{
closed = 1;
nodes = (
(199,-25,o),
(192,-17,o),
(195,0,cs),
(205,55,l),
(86,55,o),
(19,133,o),
(26,257,cs),
(29,336,o),
(44,417,o),
(68,496,cs),
(104,618,o),
(199,695,o),
(319,695,c),
(327,745,ls),
(330,762,o),
(340,770,o),
(357,770,cs),
(374,770,o),
(380,762,o),
(377,745,cs),
(369,695,l),
(489,695,o),
(554,617,o),
(548,496,cs),
(544,417,o),
(529,336,o),
(506,257,cs),
(467,134,o),
(374,55,o),
(255,55,c),
(245,0,ls),
(242,-17,o),
(233,-25,o),
(216,-25,cs)
);
},
{
closed = 1;
nodes = (
(310,651,l),
(226,651,o),
(145,585,o),
(118,496,cs),
(94,417,o),
(79,336,o),
(76,257,cs),
(70,166,o),
(130,100,o),
(213,100,c)
);
},
{
closed = 1;
nodes = (
(263,100,l),
(346,100,o),
(429,167,o),
(456,257,cs),
(479,336,o),
(494,417,o),
(498,496,cs),
(503,584,o),
(444,651,o),
(360,651,c)
);
}
);
width = 600;
}
);
unicode = 1060;
},
{
color = (153, 254, 255, 255);
glyphname = "Che-cy";
layers = (
{
layerId = "4A85F2CE-8B6A-44D8-848B-BBECCCC83376";
shapes = (
{
closed = 1;
nodes = (
(340,225,ls),
(343,242,o),
(336,250,o),
(319,250,cs),
(234,250,ls),
(129,250,o),
(33,355,o),
(50,450,qs),
(88,665,ls),
(97,715,o),
(126,740,o),
(176,740,cs),
(226,740,o),
(247,715,o),
(238,665,cs),
(202,460,ls),
(196,426,o),
(237,385,o),
(278,385,qs),
(344,385,ls),
(361,385,o),
(370,393,o),
(373,410,cs),
(418,665,ls),
(427,715,o),
(456,740,o),
(506,740,cs),
(556,740,o),
(577,715,o),
(568,665,cs),
(462,65,ls),
(452,15,o),
(423,-10,o),
(373,-10,cs),
(323,-10,o),
(302,15,o),
(312,65,cs)
);
}
);
width = 600;
},
{
anchors = (
{
name = m.uni0308;
position = "{350, 730}";
}
);
layerId = "A29660E2-EDC3-4773-B175-8F2C31004B34";
shapes = (
{
closed = 1;
nodes = (
(379,251,ls),
(382,264,o),
(377,271,o),
(364,271,cs),
(244,271,ls),
(150,271,o),
(60,367,o),
(75,451,qs),
(119,695,ls),
(124,725,o),
(141,740,o),
(171,740,cs),
(201,740,o),
(214,725,o),
(209,695,cs),
(165,451,ls),
(157,403,o),
(211,351,o),
(268,351,qs),
(378,351,ls),
(391,351,o),
(398,358,o),
(401,371,cs),
(459,695,ls),
(464,725,o),
(481,740,o),
(511,740,cs),
(541,740,o),
(554,725,o),
(549,695,cs),
(431,35,ls),
(426,5,o),
(408,-10,o),
(378,-10,cs),
(348,-10,o),
(336,5,o),
(341,35,cs)
);
}
);
width = 600;
},
{
layerId = "18543873-86E0-4072-B456-E15DF9A15DA0";
shapes = (
{
closed = 1;
nodes = (
(409,274,ls),
(411,284,o),
(407,289,o),
(397,289,cs),
(271,289,ls),
(168,289,o),
(79,385,o),
(95,479,qs),
(137,715,ls),
(140,732,o),
(149,740,o),
(166,740,cs),
(183,740,o),
(190,732,o),
(187,715,cs),
(145,479,ls),
(133,408,o),
(200,334,o),
(279,334,qs),
(404,334,ls),
(414,334,o),
(420,339,o),
(422,349,cs),
(487,715,ls),
(490,732,o),
(499,740,o),
(516,740,cs),
(533,740,o),
(540,732,o),
(537,715,cs),
(412,15,ls),
(410,-2,o),
(400,-10,o),
(383,-10,cs),
(366,-10,o),
(360,-2,o),
(362,15,cs)
);
}
);
width = 600;
}
);
unicode = 1063;
},
{
color = (153, 254, 255, 255);
glyphname = "Tse-cy";
layers = (
{
layerId = "4A85F2CE-8B6A-44D8-848B-BBECCCC83376";
shapes = (
{
closed = 1;
nodes = (
(485,-70,ls),
(477,-117,o),
(450,-140,o),
(403,-140,cs),
(356,-140,o),
(337,-117,o),
(345,-70,cs),
(350,-40,ls),
(355,-13,o),
(345,0,o),
(318,0,cs),
(86,0,ls),
(19,0,o),
(-8,33,o),
(4,100,cs),
(104,665,ls),
(113,715,o),
(142,740,o),
(192,740,cs),
(242,740,o),
(263,715,o),
(254,665,cs),
(164,160,ls),
(161,143,o),
(168,135,o),
(185,135,cs),
(272,135,ls),
(289,135,o),
(298,143,o),
(301,160,cs),
(391,665,ls),
(400,715,o),
(429,740,o),
(479,740,cs),
(529,740,o),
(550,715,o),
(541,665,cs),
(447,138,ls),
(447,136,o),
(448,135,o),
(450,135,cs),
(498,135,o),
(518,111,o),
(509,63,cs)
);
}
);
width = 600;
},
{
layerId = "A29660E2-EDC3-4773-B175-8F2C31004B34";
shapes = (
{
closed = 1;
nodes = (
(467,-100,ls),
(462,-127,o),
(447,-140,o),
(420,-140,cs),
(393,-140,o),
(382,-127,o),
(387,-100,cs),
(397,-40,ls),
(402,-13,o),
(392,0,o),
(365,0,cs),
(94,0,ls),
(40,0,o),
(19,26,o),
(28,80,cs),
(138,695,ls),
(143,725,o),
(160,740,o),
(190,740,cs),
(220,740,o),
(233,725,o),
(228,695,cs),
(122,100,ls),
(119,87,o),
(125,80,o),
(138,80,cs),
(314,80,ls),
(327,80,o),
(335,87,o),
(338,100,cs),
(444,695,ls),
(449,725,o),
(466,740,o),
(496,740,cs),
(526,740,o),
(539,725,o),
(534,695,cs),
(427,95,ls),
(425,85,o),
(429,80,o),
(439,80,cs),
(479,80,o),
(496,60,o),
(488,20,cs)
);
}
);
width = 600;
},
{
layerId = "18543873-86E0-4072-B456-E15DF9A15DA0";
shapes = (
{
closed = 1;
nodes = (
(450,-115,ls),
(447,-132,o),
(437,-140,o),
(420,-140,cs),
(403,-140,o),
(397,-132,o),
(400,-115,cs),
(415,-30,ls),
(418,-10,o),
(410,0,o),
(390,0,cs),
(90,0,ls),
(50,0,o),
(33,20,o),
(41,60,cs),
(157,715,ls),
(160,732,o),
(169,740,o),
(186,740,cs),
(203,740,o),
(210,732,o),
(207,715,cs),
(91,60,ls),
(89,50,o),
(93,45,o),
(103,45,cs),
(336,45,ls),
(346,45,o),
(352,50,o),
(354,60,cs),
(470,715,ls),
(473,732,o),
(482,740,o),
(499,740,cs),
(516,740,o),
(523,732,o),
(520,715,cs),
(404,60,ls),
(401,48,o),
(407,45,o),
(418,45,cs),
(458,45,o),
(474,25,o),
(468,-15,cs)
);
}
);
width = 600;
}
);
unicode = 1062;
},
{
color = (153, 254, 255, 255);
glyphname = "Sha-cy";
layers = (
{
layerId = "4A85F2CE-8B6A-44D8-848B-BBECCCC83376";
shapes = (
{
closed = 1;
nodes = (
(58,0,ls),
(-9,0,o),
(-36,33,o),
(-24,100,cs),
(78,676,ls),
(86,719,o),
(111,740,o),
(154,740,cs),
(197,740,o),
(215,718,o),
(206,675,cs),
(115,157,ls),
(110,132,o),
(120,120,o),
(145,120,cs),
(146,120,ls),
(171,120,o),
(184,132,o),
(189,157,cs),
(282,681,ls),
(289,721,o),
(311,740,o),
(351,740,cs),
(391,740,o),
(407,721,o),
(400,681,cs),
(307,157,ls),
(302,132,o),
(312,120,o),
(337,120,cs),
(338,120,ls),
(363,120,o),
(376,132,o),
(381,157,cs),
(472,675,ls),
(481,718,o),
(506,740,o),
(549,740,cs),
(592,740,o),
(610,719,o),
(602,676,cs),
(500,100,ls),
(488,33,o),
(449,0,o),
(382,0,cs)
);
}
);
width = 600;
},
{
layerId = "A29660E2-EDC3-4773-B175-8F2C31004B34";
shapes = (
{
closed = 1;
nodes = (
(62,0,ls),
(8,0,o),
(-13,26,o),
(-4,80,cs),
(104,697,ls),
(109,725,o),
(126,740,o),
(154,740,cs),
(182,740,o),
(194,726,o),
(189,698,cs),
(86,118,ls),
(81,91,o),
(92,78,o),
(119,78,cs),
(158,78,ls),
(185,78,o),
(200,91,o),
(205,118,cs),
(308,703,ls),
(314,728,o),
(327,740,o),
(352,740,cs),
(377,740,o),
(388,728,o),
(382,703,cs),
(279,118,ls),
(274,91,o),
(285,78,o),
(312,78,cs),
(350,78,ls),
(377,78,o),
(392,91,o),
(397,118,cs),
(500,698,ls),
(505,726,o),
(521,740,o),
(549,740,cs),
(577,740,o),
(589,726,o),
(584,698,cs),
(474,80,ls),
(465,26,o),
(434,0,o),
(380,0,cs)
);
}
);
width = 600;
},
{
layerId = "18543873-86E0-4072-B456-E15DF9A15DA0";
shapes = (
{
closed = 1;
nodes = (
(55,0,ls),
(15,0,o),
(-2,20,o),
(6,60,cs),
(122,716,ls),
(125,732,o),
(134,740,o),
(150,740,cs),
(166,740,o),
(173,732,o),
(170,716,cs),
(56,73,ls),
(52,53,o),
(60,43,o),
(80,43,cs),
(173,43,ls),
(193,43,o),
(205,53,o),
(209,73,cs),
(323,716,ls),
(326,732,o),
(335,740,o),
(351,740,cs),
(367,740,o),
(374,732,o),
(371,716,cs),
(257,73,ls),
(253,53,o),
(261,43,o),
(281,43,cs),
(374,43,ls),
(394,43,o),
(406,53,o),
(410,73,cs),
(524,716,ls),
(527,732,o),
(536,740,o),
(552,740,cs),
(568,740,o),
(575,732,o),
(572,716,cs),
(456,60,ls),
(448,20,o),
(425,0,o),
(385,0,cs)
);
}
);
width = 600;
}
);
unicode = 1064;
},
{
color = (153, 254, 255, 255);
glyphname = "Shcha-cy";
layers = (
{
layerId = "4A85F2CE-8B6A-44D8-848B-BBECCCC83376";
shapes = (
{
closed = 1;
nodes = (
(386,-140,o),
(369,-119,o),
(377,-75,cs),
(381,-50,ls),
(387,-17,o),
(373,0,o),
(340,0,cs),
(58,0,ls),
(-9,0,o),
(-36,33,o),
(-24,100,cs),
(79,680,ls),
(86,720,o),
(109,740,o),
(149,740,cs),
(189,740,o),
(206,720,o),
(199,680,cs),
(104,145,ls),
(101,128,o),
(108,120,o),
(125,120,cs),
(150,120,ls),
(167,120,o),
(176,128,o),
(179,145,cs),
(276,690,ls),
(282,723,o),
(300,740,o),
(334,740,cs),
(368,740,o),
(382,723,o),
(376,690,cs),
(279,145,ls),
(276,128,o),
(283,120,o),
(300,120,cs),
(325,120,ls),
(342,120,o),
(351,128,o),
(354,145,cs),
(449,680,ls),
(456,720,o),
(479,740,o),
(519,740,cs),
(559,740,o),
(576,720,o),
(569,680,cs),
(470,123,ls),
(470,121,o),
(471,120,o),
(473,120,cs),
(519,120,o),
(538,97,o),
(529,51,cs),
(507,-75,ls),
(499,-119,o),
(474,-140,o),
(430,-140,cs)
);
}
);
width = 600;
},
{
layerId = "A29660E2-EDC3-4773-B175-8F2C31004B34";
shapes = (
{
closed = 1;
nodes = (
(423,-140,o),
(412,-127,o),
(417,-100,cs),
(427,-40,ls),
(432,-13,o),
(422,0,o),
(395,0,cs),
(60,0,ls),
(6,0,o),
(-15,26,o),
(-6,80,cs),
(105,700,ls),
(110,727,o),
(125,740,o),
(152,740,cs),
(179,740,o),
(191,727,o),
(186,700,cs),
(79,98,ls),
(76,85,o),
(82,78,o),
(95,78,cs),
(175,78,ls),
(188,78,o),
(196,85,o),
(199,98,cs),
(306,705,ls),
(311,728,o),
(324,740,o),
(347,740,cs),
(370,740,o),
(381,728,o),
(376,705,cs),
(269,98,ls),
(266,85,o),
(272,78,o),
(285,78,cs),
(365,78,ls),
(378,78,o),
(386,85,o),
(389,98,cs),
(496,700,ls),
(501,727,o),
(516,740,o),
(543,740,cs),
(570,740,o),
(582,727,o),
(577,700,cs),
(468,91,ls),
(467,83,o),
(471,78,o),
(479,78,cs),
(513,78,o),
(526,62,o),
(520,28,cs),
(497,-100,ls),
(492,-127,o),
(477,-140,o),
(450,-140,cs)
);
}
);
width = 600;
},
{
layerId = "18543873-86E0-4072-B456-E15DF9A15DA0";
shapes = (
{
closed = 1;
nodes = (
(438,-140,o),
(432,-132,o),
(435,-115,cs),
(450,-30,ls),
(453,-10,o),
(445,0,o),
(425,0,cs),
(55,0,ls),
(15,0,o),
(-2,20,o),
(6,60,cs),
(122,716,ls),
(125,732,o),
(134,740,o),
(150,740,cs),
(166,740,o),
(173,732,o),
(170,716,cs),
(53,58,ls),
(51,48,o),
(55,43,o),
(65,43,cs),
(185,43,ls),
(195,43,o),
(201,48,o),
(203,58,cs),
(320,716,ls),
(323,732,o),
(332,740,o),
(348,740,cs),
(364,740,o),
(371,732,o),
(368,716,cs),
(251,58,ls),
(249,48,o),
(253,43,o),
(263,43,cs),
(383,43,ls),
(393,43,o),
(399,48,o),
(401,58,cs),
(518,716,ls),
(521,732,o),
(530,740,o),
(546,740,cs),
(562,740,o),
(569,732,o),
(566,716,cs),
(449,56,ls),
(447,47,o),
(450,43,o),
(459,43,cs),
(494,43,o),
(509,25,o),
(503,-10,cs),
(485,-115,ls),
(482,-132,o),
(472,-140,o),
(455,-140,cs)
);
}
);
width = 600;
}
);
unicode = 1065;
},
{
color = (153, 254, 255, 255);
glyphname = "Dzhe-cy";
layers = (
{
layerId = "4A85F2CE-8B6A-44D8-848B-BBECCCC83376";
shapes = (
{
closed = 1;
nodes = (
(141,-25,ls),
(143,-8,o),
(137,0,o),
(120,0,cs),
(86,0,ls),
(19,0,o),
(-8,33,o),
(4,100,cs),
(104,665,ls),
(113,715,o),
(142,740,o),
(192,740,cs),
(242,740,o),
(263,715,o),
(254,665,cs),
(169,190,ls),
(164,156,o),
(177,140,o),
(211,140,cs),
(279,140,ls),
(313,140,o),
(332,156,o),
(337,190,cs),
(422,665,ls),
(431,715,o),
(460,740,o),
(510,740,cs),
(560,740,o),
(581,715,o),
(572,665,cs),
(472,100,ls),
(460,33,o),
(421,0,o),
(354,0,cs),
(320,0,ls),
(303,0,o),
(293,-8,o),
(291,-25,cs),
(286,-50,ls),
(277,-100,o),
(247,-125,o),
(197,-125,cs),
(147,-125,o),
(127,-100,o),
(136,-50,cs)
);
}
);
width = 600;
},
{
layerId = "A29660E2-EDC3-4773-B175-8F2C31004B34";
shapes = (
{
closed = 1;
nodes = (
(172,-20,ls),
(174,-7,o),
(168,0,o),
(155,0,cs),
(92,0,ls),
(38,0,o),
(17,26,o),
(26,80,cs),
(136,695,ls),
(141,725,o),
(158,740,o),
(188,740,cs),
(218,740,o),
(231,725,o),
(226,695,cs),
(124,122,ls),
(119,95,o),
(129,82,o),
(156,82,cs),
(312,82,ls),
(339,82,o),
(355,95,o),
(360,122,cs),
(462,695,ls),
(467,725,o),
(484,740,o),
(514,740,cs),
(544,740,o),
(557,725,o),
(552,695,cs),
(442,80,ls),
(433,26,o),
(402,0,o),
(348,0,cs),
(285,0,ls),
(272,0,o),
(264,-7,o),
(262,-20,cs),
(251,-80,ls),
(246,-110,o),
(227,-125,o),
(197,-125,cs),
(167,-125,o),
(156,-110,o),
(161,-80,cs)
);
}
);
width = 600;
},
{
layerId = "18543873-86E0-4072-B456-E15DF9A15DA0";
shapes = (
{
closed = 1;
nodes = (
(191,-15,ls),
(192,-5,o),
(188,0,o),
(178,0,cs),
(90,0,ls),
(50,0,o),
(33,20,o),
(41,60,cs),
(156,712,ls),
(160,730,o),
(171,740,o),
(189,740,cs),
(207,740,o),
(215,730,o),
(211,712,cs),
(99,80,ls),
(96,60,o),
(104,50,o),
(124,50,cs),
(334,50,ls),
(354,50,o),
(366,60,o),
(369,80,cs),
(481,712,ls),
(485,730,o),
(496,740,o),
(514,740,cs),
(532,740,o),
(540,730,o),
(536,712,cs),
(421,60,ls),
(413,20,o),
(390,0,o),
(350,0,cs),
(263,0,ls),
(253,0,o),
(247,-5,o),
(246,-15,cs),
(230,-97,ls),
(228,-115,o),
(216,-125,o),
(198,-125,cs),
(180,-125,o),
(173,-115,o),
(175,-97,cs)
);
}
);
width = 600;
}
);
unicode = 1039;
},
{
color = (153, 254, 255, 255);
glyphname = "Softsign-cy";
layers = (
{
layerId = "4A85F2CE-8B6A-44D8-848B-BBECCCC83376";
shapes = (
{
closed = 1;
nodes = (
(104,665,ls),
(113,715,o),
(141,740,o),
(191,740,cs),
(241,740,o),
(263,715,o),
(254,665,cs),
(220,469,ls),
(216,452,o),
(222,444,o),
(239,444,cs),
(313,444,ls),
(390,444,o),
(495,386,o),
(542,291,o),
(529,222,qs),
(517,152,o),
(437,58,o),
(312,0,o),
(235,0,qs),
(86,0,ls),
(19,0,o),
(-8,33,o),
(4,100,cs)
);
},
{
closed = 1;
nodes = (
(168,180,ls),
(162,147,o),
(176,130,o),
(209,130,cs),
(258,130,ls),
(306,130,o),
(372,178,o),
(379,222,qs),
(388,266,o),
(339,314,o),
(291,314,qs),
(217,314,ls),
(200,314,o),
(190,306,o),
(187,289,cs)
);
}
);
width = 600;
},
{
layerId = "A29660E2-EDC3-4773-B175-8F2C31004B34";
shapes = (
{
closed = 1;
nodes = (
(136,695,ls),
(141,725,o),
(158,740,o),
(188,740,cs),
(218,740,o),
(231,725,o),
(226,695,cs),
(179,435,ls),
(176,418,o),
(183,410,o),
(200,410,cs),
(320,410,ls),
(388,410,o),
(479,357,o),
(518,270,o),
(507,205,qs),
(495,139,o),
(424,53,o),
(315,0,o),
(247,0,qs),
(92,0,ls),
(38,0,o),
(17,26,o),
(26,80,cs)
);
},
{
closed = 1;
nodes = (
(125,130,ls),
(120,103,o),
(131,90,o),
(158,90,cs),
(263,90,ls),
(322,90,o),
(404,152,o),
(414,205,qs),
(423,257,o),
(363,320,o),
(304,320,qs),
(184,320,ls),
(167,320,o),
(157,312,o),
(155,295,cs)
);
}
);
width = 600;
},
{
layerId = "18543873-86E0-4072-B456-E15DF9A15DA0";
shapes = (
{
closed = 1;
nodes = (
(157,715,ls),
(160,732,o),
(169,740,o),
(186,740,cs),
(203,740,o),
(210,732,o),
(207,715,cs),
(152,406,ls),
(150,393,o),
(156,386,o),
(169,386,cs),
(314,386,ls),
(378,386,o),
(462,336,o),
(500,254,o),
(489,193,qs),
(478,131,o),
(412,50,o),
(309,0,o),
(245,0,qs),
(90,0,ls),
(50,0,o),
(33,20,o),
(41,60,cs)
);
},
{
closed = 1;
nodes = (
(94,80,ls),
(91,60,o),
(99,50,o),
(119,50,cs),
(254,50,ls),
(328,50,o),
(427,124,o),
(439,193,qs),
(451,261,o),
(377,336,o),
(304,336,qs),
(159,336,ls),
(146,336,o),
(139,329,o),
(136,316,cs)
);
}
);
width = 600;
}
);
unicode = 1068;
},
{
color = (153, 254, 255, 255);
glyphname = "Yeru-cy";
layers = (
{
anchors = (
{
name = top;
position = "{350, 730}";
}
);
layerId = "4A85F2CE-8B6A-44D8-848B-BBECCCC83376";
shapes = (
{
closed = 1;
nodes = (
(196,445,ls),
(313,445,o),
(361,371,o),
(352,252,cs),
(350,232,o),
(347,211,o),
(341,191,cs),
(308,74,o),
(234,0,o),
(117,0,cs),
(58,0,ls),
(-9,0,o),
(-36,33,o),
(-24,100,cs),
(78,676,ls),
(86,719,o),
(111,740,o),
(154,740,cs),
(197,740,o),
(215,718,o),
(206,675,cs),
(171,470,ls),
(167,453,o),
(174,445,o),
(191,445,cs)
);
},
{
closed = 1;
nodes = (
(116,165,ls),
(110,133,o),
(125,116,o),
(150,116,cs),
(158,116,ls),
(191,116,o),
(210,151,o),
(221,191,cs),
(227,211,o),
(230,232,o),
(232,252,cs),
(235,302,o),
(219,330,o),
(175,330,cs),
(170,330,ls),
(153,330,o),
(144,322,o),
(141,305,cs)
);
},
{
closed = 1;
nodes = (
(373,-10,o),
(355,11,o),
(362,54,cs),
(473,676,ls),
(481,719,o),
(506,740,o),
(549,740,cs),
(592,740,o),
(610,719,o),
(602,676,cs),
(491,54,ls),
(484,11,o),
(459,-10,o),
(416,-10,cs)
);
}
);
width = 600;
},
{
anchors = (
{
name = top;
position = "{350, 730}";
}
);
layerId = "A29660E2-EDC3-4773-B175-8F2C31004B34";
shapes = (
{
closed = 1;
nodes = (
(186,430,ls),
(306,430,o),
(363,357,o),
(349,240,cs),
(346,223,o),
(344,206,o),
(339,189,cs),
(312,73,o),
(230,0,o),
(110,0,cs),
(60,0,ls),
(6,0,o),
(-15,26,o),
(-6,80,cs),
(104,698,ls),
(109,726,o),
(125,740,o),
(153,740,cs),
(181,740,o),
(193,726,o),
(188,698,cs),
(144,450,ls),
(142,437,o),
(147,430,o),
(160,430,cs)
);
},
{
closed = 1;
nodes = (
(85,119,ls),
(81,92,o),
(91,79,o),
(118,79,cs),
(124,79,ls),
(192,79,o),
(240,122,o),
(255,190,cs),
(260,207,o),
(263,224,o),
(265,240,cs),
(272,308,o),
(241,351,o),
(173,351,cs),
(147,351,ls),
(134,351,o),
(125,344,o),
(122,331,cs)
);
},
{
closed = 1;
nodes = (
(388,-10,o),
(377,4,o),
(382,32,cs),
(500,698,ls),
(505,726,o),
(521,740,o),
(549,740,cs),
(577,740,o),
(589,726,o),
(584,698,cs),
(466,32,ls),
(461,4,o),
(444,-10,o),
(416,-10,cs)
);
}
);
width = 600;
},
{
anchors = (
{
name = top;
position = "{350, 730}";
}
);
layerId = "18543873-86E0-4072-B456-E15DF9A15DA0";
shapes = (
{
closed = 1;
nodes = (
(184,420,ls),
(303,420,o),
(357,345,o),
(346,230,cs),
(344,217,o),
(342,203,o),
(338,190,cs),
(309,75,o),
(229,0,o),
(110,0,cs),
(55,0,ls),
(15,0,o),
(-2,20,o),
(6,60,cs),
(122,715,ls),
(125,732,o),
(134,740,o),
(151,740,cs),
(168,740,o),
(175,732,o),
(172,715,cs),
(122,435,ls),
(120,425,o),
(124,420,o),
(134,420,cs)
);
},
{
closed = 1;
nodes = (
(58,75,ls),
(55,55,o),
(63,45,o),
(83,45,cs),
(118,45,ls),
(208,45,o),
(266,100,o),
(288,190,cs),
(292,203,o),
(294,217,o),
(296,230,cs),
(305,320,o),
(267,375,o),
(177,375,cs),
(127,375,ls),
(117,375,o),
(111,370,o),
(109,360,cs)
);
},
{
closed = 1;
nodes = (
(401,-10,o),
(395,-2,o),
(397,15,cs),
(522,715,ls),
(525,732,o),
(534,740,o),
(551,740,cs),
(568,740,o),
(575,732,o),
(572,715,cs),
(447,15,ls),
(445,-2,o),
(435,-10,o),
(418,-10,cs)
);
}
);
width = 600;
}
);
unicode = 1067;
},
